<svg xmlns="http://www.w3.org/2000/svg" xmlns:xlink="http://www.w3.org/1999/xlink" width="500" zoomAndPan="magnify" viewBox="0 0 375 374.999991" height="500" preserveAspectRatio="xMidYMid meet" version="1.0"><defs><g/><clipPath id="4fc5e049a4"><path d="M 46 21 L 169 21 L 169 117 L 46 117 Z M 46 21 " clip-rule="nonzero"/></clipPath><clipPath id="c0e0d00d30"><path d="M 37.992188 58.617188 L 121.753906 0.285156 L 177.335938 80.09375 L 93.574219 138.425781 Z M 37.992188 58.617188 " clip-rule="nonzero"/></clipPath><clipPath id="0102e7990e"><path d="M 37.992188 58.617188 L 121.753906 0.285156 L 177.335938 80.09375 L 93.574219 138.425781 Z M 37.992188 58.617188 " clip-rule="nonzero"/></clipPath><clipPath id="e502d8fbb0"><path d="M 0.878906 132 L 214.71875 132 L 214.71875 184 L 0.878906 184 Z M 0.878906 132 " clip-rule="nonzero"/></clipPath><clipPath id="1c90d102e8"><rect x="0" width="215" y="0" height="52"/></clipPath><clipPath id="3c3b5bf2f8"><path d="M 29 174 L 190 174 L 190 195.601562 L 29 195.601562 Z M 29 174 " clip-rule="nonzero"/></clipPath><clipPath id="eea2a6e07d"><rect x="0" width="161" y="0" height="22"/></clipPath><clipPath id="90b1d9b277"><rect x="0" width="215" y="0" height="196"/></clipPath></defs><g transform="matrix(1, 0, 0, 1, 80, 90)"><g clip-path="url(#90b1d9b277)"><g clip-path="url(#4fc5e049a4)"><g clip-path="url(#c0e0d00d30)"><g clip-path="url(#0102e7990e)"><path fill="#dfa900" d="M 141.109375 93.179688 C 140.882812 92.957031 140.582031 92.832031 140.257812 92.824219 C 139.851562 92.816406 139.46875 93.003906 139.226562 93.324219 C 136.707031 96.652344 133.679688 99.558594 130.226562 101.960938 C 112.230469 114.496094 87.394531 110.050781 74.863281 92.054688 C 74.828125 92.003906 74.792969 91.953125 74.757812 91.902344 L 76.417969 91.160156 C 76.820312 90.984375 77.097656 90.609375 77.160156 90.175781 C 77.21875 89.742188 77.046875 89.308594 76.710938 89.03125 L 66.351562 80.515625 C 65.980469 80.210938 65.472656 80.140625 65.035156 80.335938 C 64.597656 80.53125 64.308594 80.953125 64.285156 81.433594 L 63.6875 94.828125 C 63.667969 95.265625 63.878906 95.683594 64.238281 95.929688 C 64.601562 96.175781 65.066406 96.214844 65.464844 96.039062 L 67.496094 95.132812 C 67.800781 95.605469 68.113281 96.074219 68.429688 96.53125 C 75.695312 106.964844 86.59375 113.945312 99.113281 116.1875 C 111.628906 118.425781 124.269531 115.65625 134.707031 108.390625 C 139.148438 105.296875 142.992188 101.519531 146.132812 97.167969 C 146.386719 96.8125 146.441406 96.355469 146.277344 95.953125 C 146.117188 95.550781 145.757812 95.257812 145.328125 95.183594 C 144.402344 95.023438 141.625 93.546875 141.109375 93.179688 Z M 133.257812 106.320312 C 112.859375 120.527344 84.707031 115.488281 70.503906 95.089844 C 70 94.371094 69.515625 93.628906 69.054688 92.878906 C 68.722656 92.339844 68.042969 92.128906 67.460938 92.386719 L 66.304688 92.902344 L 66.695312 84.078125 L 73.519531 89.6875 L 72.359375 90.203125 C 72.023438 90.351562 71.769531 90.640625 71.664062 90.992188 C 71.554688 91.34375 71.609375 91.726562 71.808594 92.039062 C 72.121094 92.53125 72.449219 93.023438 72.785156 93.503906 C 86.113281 112.644531 112.527344 117.371094 131.667969 104.039062 C 135.015625 101.707031 137.984375 98.9375 140.511719 95.785156 C 141.261719 96.21875 142.207031 96.6875 143.058594 97.050781 C 140.289062 100.605469 136.996094 103.71875 133.257812 106.320312 Z M 150.753906 42.722656 C 150.394531 42.476562 149.929688 42.433594 149.527344 42.613281 L 147.5 43.519531 C 147.195312 43.046875 146.882812 42.578125 146.566406 42.121094 C 139.296875 31.6875 128.402344 24.707031 115.882812 22.464844 C 103.367188 20.226562 90.722656 22.992188 80.289062 30.261719 C 75.84375 33.355469 72 37.132812 68.863281 41.484375 C 68.609375 41.839844 68.554688 42.296875 68.71875 42.699219 C 68.878906 43.101562 69.238281 43.394531 69.667969 43.46875 C 70.585938 43.632812 73.363281 45.109375 73.882812 45.480469 C 74.109375 45.699219 74.414062 45.824219 74.734375 45.832031 C 75.136719 45.84375 75.523438 45.652344 75.765625 45.332031 C 78.28125 42.003906 81.3125 39.101562 84.769531 36.691406 C 102.761719 24.160156 127.597656 28.605469 140.132812 46.601562 C 140.164062 46.652344 140.199219 46.703125 140.238281 46.753906 L 138.574219 47.492188 C 138.171875 47.671875 137.894531 48.042969 137.835938 48.480469 C 137.773438 48.914062 137.945312 49.347656 138.285156 49.625 L 148.640625 58.140625 C 149.011719 58.445312 149.523438 58.515625 149.960938 58.320312 C 150.035156 58.285156 150.101562 58.25 150.167969 58.203125 C 150.488281 57.980469 150.691406 57.621094 150.707031 57.222656 L 151.304688 43.828125 C 151.324219 43.386719 151.117188 42.96875 150.753906 42.722656 Z M 148.292969 54.582031 L 141.46875 48.96875 L 142.628906 48.453125 C 142.96875 48.304688 143.21875 48.011719 143.328125 47.660156 C 143.433594 47.308594 143.382812 46.929688 143.183594 46.617188 C 142.867188 46.125 142.539062 45.632812 142.207031 45.152344 C 128.878906 26.011719 102.464844 21.285156 83.324219 34.617188 C 79.976562 36.945312 77.003906 39.71875 74.476562 42.871094 C 73.726562 42.433594 72.785156 41.96875 71.933594 41.605469 C 74.703125 38.050781 77.996094 34.9375 81.734375 32.335938 C 102.132812 18.128906 130.285156 23.164062 144.492188 43.566406 C 144.992188 44.285156 145.480469 45.03125 145.9375 45.777344 C 146.269531 46.316406 146.953125 46.527344 147.53125 46.269531 L 148.691406 45.753906 Z M 51.796875 72.226562 L 53.875 71.070312 C 54.601562 71.65625 55.386719 72.160156 56.226562 72.574219 L 56.042969 74.945312 C 55.992188 75.59375 56.441406 76.175781 57.078125 76.289062 L 61.132812 77.015625 C 61.773438 77.128906 62.394531 76.742188 62.570312 76.117188 L 63.222656 73.824219 C 64.152344 73.726562 65.0625 73.527344 65.949219 73.230469 L 67.496094 75.039062 C 67.921875 75.53125 68.648438 75.625 69.179688 75.253906 L 72.5625 72.898438 C 73.09375 72.527344 73.257812 71.8125 72.941406 71.246094 L 71.785156 69.164062 C 72.371094 68.441406 72.875 67.65625 73.289062 66.816406 L 75.660156 67 C 76.308594 67.050781 76.890625 66.601562 77.003906 65.960938 L 77.730469 61.910156 C 77.84375 61.269531 77.453125 60.644531 76.828125 60.46875 L 74.539062 59.816406 C 74.441406 58.890625 74.242188 57.976562 73.945312 57.09375 L 75.753906 55.542969 C 76.246094 55.121094 76.339844 54.394531 75.96875 53.863281 L 73.613281 50.480469 C 73.242188 49.949219 72.527344 49.78125 71.960938 50.097656 L 69.878906 51.257812 C 69.15625 50.671875 68.371094 50.167969 67.53125 49.753906 L 67.714844 47.378906 C 67.765625 46.734375 67.316406 46.152344 66.675781 46.039062 L 62.621094 45.3125 C 61.984375 45.199219 61.359375 45.589844 61.183594 46.210938 L 60.53125 48.503906 C 59.605469 48.597656 58.691406 48.800781 57.808594 49.097656 L 56.257812 47.289062 C 55.835938 46.796875 55.109375 46.703125 54.578125 47.074219 L 51.195312 49.429688 C 50.660156 49.800781 50.496094 50.515625 50.8125 51.082031 L 51.96875 53.164062 C 51.382812 53.886719 50.882812 54.675781 50.46875 55.511719 L 48.09375 55.328125 C 47.445312 55.277344 46.867188 55.726562 46.75 56.367188 L 46.027344 60.421875 C 45.910156 61.058594 46.300781 61.683594 46.925781 61.859375 L 49.214844 62.511719 C 49.3125 63.441406 49.511719 64.351562 49.808594 65.234375 L 48.003906 66.785156 C 47.507812 67.207031 47.417969 67.933594 47.789062 68.464844 L 50.140625 71.847656 C 50.511719 72.378906 51.226562 72.542969 51.796875 72.226562 Z M 50.515625 67.960938 L 52.128906 66.578125 C 52.546875 66.21875 52.6875 65.632812 52.472656 65.125 C 51.984375 63.972656 51.714844 62.75 51.679688 61.496094 C 51.660156 60.945312 51.289062 60.46875 50.761719 60.320312 L 48.714844 59.738281 L 49.035156 57.9375 L 51.15625 58.101562 C 51.703125 58.144531 52.21875 57.824219 52.425781 57.316406 C 52.898438 56.152344 53.570312 55.101562 54.429688 54.1875 C 54.804688 53.785156 54.878906 53.1875 54.613281 52.707031 L 53.578125 50.851562 L 55.078125 49.804688 L 56.460938 51.421875 C 56.816406 51.839844 57.40625 51.976562 57.914062 51.761719 C 59.066406 51.273438 60.285156 51.007812 61.542969 50.96875 C 62.089844 50.949219 62.566406 50.578125 62.714844 50.050781 L 63.296875 48.003906 L 65.101562 48.328125 L 64.9375 50.445312 C 64.894531 50.996094 65.210938 51.507812 65.722656 51.714844 C 66.882812 52.1875 67.9375 52.863281 68.847656 53.71875 C 69.25 54.097656 69.847656 54.171875 70.332031 53.902344 L 72.1875 52.867188 L 73.234375 54.371094 L 71.621094 55.753906 C 71.203125 56.113281 71.0625 56.699219 71.277344 57.207031 C 71.765625 58.359375 72.03125 59.582031 72.070312 60.835938 C 72.089844 61.386719 72.460938 61.863281 72.988281 62.011719 L 75.035156 62.59375 L 74.710938 64.398438 L 72.589844 64.234375 C 72.042969 64.191406 71.53125 64.507812 71.324219 65.019531 C 70.851562 66.179688 70.175781 67.234375 69.320312 68.148438 C 68.941406 68.546875 68.871094 69.148438 69.136719 69.628906 L 70.171875 71.480469 L 68.667969 72.527344 L 67.289062 70.914062 C 66.929688 70.496094 66.34375 70.359375 65.835938 70.574219 C 64.683594 71.058594 63.460938 71.328125 62.207031 71.367188 C 61.65625 71.382812 61.183594 71.753906 61.03125 72.285156 L 60.449219 74.328125 L 58.648438 74.003906 L 58.8125 71.886719 C 58.855469 71.335938 58.539062 70.824219 58.027344 70.617188 C 56.863281 70.144531 55.8125 69.46875 54.898438 68.613281 C 54.5 68.234375 53.898438 68.160156 53.417969 68.429688 L 51.5625 69.464844 Z M 66.1875 67.355469 C 69.601562 64.976562 70.445312 60.265625 68.066406 56.851562 C 65.691406 53.4375 60.980469 52.59375 57.566406 54.972656 C 54.152344 57.351562 53.308594 62.0625 55.6875 65.476562 C 58.0625 68.886719 62.773438 69.730469 66.1875 67.355469 Z M 59.011719 57.050781 C 61.28125 55.46875 64.414062 56.03125 65.992188 58.300781 C 67.574219 60.566406 67.011719 63.699219 64.746094 65.28125 C 62.476562 66.859375 59.34375 66.300781 57.761719 64.03125 C 56.183594 61.761719 56.742188 58.628906 59.011719 57.050781 Z M 163.195312 66.429688 L 161.113281 67.585938 C 160.390625 67 159.605469 66.5 158.765625 66.085938 L 158.949219 63.710938 C 159 63.0625 158.550781 62.484375 157.910156 62.367188 L 153.859375 61.644531 C 153.21875 61.527344 152.597656 61.917969 152.417969 62.542969 L 151.765625 64.832031 C 150.839844 64.929688 149.925781 65.128906 149.042969 65.425781 L 147.496094 63.621094 C 147.070312 63.125 146.34375 63.035156 145.8125 63.40625 L 142.429688 65.757812 C 141.898438 66.128906 141.734375 66.84375 142.046875 67.410156 L 143.207031 69.492188 C 142.621094 70.214844 142.117188 71.003906 141.703125 71.839844 L 139.332031 71.65625 C 138.683594 71.605469 138.101562 72.054688 137.988281 72.695312 L 137.261719 76.75 C 137.148438 77.390625 137.535156 78.007812 138.160156 78.1875 L 140.453125 78.839844 C 140.550781 79.769531 140.75 80.679688 141.046875 81.5625 L 139.238281 83.113281 C 138.746094 83.535156 138.652344 84.261719 139.023438 84.796875 L 141.378906 88.175781 C 141.75 88.707031 142.464844 88.875 143.03125 88.558594 L 145.109375 87.398438 C 145.835938 87.988281 146.621094 88.488281 147.460938 88.902344 L 147.277344 91.277344 C 147.226562 91.925781 147.675781 92.503906 148.3125 92.617188 L 152.367188 93.34375 C 153.007812 93.457031 153.628906 93.070312 153.808594 92.445312 L 154.460938 90.15625 C 155.386719 90.058594 156.296875 89.859375 157.183594 89.558594 L 158.730469 91.367188 C 159.15625 91.863281 159.882812 91.953125 160.414062 91.582031 L 163.796875 89.226562 C 164.328125 88.855469 164.492188 88.144531 164.175781 87.574219 L 163.019531 85.496094 C 163.605469 84.769531 164.109375 83.984375 164.523438 83.148438 L 166.894531 83.328125 C 167.542969 83.378906 168.125 82.933594 168.238281 82.292969 L 168.964844 78.238281 C 169.078125 77.597656 168.6875 76.976562 168.066406 76.800781 L 165.773438 76.148438 C 165.675781 75.21875 165.476562 74.308594 165.179688 73.425781 L 166.988281 71.875 C 167.480469 71.453125 167.574219 70.726562 167.203125 70.191406 L 164.847656 66.8125 C 164.480469 66.277344 163.761719 66.113281 163.195312 66.429688 Z M 164.476562 70.695312 L 162.863281 72.078125 C 162.445312 72.4375 162.304688 73.023438 162.519531 73.53125 C 163.007812 74.683594 163.273438 75.90625 163.3125 77.160156 C 163.332031 77.710938 163.703125 78.1875 164.230469 78.335938 L 166.277344 78.917969 L 165.953125 80.722656 L 163.832031 80.558594 C 163.285156 80.515625 162.769531 80.832031 162.5625 81.34375 C 162.089844 82.507812 161.417969 83.558594 160.5625 84.46875 C 160.183594 84.871094 160.109375 85.46875 160.378906 85.949219 L 161.414062 87.804688 L 159.910156 88.851562 L 158.53125 87.238281 C 158.171875 86.820312 157.585938 86.683594 157.078125 86.898438 C 155.925781 87.382812 154.703125 87.652344 153.449219 87.691406 C 152.898438 87.707031 152.421875 88.078125 152.273438 88.605469 L 151.691406 90.652344 L 149.886719 90.328125 L 150.050781 88.210938 C 150.09375 87.660156 149.777344 87.148438 149.265625 86.941406 C 148.101562 86.46875 147.050781 85.796875 146.136719 84.9375 C 145.734375 84.5625 145.136719 84.488281 144.65625 84.753906 L 142.800781 85.789062 L 141.753906 84.285156 L 143.367188 82.902344 C 143.785156 82.546875 143.921875 81.957031 143.707031 81.449219 C 143.222656 80.296875 142.953125 79.078125 142.914062 77.824219 C 142.898438 77.273438 142.527344 76.796875 141.996094 76.644531 L 139.953125 76.066406 L 140.273438 74.261719 L 142.394531 74.425781 C 142.941406 74.46875 143.457031 74.152344 143.664062 73.640625 C 144.136719 72.476562 144.808594 71.425781 145.664062 70.511719 C 146.042969 70.109375 146.117188 69.511719 145.847656 69.03125 L 144.816406 67.175781 L 146.320312 66.128906 L 147.699219 67.742188 C 148.058594 68.160156 148.644531 68.296875 149.152344 68.082031 C 150.304688 67.597656 151.527344 67.328125 152.78125 67.289062 C 153.332031 67.273438 153.808594 66.902344 153.957031 66.375 L 154.539062 64.328125 L 156.34375 64.652344 L 156.179688 66.769531 C 156.136719 67.320312 156.453125 67.832031 156.960938 68.039062 C 158.125 68.511719 159.175781 69.1875 160.089844 70.042969 C 160.492188 70.421875 161.089844 70.492188 161.570312 70.226562 L 163.425781 69.191406 Z M 82.902344 68.421875 L 77.425781 70.175781 C 76.808594 70.375 76.441406 71.011719 76.578125 71.644531 L 78.328125 79.84375 C 78.464844 80.480469 79.058594 80.90625 79.703125 80.835938 L 85.421875 80.203125 C 86.476562 82.355469 87.832031 84.324219 89.464844 86.078125 L 86.832031 91.1875 C 86.535156 91.765625 86.726562 92.472656 87.269531 92.828125 L 94.308594 97.386719 C 94.851562 97.742188 95.574219 97.625 95.984375 97.117188 L 99.574219 92.628906 C 101.839844 93.398438 104.191406 93.832031 106.589844 93.917969 L 108.34375 99.394531 C 108.542969 100.015625 109.179688 100.382812 109.8125 100.246094 L 118.011719 98.496094 C 118.648438 98.359375 119.078125 97.765625 119.007812 97.117188 L 118.371094 91.402344 C 120.523438 90.34375 122.492188 88.988281 124.246094 87.359375 L 129.355469 89.988281 C 129.785156 90.210938 130.285156 90.164062 130.65625 89.902344 C 130.789062 89.8125 130.902344 89.695312 130.996094 89.554688 L 135.554688 82.515625 C 135.90625 81.96875 135.789062 81.246094 135.28125 80.839844 L 130.792969 77.246094 C 131.566406 74.984375 132 72.632812 132.085938 70.234375 L 137.5625 68.476562 C 138.179688 68.277344 138.546875 67.644531 138.410156 67.007812 L 136.660156 58.808594 C 136.523438 58.175781 135.929688 57.746094 135.285156 57.816406 L 129.570312 58.449219 C 128.511719 56.300781 127.15625 54.328125 125.527344 52.574219 L 128.15625 47.464844 C 128.453125 46.886719 128.265625 46.179688 127.722656 45.824219 L 120.683594 41.265625 C 120.140625 40.910156 119.414062 41.027344 119.007812 41.535156 L 115.414062 46.023438 C 113.148438 45.253906 110.800781 44.820312 108.402344 44.734375 L 106.644531 39.257812 C 106.445312 38.636719 105.8125 38.269531 105.175781 38.40625 L 96.976562 40.15625 C 96.34375 40.292969 95.914062 40.886719 95.984375 41.535156 L 96.621094 47.25 C 94.464844 48.308594 92.496094 49.664062 90.746094 51.292969 L 85.632812 48.664062 C 85.058594 48.367188 84.347656 48.554688 83.992188 49.097656 L 79.433594 56.136719 C 79.082031 56.679688 79.199219 57.40625 79.703125 57.8125 L 84.195312 61.40625 C 83.421875 63.671875 82.988281 66.023438 82.902344 68.421875 Z M 86.871094 61.4375 C 87.066406 60.921875 86.910156 60.339844 86.480469 59.996094 L 82.179688 56.554688 L 85.496094 51.4375 L 90.394531 53.960938 C 90.882812 54.210938 91.480469 54.117188 91.867188 53.726562 C 93.777344 51.808594 96.007812 50.273438 98.488281 49.167969 C 98.992188 48.945312 99.292969 48.421875 99.230469 47.875 L 98.625 42.394531 L 104.585938 41.121094 L 106.269531 46.371094 C 106.4375 46.894531 106.925781 47.25 107.476562 47.25 C 110.191406 47.246094 112.851562 47.734375 115.382812 48.707031 C 115.898438 48.902344 116.476562 48.742188 116.824219 48.316406 L 120.265625 44.011719 L 125.382812 47.328125 L 122.863281 52.230469 C 122.609375 52.71875 122.703125 53.316406 123.09375 53.703125 C 125.015625 55.617188 126.550781 57.84375 127.652344 60.328125 C 127.878906 60.828125 128.398438 61.128906 128.949219 61.066406 L 134.425781 60.460938 L 135.699219 66.425781 L 130.453125 68.105469 C 129.929688 68.273438 129.574219 68.761719 129.574219 69.3125 C 129.578125 72.03125 129.089844 74.691406 128.117188 77.21875 C 127.921875 77.734375 128.078125 78.316406 128.507812 78.660156 L 132.8125 82.101562 L 129.496094 87.21875 L 124.59375 84.699219 C 124.175781 84.480469 123.671875 84.519531 123.292969 84.785156 C 123.234375 84.828125 123.175781 84.875 123.121094 84.929688 C 121.207031 86.851562 118.980469 88.382812 116.5 89.488281 C 115.996094 89.714844 115.695312 90.234375 115.757812 90.78125 L 116.363281 96.261719 L 110.402344 97.535156 L 108.71875 92.289062 C 108.550781 91.761719 108.0625 91.410156 107.511719 91.410156 C 104.796875 91.414062 102.136719 90.921875 99.605469 89.953125 C 99.09375 89.757812 98.511719 89.914062 98.164062 90.34375 L 94.722656 94.644531 L 89.609375 91.328125 L 92.128906 86.429688 C 92.378906 85.941406 92.285156 85.34375 91.894531 84.957031 C 89.976562 83.042969 88.441406 80.8125 87.335938 78.335938 C 87.113281 77.832031 86.589844 77.53125 86.042969 77.59375 L 80.566406 78.199219 L 79.289062 72.234375 L 84.539062 70.554688 C 85.0625 70.386719 85.417969 69.898438 85.417969 69.347656 C 85.410156 66.628906 85.902344 63.96875 86.871094 61.4375 Z M 97.582031 84.625 C 103.980469 88.769531 112.03125 88.382812 117.929688 84.273438 C 119.808594 82.964844 121.46875 81.277344 122.792969 79.242188 C 128.257812 70.808594 125.84375 59.5 117.410156 54.035156 C 108.976562 48.570312 97.667969 50.980469 92.199219 59.417969 C 86.734375 67.847656 89.148438 79.15625 97.582031 84.625 Z M 116.480469 82.199219 C 115.75 82.707031 114.980469 83.148438 114.179688 83.523438 L 109.578125 76.917969 C 109.300781 76.515625 108.816406 76.3125 108.332031 76.394531 C 105.371094 76.886719 102.351562 75.613281 100.636719 73.152344 C 99.042969 70.859375 98.808594 67.964844 99.910156 65.503906 L 103.734375 70.996094 C 104.132812 71.566406 104.921875 71.707031 105.496094 71.308594 L 110.046875 68.140625 C 110.617188 67.742188 110.757812 66.953125 110.359375 66.382812 L 106.535156 60.886719 C 109.226562 60.707031 111.859375 61.929688 113.457031 64.222656 C 115.171875 66.6875 115.316406 69.957031 113.828125 72.558594 C 113.582031 72.980469 113.605469 73.507812 113.886719 73.90625 L 118.496094 80.523438 C 117.867188 81.144531 117.191406 81.703125 116.480469 82.199219 Z M 94.320312 60.792969 C 99.027344 53.527344 108.765625 51.449219 116.03125 56.15625 C 123.292969 60.863281 125.375 70.601562 120.667969 77.863281 C 120.515625 78.097656 120.359375 78.324219 120.195312 78.546875 L 116.398438 73.09375 C 117.960938 69.78125 117.648438 65.816406 115.53125 62.777344 C 112.953125 59.074219 108.324219 57.476562 104.011719 58.800781 C 103.628906 58.921875 103.320312 59.21875 103.1875 59.597656 C 103.054688 59.980469 103.117188 60.402344 103.347656 60.734375 L 107.5625 66.789062 L 105.089844 68.511719 L 100.871094 62.457031 C 100.640625 62.125 100.265625 61.925781 99.863281 61.914062 C 99.457031 61.90625 99.074219 62.089844 98.828125 62.410156 C 96.089844 65.996094 95.984375 70.890625 98.566406 74.59375 C 100.679688 77.628906 104.289062 79.296875 107.941406 78.988281 L 111.734375 84.433594 C 107.542969 85.605469 102.890625 85.046875 98.960938 82.5 C 91.695312 77.796875 89.617188 68.054688 94.320312 60.792969 Z M 148.804688 71.304688 C 145.390625 73.679688 144.546875 78.390625 146.921875 81.804688 C 149.300781 85.21875 154.011719 86.0625 157.425781 83.683594 C 160.839844 81.308594 161.683594 76.597656 159.304688 73.183594 C 156.925781 69.765625 152.21875 68.925781 148.804688 71.304688 Z M 155.980469 81.609375 C 153.710938 83.1875 150.578125 82.628906 148.996094 80.359375 C 147.417969 78.089844 147.976562 74.957031 150.246094 73.375 C 152.515625 71.796875 155.648438 72.355469 157.230469 74.625 C 158.808594 76.898438 158.25 80.027344 155.980469 81.609375 Z M 155.980469 81.609375 " fill-opacity="1" fill-rule="nonzero"/></g></g></g><g clip-path="url(#e502d8fbb0)"><g transform="matrix(1, 0, 0, 1, 0, 132)"><g clip-path="url(#1c90d102e8)"><g fill="#ffffff" fill-opacity="1"><g transform="translate(1.066023, 37.188721)"><g><path d="M 33.28125 0 L 22.65625 0 L 10.171875 -14.359375 L 10.171875 0 L 2.46875 0 L 2.46875 -33.859375 L 10.171875 -33.859375 L 10.171875 -20.03125 L 21.796875 -33.859375 L 31.15625 -33.859375 L 17.53125 -17.8125 Z M 33.28125 0 "/></g></g></g><g fill="#ffffff" fill-opacity="1"><g transform="translate(33.364357, 37.188721)"><g><path d="M 10.171875 -21.015625 L 10.171875 0 L 2.46875 0 L 2.46875 -33.859375 L 10.171875 -33.859375 L 23.640625 -12.84375 L 23.71875 -12.84375 L 23.71875 -33.859375 L 31.4375 -33.859375 L 31.4375 0 L 23.71875 0 L 10.265625 -21.015625 Z M 10.171875 -21.015625 "/></g></g></g><g fill="#ffffff" fill-opacity="1"><g transform="translate(67.263259, 37.188721)"><g/></g></g><g fill="#ffffff" fill-opacity="1"><g transform="translate(78.467127, 37.188721)"><g><path d="M 0.328125 -27.09375 L 0.328125 -33.859375 L 24.140625 -33.859375 L 24.140625 -27.09375 L 16.09375 -27.09375 L 16.09375 0 L 8.375 0 L 8.375 -27.09375 Z M 0.328125 -27.09375 "/></g></g></g><g fill="#ffffff" fill-opacity="1"><g transform="translate(102.926868, 37.188721)"><g><path d="M -1.234375 -33.859375 L 8.046875 -33.859375 L 15.109375 -23.03125 L 22.171875 -33.859375 L 31.4375 -33.859375 L 18.96875 -15.1875 L 18.96875 0 L 11.25 0 L 11.25 -15.1875 Z M -1.234375 -33.859375 "/></g></g></g><g fill="#ffffff" fill-opacity="1"><g transform="translate(133.132185, 37.188721)"><g><path d="M 2.46875 -33.859375 L 14.578125 -33.859375 C 17.828125 -33.859375 20.476562 -32.988281 22.53125 -31.25 C 24.582031 -29.519531 25.609375 -27.039062 25.609375 -23.8125 C 25.609375 -21.320312 24.984375 -19.234375 23.734375 -17.546875 C 22.492188 -15.859375 20.804688 -14.675781 18.671875 -14 L 30.328125 0 L 20.515625 0 L 10.171875 -13.375 L 10.171875 0 L 2.46875 0 Z M 10.171875 -18.84375 L 11.078125 -18.84375 C 11.796875 -18.84375 12.398438 -18.851562 12.890625 -18.875 C 13.378906 -18.90625 13.9375 -19.003906 14.5625 -19.171875 C 15.195312 -19.335938 15.707031 -19.566406 16.09375 -19.859375 C 16.476562 -20.160156 16.804688 -20.597656 17.078125 -21.171875 C 17.347656 -21.753906 17.484375 -22.453125 17.484375 -23.265625 C 17.484375 -24.085938 17.347656 -24.785156 17.078125 -25.359375 C 16.804688 -25.941406 16.476562 -26.378906 16.09375 -26.671875 C 15.707031 -26.972656 15.195312 -27.207031 14.5625 -27.375 C 13.9375 -27.539062 13.378906 -27.632812 12.890625 -27.65625 C 12.398438 -27.6875 11.796875 -27.703125 11.078125 -27.703125 L 10.171875 -27.703125 Z M 10.171875 -18.84375 "/></g></g></g><g fill="#ffffff" fill-opacity="1"><g transform="translate(162.5167, 37.188721)"><g><path d="M 21.84375 -33.859375 L 21.84375 -27.09375 L 10.171875 -27.09375 L 10.171875 -20.359375 L 21.34375 -20.359375 L 21.34375 -13.59375 L 10.171875 -13.59375 L 10.171875 -6.765625 L 21.84375 -6.765625 L 21.84375 0 L 2.46875 0 L 2.46875 -33.859375 Z M 21.84375 -33.859375 "/></g></g></g><g fill="#ffffff" fill-opacity="1"><g transform="translate(186.319794, 37.188721)"><g><path d="M 14.9375 -34.484375 C 16.769531 -34.484375 18.5625 -34.210938 20.3125 -33.671875 C 22.0625 -33.140625 23.363281 -32.613281 24.21875 -32.09375 L 25.453125 -31.28125 L 22.328125 -25.125 C 22.078125 -25.28125 21.734375 -25.488281 21.296875 -25.75 C 20.859375 -26.007812 20.035156 -26.359375 18.828125 -26.796875 C 17.628906 -27.234375 16.507812 -27.453125 15.46875 -27.453125 C 14.1875 -27.453125 13.195312 -27.175781 12.5 -26.625 C 11.800781 -26.082031 11.453125 -25.347656 11.453125 -24.421875 C 11.453125 -23.953125 11.613281 -23.519531 11.9375 -23.125 C 12.269531 -22.726562 12.832031 -22.304688 13.625 -21.859375 C 14.414062 -21.410156 15.113281 -21.046875 15.71875 -20.765625 C 16.320312 -20.492188 17.253906 -20.082031 18.515625 -19.53125 C 20.703125 -18.601562 22.566406 -17.335938 24.109375 -15.734375 C 25.660156 -14.140625 26.4375 -12.328125 26.4375 -10.296875 C 26.4375 -8.359375 26.085938 -6.660156 25.390625 -5.203125 C 24.691406 -3.753906 23.734375 -2.617188 22.515625 -1.796875 C 21.296875 -0.984375 19.945312 -0.378906 18.46875 0.015625 C 16.988281 0.410156 15.390625 0.609375 13.671875 0.609375 C 12.191406 0.609375 10.738281 0.457031 9.3125 0.15625 C 7.894531 -0.132812 6.707031 -0.503906 5.75 -0.953125 C 4.789062 -1.410156 3.925781 -1.859375 3.15625 -2.296875 C 2.394531 -2.734375 1.835938 -3.101562 1.484375 -3.40625 L 0.9375 -3.859375 L 4.796875 -10.34375 C 5.128906 -10.070312 5.582031 -9.722656 6.15625 -9.296875 C 6.726562 -8.867188 7.742188 -8.300781 9.203125 -7.59375 C 10.671875 -6.882812 11.96875 -6.53125 13.09375 -6.53125 C 16.351562 -6.53125 17.984375 -7.632812 17.984375 -9.84375 C 17.984375 -10.3125 17.863281 -10.742188 17.625 -11.140625 C 17.394531 -11.535156 16.984375 -11.929688 16.390625 -12.328125 C 15.804688 -12.734375 15.285156 -13.050781 14.828125 -13.28125 C 14.378906 -13.507812 13.640625 -13.863281 12.609375 -14.34375 C 11.585938 -14.820312 10.832031 -15.1875 10.34375 -15.4375 C 8.289062 -16.445312 6.703125 -17.710938 5.578125 -19.234375 C 4.460938 -20.753906 3.90625 -22.390625 3.90625 -24.140625 C 3.90625 -27.171875 5.023438 -29.648438 7.265625 -31.578125 C 9.503906 -33.515625 12.0625 -34.484375 14.9375 -34.484375 Z M 14.9375 -34.484375 "/></g></g></g></g></g></g><g clip-path="url(#3c3b5bf2f8)"><g transform="matrix(1, 0, 0, 1, 29, 174)"><g clip-path="url(#eea2a6e07d)"><g fill="#ffffff" fill-opacity="1"><g transform="translate(0.628687, 17.317802)"><g><path d="M 6.515625 0.21875 C 5.503906 0.21875 4.628906 0.0507812 3.890625 -0.28125 C 3.160156 -0.625 2.550781 -1.085938 2.0625 -1.671875 C 1.582031 -2.253906 1.222656 -2.925781 0.984375 -3.6875 C 0.742188 -4.445312 0.625 -5.25 0.625 -6.09375 C 0.625 -6.925781 0.742188 -7.722656 0.984375 -8.484375 C 1.222656 -9.242188 1.582031 -9.914062 2.0625 -10.5 C 2.550781 -11.082031 3.160156 -11.539062 3.890625 -11.875 C 4.628906 -12.21875 5.503906 -12.390625 6.515625 -12.390625 C 7.515625 -12.390625 8.378906 -12.21875 9.109375 -11.875 C 9.847656 -11.53125 10.429688 -11.054688 10.859375 -10.453125 C 11.296875 -9.847656 11.570312 -9.144531 11.6875 -8.34375 L 9.1875 -8.34375 C 9.070312 -9 8.765625 -9.492188 8.265625 -9.828125 C 7.773438 -10.160156 7.171875 -10.328125 6.453125 -10.328125 C 5.710938 -10.328125 5.085938 -10.148438 4.578125 -9.796875 C 4.066406 -9.441406 3.675781 -8.941406 3.40625 -8.296875 C 3.144531 -7.660156 3.015625 -6.925781 3.015625 -6.09375 C 3.015625 -5.25 3.144531 -4.503906 3.40625 -3.859375 C 3.675781 -3.222656 4.066406 -2.722656 4.578125 -2.359375 C 5.085938 -2.003906 5.710938 -1.828125 6.453125 -1.828125 C 7.171875 -1.828125 7.773438 -2.003906 8.265625 -2.359375 C 8.753906 -2.710938 9.0625 -3.242188 9.1875 -3.953125 L 11.6875 -3.953125 C 11.570312 -3.109375 11.296875 -2.375 10.859375 -1.75 C 10.429688 -1.125 9.847656 -0.640625 9.109375 -0.296875 C 8.378906 0.046875 7.515625 0.21875 6.515625 0.21875 Z M 6.515625 0.21875 "/></g></g></g><g fill="#ffffff" fill-opacity="1"><g transform="translate(16.134293, 17.317802)"><g><path d="M 2.515625 0 L 0.109375 0 L 4.40625 -12.15625 L 6.921875 -12.15625 L 11.203125 0 L 8.796875 0 L 7.96875 -2.5 L 3.328125 -2.5 Z M 5.65625 -9.65625 L 3.984375 -4.515625 L 7.328125 -4.515625 Z M 5.65625 -9.65625 "/></g></g></g><g fill="#ffffff" fill-opacity="1"><g transform="translate(30.731645, 17.317802)"><g><path d="M 8.265625 -5.28125 L 10.453125 0 L 8.015625 0 L 6.09375 -4.859375 L 3.375 -4.859375 L 3.375 0 L 1.078125 0 L 1.078125 -12.15625 L 6.328125 -12.15625 C 7.085938 -12.15625 7.757812 -12.03125 8.34375 -11.78125 C 8.925781 -11.53125 9.378906 -11.140625 9.703125 -10.609375 C 10.023438 -10.085938 10.1875 -9.410156 10.1875 -8.578125 C 10.1875 -7.773438 10.015625 -7.09375 9.671875 -6.53125 C 9.335938 -5.96875 8.867188 -5.550781 8.265625 -5.28125 Z M 6.015625 -10.109375 L 3.375 -10.109375 L 3.375 -6.875 L 6.015625 -6.875 C 6.628906 -6.875 7.097656 -7.007812 7.421875 -7.28125 C 7.742188 -7.5625 7.90625 -7.96875 7.90625 -8.5 C 7.90625 -9.019531 7.738281 -9.414062 7.40625 -9.6875 C 7.082031 -9.96875 6.617188 -10.109375 6.015625 -10.109375 Z M 6.015625 -10.109375 "/></g></g></g><g fill="#ffffff" fill-opacity="1"><g transform="translate(44.994377, 17.317802)"><g/></g></g><g fill="#ffffff" fill-opacity="1"><g transform="translate(52.548798, 17.317802)"><g><path d="M 5.90625 0.21875 C 5.320312 0.21875 4.726562 0.144531 4.125 0 C 3.53125 -0.132812 2.976562 -0.359375 2.46875 -0.671875 C 1.957031 -0.992188 1.53125 -1.421875 1.1875 -1.953125 C 0.84375 -2.492188 0.632812 -3.160156 0.5625 -3.953125 L 2.9375 -3.953125 C 3.070312 -3.378906 3.289062 -2.929688 3.59375 -2.609375 C 3.90625 -2.285156 4.265625 -2.054688 4.671875 -1.921875 C 5.085938 -1.796875 5.503906 -1.734375 5.921875 -1.734375 C 6.554688 -1.734375 7.082031 -1.863281 7.5 -2.125 C 7.925781 -2.394531 8.140625 -2.820312 8.140625 -3.40625 C 8.140625 -3.832031 8 -4.160156 7.71875 -4.390625 C 7.445312 -4.628906 7.09375 -4.8125 6.65625 -4.9375 C 6.21875 -5.070312 5.738281 -5.195312 5.21875 -5.3125 C 4.71875 -5.425781 4.21875 -5.550781 3.71875 -5.6875 C 3.21875 -5.820312 2.753906 -6.007812 2.328125 -6.25 C 1.910156 -6.5 1.578125 -6.828125 1.328125 -7.234375 C 1.078125 -7.648438 0.953125 -8.175781 0.953125 -8.8125 C 0.953125 -9.601562 1.140625 -10.257812 1.515625 -10.78125 C 1.898438 -11.3125 2.414062 -11.710938 3.0625 -11.984375 C 3.707031 -12.253906 4.441406 -12.390625 5.265625 -12.390625 C 6.046875 -12.390625 6.78125 -12.25 7.46875 -11.96875 C 8.164062 -11.695312 8.75 -11.273438 9.21875 -10.703125 C 9.695312 -10.140625 10.003906 -9.421875 10.140625 -8.546875 L 7.796875 -8.546875 C 7.648438 -9.191406 7.335938 -9.664062 6.859375 -9.96875 C 6.390625 -10.269531 5.84375 -10.421875 5.21875 -10.421875 C 4.632812 -10.421875 4.15625 -10.300781 3.78125 -10.0625 C 3.414062 -9.820312 3.234375 -9.46875 3.234375 -9 C 3.234375 -8.632812 3.363281 -8.34375 3.625 -8.125 C 3.882812 -7.914062 4.226562 -7.75 4.65625 -7.625 C 5.082031 -7.5 5.539062 -7.378906 6.03125 -7.265625 C 6.539062 -7.160156 7.050781 -7.03125 7.5625 -6.875 C 8.070312 -6.71875 8.546875 -6.507812 8.984375 -6.25 C 9.429688 -5.988281 9.785156 -5.640625 10.046875 -5.203125 C 10.316406 -4.773438 10.453125 -4.210938 10.453125 -3.515625 C 10.453125 -2.367188 10.050781 -1.457031 9.25 -0.78125 C 8.457031 -0.113281 7.34375 0.21875 5.90625 0.21875 Z M 5.90625 0.21875 "/></g></g></g><g fill="#ffffff" fill-opacity="1"><g transform="translate(66.923078, 17.317802)"><g><path d="M 9.203125 0 L 1.078125 0 L 1.078125 -12.15625 L 9.203125 -12.15625 L 9.203125 -10.109375 L 3.375 -10.109375 L 3.375 -7.109375 L 8.59375 -7.109375 L 8.59375 -5.0625 L 3.375 -5.0625 L 3.375 -2.0625 L 9.203125 -2.0625 Z M 9.203125 0 "/></g></g></g><g fill="#ffffff" fill-opacity="1"><g transform="translate(80.10228, 17.317802)"><g><path d="M 8.265625 -5.28125 L 10.453125 0 L 8.015625 0 L 6.09375 -4.859375 L 3.375 -4.859375 L 3.375 0 L 1.078125 0 L 1.078125 -12.15625 L 6.328125 -12.15625 C 7.085938 -12.15625 7.757812 -12.03125 8.34375 -11.78125 C 8.925781 -11.53125 9.378906 -11.140625 9.703125 -10.609375 C 10.023438 -10.085938 10.1875 -9.410156 10.1875 -8.578125 C 10.1875 -7.773438 10.015625 -7.09375 9.671875 -6.53125 C 9.335938 -5.96875 8.867188 -5.550781 8.265625 -5.28125 Z M 6.015625 -10.109375 L 3.375 -10.109375 L 3.375 -6.875 L 6.015625 -6.875 C 6.628906 -6.875 7.097656 -7.007812 7.421875 -7.28125 C 7.742188 -7.5625 7.90625 -7.96875 7.90625 -8.5 C 7.90625 -9.019531 7.738281 -9.414062 7.40625 -9.6875 C 7.082031 -9.96875 6.617188 -10.109375 6.015625 -10.109375 Z M 6.015625 -10.109375 "/></g></g></g><g fill="#ffffff" fill-opacity="1"><g transform="translate(94.365012, 17.317802)"><g><path d="M 6.859375 0 L 4.328125 0 L 0.046875 -12.15625 L 2.453125 -12.15625 L 5.59375 -2.515625 L 8.734375 -12.15625 L 11.140625 -12.15625 Z M 6.859375 0 "/></g></g></g><g fill="#ffffff" fill-opacity="1"><g transform="translate(108.834895, 17.317802)"><g><path d="M 3.375 0 L 1.078125 0 L 1.078125 -12.15625 L 3.375 -12.15625 Z M 3.375 0 "/></g></g></g><g fill="#ffffff" fill-opacity="1"><g transform="translate(116.580537, 17.317802)"><g><path d="M 6.515625 0.21875 C 5.503906 0.21875 4.628906 0.0507812 3.890625 -0.28125 C 3.160156 -0.625 2.550781 -1.085938 2.0625 -1.671875 C 1.582031 -2.253906 1.222656 -2.925781 0.984375 -3.6875 C 0.742188 -4.445312 0.625 -5.25 0.625 -6.09375 C 0.625 -6.925781 0.742188 -7.722656 0.984375 -8.484375 C 1.222656 -9.242188 1.582031 -9.914062 2.0625 -10.5 C 2.550781 -11.082031 3.160156 -11.539062 3.890625 -11.875 C 4.628906 -12.21875 5.503906 -12.390625 6.515625 -12.390625 C 7.515625 -12.390625 8.378906 -12.21875 9.109375 -11.875 C 9.847656 -11.53125 10.429688 -11.054688 10.859375 -10.453125 C 11.296875 -9.847656 11.570312 -9.144531 11.6875 -8.34375 L 9.1875 -8.34375 C 9.070312 -9 8.765625 -9.492188 8.265625 -9.828125 C 7.773438 -10.160156 7.171875 -10.328125 6.453125 -10.328125 C 5.710938 -10.328125 5.085938 -10.148438 4.578125 -9.796875 C 4.066406 -9.441406 3.675781 -8.941406 3.40625 -8.296875 C 3.144531 -7.660156 3.015625 -6.925781 3.015625 -6.09375 C 3.015625 -5.25 3.144531 -4.503906 3.40625 -3.859375 C 3.675781 -3.222656 4.066406 -2.722656 4.578125 -2.359375 C 5.085938 -2.003906 5.710938 -1.828125 6.453125 -1.828125 C 7.171875 -1.828125 7.773438 -2.003906 8.265625 -2.359375 C 8.753906 -2.710938 9.0625 -3.242188 9.1875 -3.953125 L 11.6875 -3.953125 C 11.570312 -3.109375 11.296875 -2.375 10.859375 -1.75 C 10.429688 -1.125 9.847656 -0.640625 9.109375 -0.296875 C 8.378906 0.046875 7.515625 0.21875 6.515625 0.21875 Z M 6.515625 0.21875 "/></g></g></g><g fill="#ffffff" fill-opacity="1"><g transform="translate(132.086143, 17.317802)"><g><path d="M 9.203125 0 L 1.078125 0 L 1.078125 -12.15625 L 9.203125 -12.15625 L 9.203125 -10.109375 L 3.375 -10.109375 L 3.375 -7.109375 L 8.59375 -7.109375 L 8.59375 -5.0625 L 3.375 -5.0625 L 3.375 -2.0625 L 9.203125 -2.0625 Z M 9.203125 0 "/></g></g></g><g fill="#ffffff" fill-opacity="1"><g transform="translate(145.265344, 17.317802)"><g><path d="M 5.90625 0.21875 C 5.320312 0.21875 4.726562 0.144531 4.125 0 C 3.53125 -0.132812 2.976562 -0.359375 2.46875 -0.671875 C 1.957031 -0.992188 1.53125 -1.421875 1.1875 -1.953125 C 0.84375 -2.492188 0.632812 -3.160156 0.5625 -3.953125 L 2.9375 -3.953125 C 3.070312 -3.378906 3.289062 -2.929688 3.59375 -2.609375 C 3.90625 -2.285156 4.265625 -2.054688 4.671875 -1.921875 C 5.085938 -1.796875 5.503906 -1.734375 5.921875 -1.734375 C 6.554688 -1.734375 7.082031 -1.863281 7.5 -2.125 C 7.925781 -2.394531 8.140625 -2.820312 8.140625 -3.40625 C 8.140625 -3.832031 8 -4.160156 7.71875 -4.390625 C 7.445312 -4.628906 7.09375 -4.8125 6.65625 -4.9375 C 6.21875 -5.070312 5.738281 -5.195312 5.21875 -5.3125 C 4.71875 -5.425781 4.21875 -5.550781 3.71875 -5.6875 C 3.21875 -5.820312 2.753906 -6.007812 2.328125 -6.25 C 1.910156 -6.5 1.578125 -6.828125 1.328125 -7.234375 C 1.078125 -7.648438 0.953125 -8.175781 0.953125 -8.8125 C 0.953125 -9.601562 1.140625 -10.257812 1.515625 -10.78125 C 1.898438 -11.3125 2.414062 -11.710938 3.0625 -11.984375 C 3.707031 -12.253906 4.441406 -12.390625 5.265625 -12.390625 C 6.046875 -12.390625 6.78125 -12.25 7.46875 -11.96875 C 8.164062 -11.695312 8.75 -11.273438 9.21875 -10.703125 C 9.695312 -10.140625 10.003906 -9.421875 10.140625 -8.546875 L 7.796875 -8.546875 C 7.648438 -9.191406 7.335938 -9.664062 6.859375 -9.96875 C 6.390625 -10.269531 5.84375 -10.421875 5.21875 -10.421875 C 4.632812 -10.421875 4.15625 -10.300781 3.78125 -10.0625 C 3.414062 -9.820312 3.234375 -9.46875 3.234375 -9 C 3.234375 -8.632812 3.363281 -8.34375 3.625 -8.125 C 3.882812 -7.914062 4.226562 -7.75 4.65625 -7.625 C 5.082031 -7.5 5.539062 -7.378906 6.03125 -7.265625 C 6.539062 -7.160156 7.050781 -7.03125 7.5625 -6.875 C 8.070312 -6.71875 8.546875 -6.507812 8.984375 -6.25 C 9.429688 -5.988281 9.785156 -5.640625 10.046875 -5.203125 C 10.316406 -4.773438 10.453125 -4.210938 10.453125 -3.515625 C 10.453125 -2.367188 10.050781 -1.457031 9.25 -0.78125 C 8.457031 -0.113281 7.34375 0.21875 5.90625 0.21875 Z M 5.90625 0.21875 "/></g></g></g></g></g></g></g></g></svg>