<svg xmlns="http://www.w3.org/2000/svg" xmlns:xlink="http://www.w3.org/1999/xlink" width="500" zoomAndPan="magnify" viewBox="0 0 375 374.999991" height="500" preserveAspectRatio="xMidYMid meet" version="1.0"><defs><clipPath id="8fcf1cd857"><path d="M 20 58 L 355 58 L 355 317 L 20 317 Z M 20 58 " clip-rule="nonzero"/></clipPath><clipPath id="b48b23a5da"><path d="M -0.855469 158.5 L 225.632812 0.769531 L 376.074219 216.792969 L 149.585938 374.523438 Z M -0.855469 158.5 " clip-rule="nonzero"/></clipPath><clipPath id="408e18fea0"><path d="M -0.855469 158.5 L 225.632812 0.769531 L 376.074219 216.792969 L 149.585938 374.523438 Z M -0.855469 158.5 " clip-rule="nonzero"/></clipPath></defs><g clip-path="url(#8fcf1cd857)"><g clip-path="url(#b48b23a5da)"><g clip-path="url(#408e18fea0)"><path fill="#dfa900" d="M 278.585938 252.167969 C 277.972656 251.574219 277.152344 251.226562 276.277344 251.210938 C 275.175781 251.1875 274.136719 251.691406 273.476562 252.566406 C 266.660156 261.582031 258.453125 269.453125 249.089844 275.976562 C 200.320312 309.9375 133.015625 297.894531 99.050781 249.125 C 98.957031 248.988281 98.863281 248.855469 98.765625 248.714844 L 103.273438 246.703125 C 104.355469 246.21875 105.113281 245.210938 105.277344 244.03125 C 105.4375 242.855469 104.976562 241.679688 104.058594 240.925781 L 75.992188 217.847656 C 74.984375 217.023438 73.601562 216.839844 72.417969 217.367188 C 71.230469 217.890625 70.449219 219.042969 70.390625 220.34375 L 68.773438 256.640625 C 68.722656 257.828125 69.285156 258.957031 70.265625 259.625 C 71.246094 260.292969 72.507812 260.402344 73.589844 259.921875 L 79.085938 257.46875 C 79.910156 258.746094 80.761719 260.015625 81.621094 261.25 C 101.316406 289.527344 130.847656 308.449219 164.769531 314.519531 C 198.695312 320.59375 232.949219 313.089844 261.234375 293.394531 C 273.273438 285.007812 283.691406 274.773438 292.195312 262.976562 C 292.890625 262.023438 293.03125 260.78125 292.59375 259.6875 C 292.152344 258.597656 291.175781 257.804688 290.019531 257.601562 C 287.503906 257.167969 279.988281 253.167969 278.585938 252.167969 Z M 257.308594 287.789062 C 202.03125 326.285156 125.738281 312.636719 87.238281 257.355469 C 85.878906 255.402344 84.558594 253.386719 83.3125 251.359375 C 82.414062 249.898438 80.566406 249.324219 79 250.019531 L 75.855469 251.421875 L 76.925781 227.503906 L 95.417969 242.707031 L 92.269531 244.105469 C 91.363281 244.507812 90.671875 245.296875 90.382812 246.25 C 90.09375 247.203125 90.234375 248.238281 90.773438 249.082031 C 91.625 250.414062 92.515625 251.75 93.417969 253.046875 C 129.542969 304.917969 201.125 317.730469 252.996094 281.605469 C 262.070312 275.289062 270.121094 267.773438 276.964844 259.234375 C 279 260.414062 281.558594 261.679688 283.863281 262.664062 C 276.359375 272.292969 267.441406 280.734375 257.308594 287.789062 Z M 304.726562 115.433594 C 303.746094 114.765625 302.488281 114.652344 301.402344 115.136719 L 295.90625 117.585938 C 295.082031 116.3125 294.230469 115.042969 293.371094 113.804688 C 273.675781 85.527344 244.144531 66.605469 210.222656 60.535156 C 176.296875 54.464844 142.035156 61.964844 113.757812 81.660156 C 101.710938 90.046875 91.292969 100.28125 82.796875 112.082031 C 82.105469 113.035156 81.960938 114.277344 82.398438 115.371094 C 82.839844 116.460938 83.816406 117.25 84.972656 117.453125 C 87.46875 117.902344 94.988281 121.90625 96.394531 122.902344 C 97.011719 123.496094 97.835938 123.84375 98.703125 123.863281 C 99.800781 123.886719 100.84375 123.375 101.503906 122.503906 C 108.324219 113.488281 116.53125 105.617188 125.898438 99.09375 C 174.664062 65.128906 241.972656 77.175781 275.933594 125.941406 C 276.027344 126.078125 276.125 126.214844 276.222656 126.355469 L 271.710938 128.363281 C 270.628906 128.84375 269.867188 129.855469 269.710938 131.035156 C 269.546875 132.214844 270.011719 133.386719 270.925781 134.140625 L 298.996094 157.21875 C 300 158.042969 301.382812 158.230469 302.570312 157.703125 C 302.769531 157.613281 302.957031 157.507812 303.132812 157.386719 C 304 156.78125 304.554688 155.804688 304.597656 154.722656 L 306.21875 118.421875 C 306.269531 117.230469 305.707031 116.101562 304.726562 115.433594 Z M 298.058594 147.566406 L 279.5625 132.363281 L 282.707031 130.960938 C 283.621094 130.554688 284.308594 129.769531 284.597656 128.816406 C 284.886719 127.863281 284.742188 126.828125 284.203125 125.988281 C 283.351562 124.652344 282.464844 123.316406 281.558594 122.019531 C 245.4375 70.148438 173.851562 57.339844 121.984375 93.460938 C 112.910156 99.78125 104.855469 107.292969 98.011719 115.832031 C 95.980469 114.652344 93.425781 113.390625 91.113281 112.402344 C 98.625 102.773438 107.539062 94.339844 117.679688 87.28125 C 172.953125 48.785156 249.25 62.433594 287.75 117.714844 C 289.109375 119.667969 290.429688 121.6875 291.671875 123.710938 C 292.570312 125.171875 294.417969 125.742188 295.988281 125.046875 L 299.128906 123.644531 Z M 36.542969 195.394531 L 42.179688 192.253906 C 44.144531 193.84375 46.273438 195.207031 48.542969 196.328125 L 48.050781 202.761719 C 47.914062 204.515625 49.128906 206.089844 50.859375 206.398438 L 61.847656 208.363281 C 63.582031 208.675781 65.261719 207.621094 65.746094 205.929688 L 67.515625 199.722656 C 70.03125 199.457031 72.5 198.914062 74.894531 198.109375 L 79.09375 203.007812 C 80.242188 204.34375 82.210938 204.59375 83.652344 203.589844 L 92.816406 197.210938 C 94.257812 196.203125 94.707031 194.269531 93.851562 192.730469 L 90.710938 187.09375 C 92.300781 185.128906 93.664062 183 94.785156 180.730469 L 101.21875 181.226562 C 102.976562 181.359375 104.546875 180.144531 104.855469 178.414062 L 106.820312 167.425781 C 107.132812 165.691406 106.074219 164.007812 104.386719 163.527344 L 98.179688 161.761719 C 97.914062 159.242188 97.371094 156.777344 96.566406 154.378906 L 101.464844 150.179688 C 102.804688 149.035156 103.054688 147.0625 102.046875 145.621094 L 95.667969 136.457031 C 94.660156 135.015625 92.726562 134.566406 91.1875 135.421875 L 85.550781 138.5625 C 83.589844 136.972656 81.457031 135.609375 79.1875 134.488281 L 79.683594 128.054688 C 79.816406 126.300781 78.605469 124.730469 76.871094 124.417969 L 65.882812 122.453125 C 64.152344 122.140625 62.464844 123.199219 61.984375 124.890625 L 60.21875 131.09375 C 57.703125 131.359375 55.234375 131.902344 52.835938 132.707031 L 48.636719 127.808594 C 47.492188 126.472656 45.523438 126.222656 44.078125 127.226562 L 34.910156 133.609375 C 33.46875 134.617188 33.019531 136.550781 33.875 138.089844 L 37.015625 143.726562 C 35.425781 145.691406 34.0625 147.820312 32.941406 150.089844 L 26.507812 149.59375 C 24.753906 149.460938 23.179688 150.671875 22.871094 152.40625 L 20.90625 163.394531 C 20.59375 165.128906 21.652344 166.8125 23.339844 167.292969 L 29.546875 169.058594 C 29.8125 171.578125 30.355469 174.042969 31.160156 176.441406 L 26.261719 180.640625 C 24.925781 181.785156 24.675781 183.753906 25.679688 185.199219 L 32.058594 194.359375 C 33.066406 195.804688 35.003906 196.25 36.542969 195.394531 Z M 33.074219 183.828125 L 37.445312 180.082031 C 38.578125 179.109375 38.953125 177.519531 38.371094 176.144531 C 37.050781 173.019531 36.328125 169.710938 36.222656 166.3125 C 36.171875 164.820312 35.167969 163.53125 33.738281 163.121094 L 28.191406 161.546875 L 29.0625 156.660156 L 34.808594 157.105469 C 36.292969 157.222656 37.6875 156.363281 38.25 154.980469 C 39.527344 151.832031 41.355469 148.976562 43.675781 146.503906 C 44.699219 145.417969 44.898438 143.796875 44.171875 142.492188 L 41.367188 137.464844 L 45.441406 134.628906 L 49.183594 139.003906 C 50.152344 140.136719 51.742188 140.511719 53.121094 139.929688 C 56.242188 138.609375 59.554688 137.882812 62.953125 137.777344 C 64.441406 137.730469 65.734375 136.726562 66.136719 135.289062 L 67.710938 129.746094 L 72.601562 130.621094 L 72.15625 136.367188 C 72.042969 137.851562 72.902344 139.242188 74.28125 139.804688 C 77.433594 141.085938 80.285156 142.910156 82.757812 145.234375 C 83.847656 146.257812 85.46875 146.457031 86.769531 145.730469 L 91.800781 142.929688 L 94.636719 147.003906 L 90.265625 150.75 C 89.132812 151.71875 88.757812 153.308594 89.339844 154.6875 C 90.660156 157.808594 91.386719 161.117188 91.492188 164.519531 C 91.539062 166.007812 92.542969 167.300781 93.976562 167.707031 L 99.519531 169.28125 L 98.644531 174.171875 L 92.898438 173.726562 C 91.414062 173.613281 90.023438 174.46875 89.460938 175.855469 C 88.183594 179.007812 86.355469 181.859375 84.035156 184.332031 C 83.011719 185.421875 82.8125 187.042969 83.539062 188.34375 L 86.34375 193.371094 L 82.269531 196.207031 L 78.527344 191.835938 C 77.558594 190.699219 75.96875 190.324219 74.59375 190.910156 C 71.46875 192.226562 68.160156 192.953125 64.757812 193.058594 C 63.265625 193.101562 61.976562 194.113281 61.570312 195.542969 L 59.996094 201.085938 L 55.109375 200.210938 L 55.558594 194.464844 C 55.671875 192.980469 54.8125 191.585938 53.433594 191.023438 C 50.28125 189.746094 47.429688 187.917969 44.957031 185.597656 C 43.867188 184.574219 42.246094 184.375 40.941406 185.101562 L 35.914062 187.90625 Z M 75.546875 182.183594 C 84.796875 175.742188 87.082031 162.972656 80.640625 153.722656 C 74.195312 144.472656 61.429688 142.1875 52.179688 148.628906 C 42.925781 155.074219 40.640625 167.839844 47.085938 177.09375 C 53.527344 186.34375 66.296875 188.628906 75.546875 182.183594 Z M 56.097656 154.257812 C 62.246094 149.976562 70.738281 151.496094 75.019531 157.644531 C 79.300781 163.792969 77.78125 172.285156 71.632812 176.566406 C 65.484375 180.847656 56.992188 179.328125 52.710938 173.179688 C 48.429688 167.03125 49.945312 158.542969 56.097656 154.257812 Z M 338.4375 179.679688 L 332.800781 182.816406 C 330.839844 181.226562 328.707031 179.863281 326.4375 178.746094 L 326.933594 172.3125 C 327.066406 170.554688 325.855469 168.984375 324.121094 168.671875 L 313.132812 166.707031 C 311.398438 166.398438 309.714844 167.453125 309.234375 169.144531 L 307.46875 175.351562 C 304.949219 175.613281 302.484375 176.15625 300.085938 176.960938 L 295.886719 172.0625 C 294.742188 170.726562 292.773438 170.476562 291.328125 171.480469 L 282.167969 177.863281 C 280.722656 178.867188 280.273438 180.800781 281.128906 182.339844 L 284.269531 187.976562 C 282.679688 189.941406 281.316406 192.074219 280.199219 194.34375 L 273.761719 193.847656 C 272.011719 193.710938 270.4375 194.925781 270.125 196.660156 L 268.160156 207.644531 C 267.847656 209.378906 268.902344 211.058594 270.597656 211.542969 L 276.800781 213.3125 C 277.066406 215.828125 277.609375 218.296875 278.414062 220.691406 L 273.515625 224.890625 C 272.179688 226.039062 271.929688 228.007812 272.933594 229.449219 L 279.316406 238.613281 C 280.320312 240.054688 282.253906 240.503906 283.792969 239.648438 L 289.429688 236.507812 C 291.394531 238.101562 293.523438 239.460938 295.792969 240.582031 L 295.300781 247.015625 C 295.164062 248.773438 296.378906 250.34375 298.109375 250.652344 L 309.097656 252.621094 C 310.832031 252.929688 312.511719 251.875 312.996094 250.183594 L 314.761719 243.976562 C 317.28125 243.714844 319.75 243.171875 322.144531 242.363281 L 326.34375 247.261719 C 327.492188 248.601562 329.460938 248.851562 330.902344 247.84375 L 340.066406 241.464844 C 341.507812 240.460938 341.957031 238.527344 341.101562 236.984375 L 337.960938 231.347656 C 339.550781 229.386719 340.914062 227.253906 342.035156 224.984375 L 348.46875 225.480469 C 350.226562 225.613281 351.796875 224.402344 352.105469 222.667969 L 354.070312 211.679688 C 354.382812 209.949219 353.324219 208.261719 351.636719 207.78125 L 345.429688 206.015625 C 345.164062 203.5 344.621094 201.03125 343.816406 198.632812 L 348.714844 194.4375 C 350.054688 193.289062 350.304688 191.320312 349.296875 189.875 L 342.917969 180.714844 C 341.917969 179.265625 339.976562 178.820312 338.4375 179.679688 Z M 341.90625 191.246094 L 337.535156 194.992188 C 336.402344 195.960938 336.027344 197.550781 336.609375 198.929688 C 337.929688 202.050781 338.652344 205.359375 338.757812 208.761719 C 338.808594 210.25 339.8125 211.542969 341.246094 211.949219 L 346.789062 213.523438 L 345.914062 218.414062 L 340.167969 217.96875 C 338.683594 217.855469 337.289062 218.710938 336.726562 220.09375 C 335.445312 223.246094 333.621094 226.097656 331.300781 228.570312 C 330.277344 229.65625 330.078125 231.28125 330.804688 232.582031 L 333.609375 237.609375 L 329.535156 240.445312 L 325.792969 236.070312 C 324.824219 234.9375 323.234375 234.5625 321.859375 235.144531 C 318.734375 236.464844 315.425781 237.191406 312.023438 237.296875 C 310.535156 237.34375 309.242188 238.347656 308.835938 239.78125 L 307.261719 245.324219 L 302.371094 244.449219 L 302.816406 238.703125 C 302.929688 237.21875 302.074219 235.828125 300.6875 235.265625 C 297.535156 233.988281 294.683594 232.160156 292.210938 229.839844 C 291.121094 228.816406 289.5 228.617188 288.199219 229.34375 L 283.167969 232.144531 L 280.332031 228.070312 L 284.703125 224.324219 C 285.835938 223.355469 286.210938 221.765625 285.628906 220.386719 C 284.308594 217.261719 283.582031 213.953125 283.476562 210.554688 C 283.429688 209.066406 282.425781 207.773438 280.992188 207.367188 L 275.449219 205.792969 L 276.324219 200.902344 L 282.070312 201.347656 C 283.554688 201.460938 284.949219 200.601562 285.507812 199.21875 C 286.785156 196.066406 288.613281 193.214844 290.933594 190.742188 C 291.957031 189.652344 292.15625 188.03125 291.429688 186.726562 L 288.628906 181.699219 L 292.703125 178.863281 L 296.445312 183.234375 C 297.414062 184.371094 299.003906 184.746094 300.382812 184.160156 C 303.503906 182.84375 306.816406 182.117188 310.214844 182.011719 C 311.707031 181.96875 312.996094 180.957031 313.402344 179.527344 L 314.976562 173.984375 L 319.867188 174.859375 L 319.421875 180.601562 C 319.308594 182.089844 320.167969 183.480469 321.546875 184.042969 C 324.699219 185.320312 327.550781 187.148438 330.023438 189.46875 C 331.113281 190.492188 332.734375 190.695312 334.035156 189.96875 L 339.0625 187.164062 Z M 120.84375 185.074219 L 106.003906 189.835938 C 104.332031 190.371094 103.332031 192.09375 103.699219 193.8125 L 108.445312 216.035156 C 108.8125 217.753906 110.421875 218.914062 112.175781 218.726562 L 127.667969 217.003906 C 130.53125 222.832031 134.207031 228.171875 138.621094 232.925781 L 131.496094 246.777344 C 130.691406 248.339844 131.199219 250.257812 132.679688 251.222656 L 151.75 263.578125 C 153.222656 264.535156 155.1875 264.21875 156.292969 262.84375 L 166.023438 250.679688 C 172.164062 252.769531 178.535156 253.941406 185.03125 254.179688 L 189.792969 269.019531 C 190.332031 270.699219 192.050781 271.691406 193.773438 271.324219 L 215.996094 266.578125 C 217.71875 266.214844 218.875 264.601562 218.683594 262.847656 L 216.964844 247.355469 C 222.796875 244.492188 228.132812 240.816406 232.886719 236.402344 L 246.734375 243.527344 C 247.898438 244.125 249.25 243.996094 250.261719 243.292969 C 250.617188 243.042969 250.925781 242.730469 251.171875 242.34375 L 263.53125 223.273438 C 264.484375 221.792969 264.167969 219.832031 262.796875 218.730469 L 250.628906 208.996094 C 252.726562 202.859375 253.894531 196.484375 254.128906 189.988281 L 268.972656 185.226562 C 270.644531 184.691406 271.644531 182.96875 271.273438 181.25 L 266.53125 159.027344 C 266.160156 157.308594 264.550781 156.148438 262.796875 156.335938 L 247.3125 158.054688 C 244.449219 152.226562 240.773438 146.886719 236.355469 142.132812 L 243.484375 128.28125 C 244.289062 126.71875 243.777344 124.800781 242.300781 123.835938 L 223.230469 111.480469 C 221.753906 110.523438 219.792969 110.839844 218.6875 112.214844 L 208.953125 124.378906 C 202.8125 122.289062 196.445312 121.117188 189.945312 120.878906 L 185.183594 106.039062 C 184.648438 104.359375 182.925781 103.367188 181.207031 103.734375 L 158.984375 108.480469 C 157.265625 108.851562 156.105469 110.460938 156.296875 112.210938 L 158.015625 127.703125 C 152.179688 130.570312 146.84375 134.246094 142.09375 138.660156 L 128.242188 131.53125 C 126.679688 130.726562 124.761719 131.238281 123.796875 132.714844 L 111.441406 151.785156 C 110.484375 153.257812 110.800781 155.222656 112.175781 156.328125 L 124.339844 166.0625 C 122.25 172.203125 121.074219 178.578125 120.84375 185.074219 Z M 131.597656 166.148438 C 132.132812 164.753906 131.707031 163.179688 130.539062 162.246094 L 118.878906 152.917969 L 127.867188 139.054688 L 141.140625 145.882812 C 142.46875 146.570312 144.085938 146.3125 145.136719 145.253906 C 150.316406 140.050781 156.355469 135.894531 163.082031 132.902344 C 164.445312 132.292969 165.257812 130.878906 165.09375 129.390625 L 163.445312 114.546875 L 179.609375 111.09375 L 184.171875 125.320312 C 184.628906 126.742188 185.949219 127.703125 187.4375 127.699219 C 194.800781 127.6875 202.007812 129.015625 208.863281 131.644531 C 210.257812 132.179688 211.832031 131.75 212.769531 130.589844 L 222.097656 118.929688 L 235.964844 127.917969 L 229.136719 141.199219 C 228.453125 142.523438 228.707031 144.140625 229.765625 145.191406 C 234.972656 150.378906 239.125 156.414062 242.121094 163.140625 C 242.730469 164.503906 244.140625 165.3125 245.628906 165.148438 L 260.472656 163.503906 L 263.929688 179.664062 L 249.707031 184.226562 C 248.28125 184.679688 247.324219 186 247.324219 187.492188 C 247.339844 194.859375 246.011719 202.066406 243.378906 208.917969 C 242.847656 210.3125 243.269531 211.886719 244.4375 212.824219 L 256.09375 222.152344 L 247.109375 236.015625 L 233.832031 229.1875 C 232.691406 228.59375 231.332031 228.707031 230.308594 229.421875 C 230.144531 229.535156 229.984375 229.667969 229.839844 229.816406 C 224.652344 235.023438 218.617188 239.175781 211.890625 242.167969 C 210.527344 242.777344 209.714844 244.191406 209.878906 245.679688 L 211.527344 260.523438 L 195.363281 263.976562 L 190.804688 249.753906 C 190.351562 248.332031 189.027344 247.375 187.539062 247.375 C 180.175781 247.386719 172.96875 246.058594 166.113281 243.429688 C 164.71875 242.894531 163.144531 243.324219 162.207031 244.484375 L 152.878906 256.144531 L 139.011719 247.15625 L 145.84375 233.882812 C 146.527344 232.554688 146.273438 230.9375 145.214844 229.886719 C 140.007812 224.703125 135.851562 218.664062 132.859375 211.941406 C 132.253906 210.582031 130.835938 209.765625 129.351562 209.929688 L 114.507812 211.578125 L 111.050781 195.414062 L 125.273438 190.855469 C 126.699219 190.398438 127.65625 189.078125 127.65625 187.589844 C 127.640625 180.214844 128.96875 173.003906 131.597656 166.148438 Z M 160.628906 228.988281 C 177.964844 240.21875 199.78125 239.167969 215.769531 228.035156 C 220.859375 224.488281 225.363281 219.921875 228.941406 214.398438 C 243.75 191.542969 237.210938 160.898438 214.355469 146.085938 C 191.5 131.273438 160.855469 137.816406 146.039062 160.671875 C 131.230469 183.527344 137.769531 214.171875 160.628906 228.988281 Z M 211.84375 222.414062 C 209.863281 223.796875 207.769531 224.988281 205.605469 226.007812 L 193.136719 208.101562 C 192.378906 207.015625 191.066406 206.460938 189.757812 206.679688 C 181.738281 208.015625 173.554688 204.570312 168.90625 197.894531 C 164.582031 191.6875 163.945312 183.835938 166.933594 177.167969 L 177.300781 192.050781 C 178.382812 193.601562 180.519531 193.984375 182.070312 192.902344 L 194.402344 184.316406 C 195.953125 183.238281 196.335938 181.097656 195.253906 179.546875 L 184.890625 164.664062 C 192.179688 164.171875 199.320312 167.488281 203.648438 173.703125 C 208.296875 180.375 208.6875 189.242188 204.648438 196.285156 C 203.988281 197.433594 204.054688 198.855469 204.808594 199.945312 L 217.296875 217.875 C 215.59375 219.554688 213.769531 221.074219 211.84375 222.414062 Z M 151.789062 164.402344 C 164.546875 144.714844 190.9375 139.078125 210.621094 151.835938 C 230.308594 164.59375 235.941406 190.984375 223.183594 210.667969 C 222.777344 211.300781 222.351562 211.917969 221.910156 212.515625 L 211.617188 197.734375 C 215.847656 188.761719 215.003906 178.015625 209.273438 169.785156 C 202.28125 159.746094 189.734375 155.414062 178.050781 159.007812 C 177.007812 159.332031 176.171875 160.132812 175.816406 161.167969 C 175.457031 162.203125 175.621094 163.34375 176.246094 164.246094 L 187.675781 180.65625 L 180.96875 185.328125 L 169.539062 168.914062 C 168.914062 168.015625 167.894531 167.472656 166.804688 167.445312 C 165.707031 167.421875 164.671875 167.921875 164.003906 168.789062 C 156.582031 178.5 156.296875 191.769531 163.289062 201.808594 C 169.015625 210.035156 178.804688 214.554688 188.699219 213.710938 L 198.976562 228.46875 C 187.617188 231.648438 175.011719 230.132812 164.355469 223.230469 C 144.671875 210.480469 139.035156 184.082031 151.789062 164.402344 Z M 299.4375 192.886719 C 290.183594 199.328125 287.898438 212.097656 294.34375 221.347656 C 300.785156 230.597656 313.554688 232.882812 322.804688 226.441406 C 332.054688 220 334.339844 207.230469 327.898438 197.980469 C 321.453125 188.722656 308.6875 186.445312 299.4375 192.886719 Z M 318.882812 220.8125 C 312.734375 225.09375 304.246094 223.574219 299.960938 217.425781 C 295.679688 211.277344 297.199219 202.789062 303.347656 198.503906 C 309.496094 194.222656 317.984375 195.738281 322.269531 201.890625 C 326.554688 208.046875 325.039062 216.527344 318.882812 220.8125 Z M 318.882812 220.8125 " fill-opacity="1" fill-rule="nonzero"/></g></g></g></svg>