<svg xmlns="http://www.w3.org/2000/svg" xmlns:xlink="http://www.w3.org/1999/xlink" width="500" zoomAndPan="magnify" viewBox="0 0 375 374.999991" height="500" preserveAspectRatio="xMidYMid meet" version="1.0"><defs><clipPath id="61780cd21f"><path d="M 17 55 L 358 55 L 358 320 L 17 320 Z M 17 55 " clip-rule="nonzero"/></clipPath><clipPath id="3953a5dbb3"><path d="M -4.570312 157.925781 L 226.226562 -2.804688 L 379.242188 216.914062 L 148.445312 377.644531 Z M -4.570312 157.925781 " clip-rule="nonzero"/></clipPath><clipPath id="aefb5a9368"><path d="M -4.570312 157.925781 L 226.226562 -2.804688 L 379.242188 216.914062 L 148.445312 377.644531 Z M -4.570312 157.925781 " clip-rule="nonzero"/></clipPath></defs><g clip-path="url(#61780cd21f)"><g clip-path="url(#3953a5dbb3)"><g clip-path="url(#aefb5a9368)"><path fill="#dfa900" d="M 280.378906 253.441406 C 279.753906 252.835938 278.917969 252.480469 278.023438 252.464844 C 276.902344 252.441406 275.839844 252.957031 275.171875 253.847656 C 268.214844 263.039062 259.847656 271.066406 250.300781 277.71875 C 200.570312 312.347656 131.941406 300.066406 97.308594 250.339844 C 97.210938 250.199219 97.113281 250.0625 97.015625 249.917969 L 101.613281 247.867188 C 102.714844 247.375 103.488281 246.34375 103.65625 245.144531 C 103.820312 243.945312 103.347656 242.746094 102.414062 241.976562 L 73.792969 218.445312 C 72.765625 217.605469 71.355469 217.414062 70.148438 217.953125 C 68.9375 218.488281 68.140625 219.664062 68.082031 220.988281 L 66.433594 258.003906 C 66.378906 259.210938 66.953125 260.363281 67.953125 261.042969 C 68.953125 261.726562 70.238281 261.839844 71.34375 261.347656 L 76.949219 258.847656 C 77.789062 260.148438 78.65625 261.441406 79.535156 262.703125 C 99.613281 291.539062 129.730469 310.832031 164.320312 317.023438 C 198.914062 323.214844 233.84375 315.5625 262.683594 295.476562 C 274.960938 286.929688 285.582031 276.492188 294.257812 264.460938 C 294.964844 263.488281 295.109375 262.222656 294.660156 261.109375 C 294.210938 259.996094 293.21875 259.191406 292.039062 258.984375 C 289.472656 258.539062 281.808594 254.460938 280.378906 253.441406 Z M 258.683594 289.761719 C 202.316406 329.019531 124.519531 315.097656 85.261719 258.730469 C 83.875 256.742188 82.527344 254.683594 81.257812 252.617188 C 80.34375 251.125 78.460938 250.542969 76.859375 251.25 L 73.65625 252.683594 L 74.746094 228.292969 L 93.601562 243.792969 L 90.394531 245.21875 C 89.464844 245.628906 88.761719 246.433594 88.464844 247.40625 C 88.171875 248.378906 88.316406 249.433594 88.867188 250.292969 C 89.734375 251.652344 90.640625 253.015625 91.5625 254.339844 C 128.398438 307.230469 201.394531 320.292969 254.285156 283.457031 C 263.535156 277.015625 271.746094 269.351562 278.726562 260.644531 C 280.800781 261.847656 283.410156 263.140625 285.761719 264.144531 C 278.109375 273.964844 269.015625 282.566406 258.683594 289.761719 Z M 307.035156 114.011719 C 306.035156 113.328125 304.75 113.21875 303.644531 113.710938 L 298.039062 116.207031 C 297.199219 114.90625 296.332031 113.613281 295.457031 112.351562 C 275.375 83.515625 245.261719 64.222656 210.667969 58.03125 C 176.078125 51.84375 141.136719 59.492188 112.300781 79.570312 C 100.019531 88.125 89.398438 98.5625 80.730469 110.59375 C 80.023438 111.566406 79.878906 112.832031 80.328125 113.945312 C 80.777344 115.058594 81.769531 115.867188 82.949219 116.074219 C 85.496094 116.527344 93.164062 120.609375 94.597656 121.628906 C 95.226562 122.234375 96.066406 122.585938 96.953125 122.605469 C 98.070312 122.632812 99.132812 122.109375 99.808594 121.222656 C 106.761719 112.03125 115.128906 104.003906 124.683594 97.347656 C 174.410156 62.71875 243.042969 75 277.675781 124.726562 C 277.769531 124.867188 277.867188 125.003906 277.96875 125.148438 L 273.367188 127.195312 C 272.261719 127.6875 271.488281 128.714844 271.328125 129.921875 C 271.164062 131.121094 271.636719 132.320312 272.570312 133.089844 L 301.191406 156.621094 C 302.214844 157.460938 303.625 157.652344 304.835938 157.113281 C 305.039062 157.019531 305.230469 156.917969 305.410156 156.789062 C 306.296875 156.175781 306.859375 155.179688 306.90625 154.074219 L 308.554688 117.0625 C 308.609375 115.84375 308.035156 114.691406 307.035156 114.011719 Z M 300.234375 146.777344 L 281.375 131.277344 L 284.582031 129.847656 C 285.511719 129.429688 286.210938 128.632812 286.507812 127.660156 C 286.804688 126.6875 286.65625 125.632812 286.109375 124.773438 C 285.238281 123.414062 284.332031 122.050781 283.410156 120.726562 C 246.574219 67.835938 173.582031 54.773438 120.691406 91.605469 C 111.4375 98.050781 103.226562 105.710938 96.246094 114.417969 C 94.175781 113.214844 91.570312 111.929688 89.214844 110.921875 C 96.875 101.101562 105.964844 92.503906 116.300781 85.304688 C 172.667969 46.050781 250.464844 59.96875 289.722656 116.339844 C 291.109375 118.332031 292.457031 120.386719 293.722656 122.449219 C 294.640625 123.941406 296.523438 124.523438 298.121094 123.816406 L 301.328125 122.386719 Z M 33.566406 195.546875 L 39.316406 192.347656 C 41.316406 193.96875 43.492188 195.355469 45.804688 196.5 L 45.300781 203.058594 C 45.164062 204.851562 46.398438 206.453125 48.167969 206.769531 L 59.371094 208.773438 C 61.136719 209.089844 62.851562 208.015625 63.347656 206.289062 L 65.148438 199.960938 C 67.714844 199.691406 70.230469 199.136719 72.675781 198.316406 L 76.957031 203.3125 C 78.125 204.675781 80.132812 204.929688 81.605469 203.90625 L 90.949219 197.398438 C 92.421875 196.375 92.878906 194.402344 92.003906 192.832031 L 88.804688 187.085938 C 90.425781 185.082031 91.8125 182.910156 92.957031 180.59375 L 99.515625 181.101562 C 101.308594 181.234375 102.910156 180 103.226562 178.234375 L 105.230469 167.027344 C 105.546875 165.261719 104.46875 163.542969 102.746094 163.054688 L 96.417969 161.25 C 96.148438 158.6875 95.59375 156.167969 94.773438 153.726562 L 99.769531 149.445312 C 101.132812 148.273438 101.386719 146.265625 100.363281 144.792969 L 93.855469 135.453125 C 92.832031 133.980469 90.859375 133.523438 89.289062 134.394531 L 83.542969 137.597656 C 81.539062 135.976562 79.367188 134.585938 77.050781 133.445312 L 77.554688 126.882812 C 77.691406 125.09375 76.457031 123.492188 74.6875 123.175781 L 63.484375 121.167969 C 61.71875 120.851562 60 121.929688 59.511719 123.652344 L 57.707031 129.984375 C 55.140625 130.25 52.625 130.804688 50.179688 131.625 L 45.902344 126.632812 C 44.730469 125.265625 42.722656 125.011719 41.25 126.039062 L 31.902344 132.546875 C 30.429688 133.570312 29.972656 135.542969 30.847656 137.113281 L 34.046875 142.863281 C 32.425781 144.863281 31.039062 147.039062 29.894531 149.351562 L 23.335938 148.847656 C 21.542969 148.710938 19.941406 149.945312 19.625 151.714844 L 17.621094 162.917969 C 17.304688 164.683594 18.382812 166.40625 20.105469 166.894531 L 26.433594 168.695312 C 26.703125 171.261719 27.257812 173.777344 28.078125 176.222656 L 23.082031 180.503906 C 21.71875 181.671875 21.464844 183.679688 22.488281 185.152344 L 28.996094 194.496094 C 30.019531 195.96875 31.996094 196.421875 33.566406 195.546875 Z M 30.03125 183.753906 L 34.488281 179.933594 C 35.644531 178.945312 36.027344 177.320312 35.433594 175.917969 C 34.085938 172.734375 33.347656 169.359375 33.238281 165.890625 C 33.191406 164.375 32.167969 163.054688 30.707031 162.640625 L 25.050781 161.035156 L 25.941406 156.050781 L 31.796875 156.507812 C 33.3125 156.621094 34.734375 155.746094 35.308594 154.339844 C 36.609375 151.125 38.472656 148.21875 40.839844 145.695312 C 41.882812 144.585938 42.089844 142.933594 41.347656 141.605469 L 38.488281 136.476562 L 42.640625 133.585938 L 46.457031 138.046875 C 47.445312 139.203125 49.066406 139.585938 50.46875 138.992188 C 53.65625 137.644531 57.03125 136.90625 60.496094 136.796875 C 62.015625 136.746094 63.332031 135.722656 63.746094 134.257812 L 65.351562 128.605469 L 70.335938 129.5 L 69.882812 135.355469 C 69.765625 136.871094 70.640625 138.292969 72.046875 138.867188 C 75.261719 140.167969 78.171875 142.03125 80.691406 144.398438 C 81.800781 145.441406 83.457031 145.644531 84.785156 144.90625 L 89.914062 142.050781 L 92.804688 146.203125 L 88.347656 150.023438 C 87.191406 151.011719 86.8125 152.632812 87.40625 154.039062 C 88.75 157.222656 89.488281 160.597656 89.597656 164.0625 C 89.648438 165.582031 90.671875 166.898438 92.132812 167.316406 L 97.785156 168.921875 L 96.890625 173.90625 L 91.035156 173.453125 C 89.519531 173.335938 88.097656 174.210938 87.527344 175.625 C 86.226562 178.839844 84.363281 181.746094 81.996094 184.269531 C 80.953125 185.378906 80.746094 187.03125 81.488281 188.359375 L 84.347656 193.488281 L 80.195312 196.378906 L 76.378906 191.917969 C 75.390625 190.761719 73.769531 190.378906 72.367188 190.972656 C 69.179688 192.320312 65.804688 193.058594 62.339844 193.167969 C 60.816406 193.210938 59.503906 194.242188 59.085938 195.699219 L 57.480469 201.355469 L 52.5 200.457031 L 52.957031 194.597656 C 53.070312 193.085938 52.195312 191.664062 50.789062 191.089844 C 47.574219 189.789062 44.667969 187.925781 42.144531 185.558594 C 41.035156 184.515625 39.382812 184.308594 38.050781 185.050781 L 32.925781 187.910156 Z M 73.339844 182.078125 C 82.773438 175.507812 85.101562 162.488281 78.53125 153.054688 C 71.960938 143.625 58.941406 141.292969 49.507812 147.863281 C 40.078125 154.433594 37.746094 167.453125 44.316406 176.886719 C 50.886719 186.320312 63.90625 188.648438 73.339844 182.078125 Z M 53.507812 153.601562 C 59.777344 149.234375 68.433594 150.785156 72.800781 157.054688 C 77.167969 163.324219 75.617188 171.984375 69.347656 176.347656 C 63.078125 180.714844 54.421875 179.167969 50.054688 172.894531 C 45.6875 166.625 47.230469 157.972656 53.507812 153.601562 Z M 341.410156 179.523438 L 335.664062 182.722656 C 333.660156 181.101562 331.488281 179.714844 329.171875 178.570312 L 329.679688 172.011719 C 329.8125 170.21875 328.578125 168.617188 326.8125 168.300781 L 315.605469 166.296875 C 313.839844 165.980469 312.121094 167.058594 311.632812 168.78125 L 309.828125 175.109375 C 307.261719 175.378906 304.746094 175.933594 302.304688 176.753906 L 298.023438 171.757812 C 296.851562 170.394531 294.84375 170.140625 293.371094 171.164062 L 284.03125 177.671875 C 282.558594 178.695312 282.101562 180.667969 282.972656 182.238281 L 286.175781 187.984375 C 284.554688 189.988281 283.164062 192.160156 282.023438 194.476562 L 275.460938 193.96875 C 273.675781 193.832031 272.070312 195.070312 271.753906 196.835938 L 269.746094 208.042969 C 269.429688 209.808594 270.503906 211.523438 272.230469 212.015625 L 278.5625 213.816406 C 278.828125 216.382812 279.382812 218.902344 280.203125 221.34375 L 275.210938 225.625 C 273.84375 226.796875 273.589844 228.804688 274.617188 230.277344 L 281.121094 239.617188 C 282.148438 241.089844 284.117188 241.546875 285.6875 240.675781 L 291.4375 237.472656 C 293.4375 239.09375 295.613281 240.484375 297.925781 241.625 L 297.421875 248.1875 C 297.285156 249.976562 298.519531 251.578125 300.289062 251.894531 L 311.492188 253.902344 C 313.257812 254.21875 314.972656 253.144531 315.46875 251.417969 L 317.269531 245.085938 C 319.835938 244.820312 322.351562 244.265625 324.796875 243.445312 L 329.078125 248.4375 C 330.246094 249.804688 332.253906 250.058594 333.726562 249.03125 L 343.070312 242.527344 C 344.542969 241.5 345 239.53125 344.125 237.960938 L 340.925781 232.210938 C 342.546875 230.210938 343.933594 228.035156 345.078125 225.722656 L 351.636719 226.226562 C 353.429688 226.363281 355.03125 225.128906 355.347656 223.359375 L 357.351562 212.15625 C 357.667969 210.390625 356.589844 208.667969 354.867188 208.179688 L 348.539062 206.378906 C 348.269531 203.8125 347.714844 201.296875 346.894531 198.851562 L 351.890625 194.570312 C 353.253906 193.402344 353.507812 191.394531 352.484375 189.921875 L 345.976562 180.578125 C 344.957031 179.101562 342.980469 178.648438 341.410156 179.523438 Z M 344.945312 191.316406 L 340.488281 195.136719 C 339.335938 196.125 338.953125 197.75 339.546875 199.152344 C 340.890625 202.335938 341.628906 205.710938 341.738281 209.179688 C 341.789062 210.695312 342.8125 212.015625 344.273438 212.429688 L 349.925781 214.035156 L 349.035156 219.019531 L 343.175781 218.566406 C 341.660156 218.449219 340.238281 219.324219 339.664062 220.734375 C 338.359375 223.949219 336.5 226.855469 334.132812 229.378906 C 333.089844 230.488281 332.886719 232.140625 333.625 233.46875 L 336.484375 238.59375 L 332.332031 241.488281 L 328.515625 237.027344 C 327.527344 235.871094 325.90625 235.488281 324.503906 236.082031 C 321.316406 237.429688 317.941406 238.167969 314.476562 238.277344 C 312.957031 238.324219 311.640625 239.347656 311.226562 240.808594 L 309.617188 246.460938 L 304.632812 245.570312 L 305.085938 239.710938 C 305.203125 238.199219 304.328125 236.777344 302.917969 236.207031 C 299.703125 234.902344 296.792969 233.039062 294.273438 230.671875 C 293.164062 229.628906 291.507812 229.425781 290.179688 230.167969 L 285.050781 233.023438 L 282.160156 228.871094 L 286.617188 225.046875 C 287.773438 224.058594 288.152344 222.4375 287.558594 221.035156 C 286.214844 217.847656 285.476562 214.472656 285.367188 211.007812 C 285.316406 209.488281 284.292969 208.171875 282.832031 207.757812 L 277.179688 206.148438 L 278.074219 201.164062 L 283.929688 201.617188 C 285.445312 201.734375 286.867188 200.859375 287.4375 199.449219 C 288.738281 196.234375 290.601562 193.324219 292.96875 190.804688 C 294.011719 189.695312 294.21875 188.039062 293.476562 186.710938 L 290.621094 181.582031 L 294.773438 178.691406 L 298.589844 183.148438 C 299.578125 184.304688 301.199219 184.6875 302.605469 184.09375 C 305.789062 182.75 309.164062 182.011719 312.628906 181.902344 C 314.152344 181.855469 315.464844 180.828125 315.882812 179.367188 L 317.488281 173.714844 L 322.472656 174.605469 L 322.019531 180.464844 C 321.902344 181.980469 322.777344 183.398438 324.1875 183.972656 C 327.398438 185.277344 330.308594 187.140625 332.828125 189.507812 C 333.941406 190.550781 335.59375 190.753906 336.921875 190.015625 L 342.046875 187.152344 Z M 119.53125 185.023438 L 104.394531 189.878906 C 102.691406 190.425781 101.671875 192.183594 102.046875 193.933594 L 106.886719 216.59375 C 107.261719 218.347656 108.902344 219.535156 110.691406 219.339844 L 126.488281 217.585938 C 129.40625 223.527344 133.152344 228.972656 137.65625 233.820312 L 130.390625 247.941406 C 129.570312 249.535156 130.089844 251.496094 131.597656 252.476562 L 151.042969 265.074219 C 152.546875 266.050781 154.550781 265.726562 155.675781 264.328125 L 165.601562 251.921875 C 171.863281 254.054688 178.359375 255.25 184.984375 255.492188 L 189.835938 270.625 C 190.382812 272.335938 192.140625 273.351562 193.894531 272.972656 L 216.554688 268.136719 C 218.3125 267.761719 219.492188 266.117188 219.296875 264.328125 L 217.542969 248.535156 C 223.492188 245.613281 228.929688 241.867188 233.777344 237.363281 L 247.902344 244.628906 C 249.085938 245.238281 250.464844 245.109375 251.496094 244.390625 C 251.859375 244.136719 252.175781 243.816406 252.425781 243.421875 L 265.027344 223.976562 C 266 222.46875 265.679688 220.46875 264.277344 219.34375 L 251.871094 209.417969 C 254.007812 203.164062 255.203125 196.660156 255.441406 190.035156 L 270.574219 185.179688 C 272.28125 184.632812 273.300781 182.878906 272.925781 181.125 L 268.085938 158.464844 C 267.710938 156.710938 266.066406 155.527344 264.28125 155.722656 L 248.488281 157.472656 C 245.570312 151.527344 241.820312 146.085938 237.316406 141.238281 L 244.585938 127.113281 C 245.40625 125.519531 244.886719 123.5625 243.378906 122.582031 L 223.933594 109.980469 C 222.429688 109.007812 220.425781 109.328125 219.300781 110.730469 L 209.375 123.136719 C 203.113281 121.003906 196.617188 119.804688 189.992188 119.566406 L 185.136719 104.433594 C 184.589844 102.71875 182.835938 101.707031 181.082031 102.082031 L 158.421875 106.921875 C 156.667969 107.296875 155.484375 108.941406 155.679688 110.726562 L 157.433594 126.523438 C 151.484375 129.445312 146.039062 133.195312 141.199219 137.695312 L 127.074219 130.429688 C 125.480469 129.605469 123.523438 130.125 122.542969 131.632812 L 109.941406 151.082031 C 108.964844 152.582031 109.289062 154.585938 110.691406 155.710938 L 123.09375 165.636719 C 120.960938 171.898438 119.765625 178.402344 119.53125 185.023438 Z M 130.496094 165.726562 C 131.039062 164.304688 130.609375 162.699219 129.414062 161.746094 L 117.523438 152.238281 L 126.6875 138.097656 L 140.226562 145.0625 C 141.578125 145.761719 143.226562 145.5 144.296875 144.421875 C 149.582031 139.117188 155.742188 134.875 162.601562 131.824219 C 163.992188 131.203125 164.816406 129.761719 164.648438 128.246094 L 162.972656 113.109375 L 179.453125 109.585938 L 184.105469 124.09375 C 184.570312 125.542969 185.917969 126.523438 187.433594 126.519531 C 194.941406 126.507812 202.292969 127.863281 209.285156 130.542969 C 210.703125 131.085938 212.308594 130.652344 213.265625 129.464844 L 222.777344 117.578125 L 236.917969 126.742188 L 229.953125 140.285156 C 229.257812 141.636719 229.519531 143.285156 230.597656 144.355469 C 235.90625 149.644531 240.140625 155.796875 243.195312 162.65625 C 243.816406 164.046875 245.257812 164.875 246.773438 164.707031 L 261.910156 163.027344 L 265.433594 179.507812 L 250.929688 184.160156 C 249.480469 184.625 248.5 185.972656 248.5 187.488281 C 248.515625 195 247.164062 202.351562 244.476562 209.339844 C 243.933594 210.757812 244.367188 212.367188 245.554688 213.320312 L 257.445312 222.832031 L 248.28125 236.972656 L 234.742188 230.003906 C 233.578125 229.402344 232.195312 229.515625 231.148438 230.246094 C 230.980469 230.363281 230.820312 230.496094 230.671875 230.648438 C 225.382812 235.957031 219.230469 240.191406 212.371094 243.246094 C 210.980469 243.867188 210.152344 245.308594 210.320312 246.824219 L 212 261.960938 L 195.519531 265.484375 L 190.867188 250.980469 C 190.40625 249.53125 189.054688 248.550781 187.539062 248.550781 C 180.03125 248.5625 172.679688 247.210938 165.6875 244.53125 C 164.269531 243.988281 162.664062 244.421875 161.707031 245.605469 L 152.195312 257.496094 L 138.054688 248.332031 L 145.023438 234.792969 C 145.71875 233.441406 145.457031 231.792969 144.378906 230.722656 C 139.070312 225.433594 134.832031 219.273438 131.78125 212.421875 C 131.164062 211.035156 129.71875 210.203125 128.203125 210.371094 L 113.066406 212.050781 L 109.542969 195.570312 L 124.046875 190.917969 C 125.496094 190.457031 126.476562 189.109375 126.476562 187.589844 C 126.460938 180.070312 127.8125 172.71875 130.496094 165.726562 Z M 160.097656 229.804688 C 177.773438 241.257812 200.019531 240.1875 216.324219 228.832031 C 221.515625 225.214844 226.105469 220.558594 229.757812 214.929688 C 244.859375 191.625 238.191406 160.375 214.882812 145.265625 C 191.578125 130.164062 160.328125 136.835938 145.222656 160.140625 C 130.121094 183.445312 136.789062 214.695312 160.097656 229.804688 Z M 212.324219 223.101562 C 210.300781 224.511719 208.167969 225.726562 205.960938 226.765625 L 193.246094 208.507812 C 192.472656 207.398438 191.132812 206.832031 189.800781 207.058594 C 181.621094 208.417969 173.277344 204.902344 168.539062 198.097656 C 164.128906 191.765625 163.480469 183.761719 166.527344 176.960938 L 177.097656 192.140625 C 178.199219 193.71875 180.378906 194.109375 181.960938 193.007812 L 194.535156 184.253906 C 196.117188 183.152344 196.507812 180.972656 195.40625 179.390625 L 184.835938 164.210938 C 192.269531 163.710938 199.550781 167.089844 203.964844 173.429688 C 208.703125 180.234375 209.101562 189.273438 204.984375 196.457031 C 204.3125 197.628906 204.378906 199.078125 205.148438 200.1875 L 217.882812 218.472656 C 216.144531 220.183594 214.285156 221.734375 212.324219 223.101562 Z M 151.082031 163.945312 C 164.089844 143.871094 191 138.125 211.074219 151.132812 C 231.148438 164.140625 236.894531 191.050781 223.886719 211.125 C 223.46875 211.769531 223.035156 212.398438 222.585938 213.007812 L 212.089844 197.9375 C 216.40625 188.785156 215.542969 177.828125 209.699219 169.433594 C 202.570312 159.199219 189.777344 154.78125 177.859375 158.445312 C 176.796875 158.773438 175.949219 159.59375 175.585938 160.648438 C 175.21875 161.703125 175.382812 162.867188 176.023438 163.785156 L 187.675781 180.519531 L 180.839844 185.28125 L 169.183594 168.546875 C 168.546875 167.628906 167.507812 167.074219 166.394531 167.046875 C 165.277344 167.023438 164.21875 167.535156 163.539062 168.417969 C 155.972656 178.324219 155.679688 191.851562 162.808594 202.089844 C 168.648438 210.476562 178.628906 215.085938 188.71875 214.226562 L 199.199219 229.273438 C 187.617188 232.515625 174.761719 230.972656 163.898438 223.933594 C 143.824219 210.933594 138.078125 184.015625 151.082031 163.945312 Z M 301.640625 192.992188 C 292.207031 199.5625 289.875 212.582031 296.445312 222.015625 C 303.015625 231.445312 316.035156 233.777344 325.46875 227.207031 C 334.902344 220.636719 337.230469 207.617188 330.660156 198.183594 C 324.089844 188.746094 311.074219 186.421875 301.640625 192.992188 Z M 321.472656 221.46875 C 315.203125 225.835938 306.542969 224.285156 302.175781 218.015625 C 297.808594 211.746094 299.359375 203.085938 305.628906 198.722656 C 311.898438 194.355469 320.554688 195.898438 324.925781 202.175781 C 329.292969 208.449219 327.746094 217.097656 321.472656 221.46875 Z M 321.472656 221.46875 " fill-opacity="1" fill-rule="nonzero"/></g></g></g></svg>