<svg xmlns="http://www.w3.org/2000/svg" xmlns:xlink="http://www.w3.org/1999/xlink" width="205" zoomAndPan="magnify" viewBox="0 0 153.75 44.999999" height="60" preserveAspectRatio="xMidYMid meet" version="1.0"><defs><g/><clipPath id="49a93615a4"><path d="M 0.996094 0.339844 L 95.882812 0.339844 L 95.882812 24 L 0.996094 24 Z M 0.996094 0.339844 " clip-rule="nonzero"/></clipPath><clipPath id="a5924ac9fe"><path d="M 83 1 L 95.882812 1 L 95.882812 17 L 83 17 Z M 83 1 " clip-rule="nonzero"/></clipPath><clipPath id="3033856f3e"><rect x="0" width="96" y="0" height="24"/></clipPath><clipPath id="369a2b8be6"><path d="M 13 19 L 85 19 L 85 28.375 L 13 28.375 Z M 13 19 " clip-rule="nonzero"/></clipPath><clipPath id="bb875bbb12"><rect x="0" width="72" y="0" height="10"/></clipPath><clipPath id="bae999911a"><rect x="0" width="96" y="0" height="29"/></clipPath><clipPath id="3cc207678f"><path d="M 2 5 L 49 5 L 49 40 L 2 40 Z M 2 5 " clip-rule="nonzero"/></clipPath><clipPath id="cc82d8d59d"><path d="M 0 18.570312 L 30.722656 -2.824219 L 51.265625 26.667969 L 20.539062 48.066406 Z M 0 18.570312 " clip-rule="nonzero"/></clipPath><clipPath id="a3b5887f8c"><path d="M 0 18.570312 L 30.722656 -2.824219 L 51.265625 26.667969 L 20.539062 48.066406 Z M 0 18.570312 " clip-rule="nonzero"/></clipPath></defs><g transform="matrix(1, 0, 0, 1, 51, 10)"><g clip-path="url(#bae999911a)"><g clip-path="url(#49a93615a4)"><g transform="matrix(1, 0, 0, 1, -0.000000000000014211, 0.000000000000003553)"><g clip-path="url(#3033856f3e)"><g fill="#ffffff" fill-opacity="1"><g transform="translate(1.284123, 16.565848)"><g><path d="M 14.734375 0 L 10.03125 0 L 4.5 -6.359375 L 4.5 0 L 1.09375 0 L 1.09375 -14.984375 L 4.5 -14.984375 L 4.5 -8.875 L 9.65625 -14.984375 L 13.796875 -14.984375 L 7.765625 -7.890625 Z M 14.734375 0 "/></g></g></g><g fill="#ffffff" fill-opacity="1"><g transform="translate(15.588248, 16.565848)"><g><path d="M 4.5 -9.296875 L 4.5 0 L 1.09375 0 L 1.09375 -14.984375 L 4.5 -14.984375 L 10.46875 -5.6875 L 10.5 -5.6875 L 10.5 -14.984375 L 13.921875 -14.984375 L 13.921875 0 L 10.5 0 L 4.546875 -9.296875 Z M 4.5 -9.296875 "/></g></g></g><g fill="#ffffff" fill-opacity="1"><g transform="translate(30.601225, 16.565848)"><g/></g></g><g fill="#ffffff" fill-opacity="1"><g transform="translate(35.563138, 16.565848)"><g><path d="M 0.140625 -12 L 0.140625 -14.984375 L 10.6875 -14.984375 L 10.6875 -12 L 7.125 -12 L 7.125 0 L 3.703125 0 L 3.703125 -12 Z M 0.140625 -12 "/></g></g></g><g fill="#ffffff" fill-opacity="1"><g transform="translate(46.395747, 16.565848)"><g><path d="M -0.546875 -14.984375 L 3.5625 -14.984375 L 6.6875 -10.1875 L 9.8125 -14.984375 L 13.921875 -14.984375 L 8.390625 -6.71875 L 8.390625 0 L 4.984375 0 L 4.984375 -6.71875 Z M -0.546875 -14.984375 "/></g></g></g><g fill="#ffffff" fill-opacity="1"><g transform="translate(59.772927, 16.565848)"><g><path d="M 1.09375 -14.984375 L 6.453125 -14.984375 C 7.890625 -14.984375 9.0625 -14.597656 9.96875 -13.828125 C 10.882812 -13.066406 11.34375 -11.972656 11.34375 -10.546875 C 11.34375 -9.441406 11.066406 -8.515625 10.515625 -7.765625 C 9.960938 -7.023438 9.210938 -6.503906 8.265625 -6.203125 L 13.421875 0 L 9.078125 0 L 4.5 -5.921875 L 4.5 0 L 1.09375 0 Z M 4.5 -8.34375 L 4.90625 -8.34375 C 5.21875 -8.34375 5.484375 -8.347656 5.703125 -8.359375 C 5.921875 -8.367188 6.171875 -8.410156 6.453125 -8.484375 C 6.734375 -8.554688 6.957031 -8.660156 7.125 -8.796875 C 7.289062 -8.929688 7.429688 -9.125 7.546875 -9.375 C 7.671875 -9.632812 7.734375 -9.941406 7.734375 -10.296875 C 7.734375 -10.660156 7.671875 -10.96875 7.546875 -11.21875 C 7.429688 -11.476562 7.289062 -11.675781 7.125 -11.8125 C 6.957031 -11.945312 6.734375 -12.050781 6.453125 -12.125 C 6.171875 -12.195312 5.921875 -12.238281 5.703125 -12.25 C 5.484375 -12.257812 5.21875 -12.265625 4.90625 -12.265625 L 4.5 -12.265625 Z M 4.5 -8.34375 "/></g></g></g><g fill="#ffffff" fill-opacity="1"><g transform="translate(72.786595, 16.565848)"><g><path d="M 9.671875 -14.984375 L 9.671875 -12 L 4.5 -12 L 4.5 -9.015625 L 9.453125 -9.015625 L 9.453125 -6.015625 L 4.5 -6.015625 L 4.5 -3 L 9.671875 -3 L 9.671875 0 L 1.09375 0 L 1.09375 -14.984375 Z M 9.671875 -14.984375 "/></g></g></g><g clip-path="url(#a5924ac9fe)"><g fill="#ffffff" fill-opacity="1"><g transform="translate(83.32839, 16.565848)"><g><path d="M 6.609375 -15.265625 C 7.421875 -15.265625 8.210938 -15.144531 8.984375 -14.90625 C 9.765625 -14.675781 10.34375 -14.441406 10.71875 -14.203125 L 11.265625 -13.84375 L 9.890625 -11.125 C 9.773438 -11.195312 9.617188 -11.289062 9.421875 -11.40625 C 9.234375 -11.519531 8.875 -11.671875 8.34375 -11.859375 C 7.8125 -12.054688 7.3125 -12.15625 6.84375 -12.15625 C 6.28125 -12.15625 5.84375 -12.035156 5.53125 -11.796875 C 5.21875 -11.554688 5.0625 -11.226562 5.0625 -10.8125 C 5.0625 -10.601562 5.132812 -10.410156 5.28125 -10.234375 C 5.425781 -10.054688 5.675781 -9.867188 6.03125 -9.671875 C 6.382812 -9.472656 6.691406 -9.3125 6.953125 -9.1875 C 7.222656 -9.070312 7.640625 -8.894531 8.203125 -8.65625 C 9.171875 -8.238281 9.992188 -7.675781 10.671875 -6.96875 C 11.359375 -6.257812 11.703125 -5.457031 11.703125 -4.5625 C 11.703125 -3.695312 11.546875 -2.941406 11.234375 -2.296875 C 10.929688 -1.660156 10.507812 -1.160156 9.96875 -0.796875 C 9.425781 -0.429688 8.828125 -0.164062 8.171875 0 C 7.523438 0.175781 6.816406 0.265625 6.046875 0.265625 C 5.390625 0.265625 4.75 0.195312 4.125 0.0625 C 3.5 -0.0625 2.972656 -0.222656 2.546875 -0.421875 C 2.117188 -0.628906 1.734375 -0.828125 1.390625 -1.015625 C 1.054688 -1.210938 0.8125 -1.378906 0.65625 -1.515625 L 0.421875 -1.703125 L 2.125 -4.578125 C 2.269531 -4.453125 2.46875 -4.296875 2.71875 -4.109375 C 2.976562 -3.921875 3.429688 -3.671875 4.078125 -3.359375 C 4.722656 -3.046875 5.296875 -2.890625 5.796875 -2.890625 C 7.234375 -2.890625 7.953125 -3.378906 7.953125 -4.359375 C 7.953125 -4.566406 7.898438 -4.757812 7.796875 -4.9375 C 7.703125 -5.113281 7.523438 -5.285156 7.265625 -5.453125 C 7.003906 -5.628906 6.769531 -5.769531 6.5625 -5.875 C 6.363281 -5.976562 6.035156 -6.132812 5.578125 -6.34375 C 5.128906 -6.5625 4.796875 -6.722656 4.578125 -6.828125 C 3.671875 -7.273438 2.96875 -7.832031 2.46875 -8.5 C 1.96875 -9.175781 1.71875 -9.90625 1.71875 -10.6875 C 1.71875 -12.03125 2.210938 -13.128906 3.203125 -13.984375 C 4.203125 -14.835938 5.335938 -15.265625 6.609375 -15.265625 Z M 6.609375 -15.265625 "/></g></g></g></g></g></g></g><g clip-path="url(#369a2b8be6)"><g transform="matrix(1, 0, 0, 1, 13, 19)"><g clip-path="url(#bb875bbb12)"><g fill="#ffffff" fill-opacity="1"><g transform="translate(0.933809, 7.366253)"><g><path d="M 2.890625 0.09375 C 2.441406 0.09375 2.050781 0.0195312 1.71875 -0.125 C 1.394531 -0.28125 1.125 -0.484375 0.90625 -0.734375 C 0.695312 -0.992188 0.539062 -1.289062 0.4375 -1.625 C 0.332031 -1.96875 0.28125 -2.328125 0.28125 -2.703125 C 0.28125 -3.066406 0.332031 -3.414062 0.4375 -3.75 C 0.539062 -4.09375 0.695312 -4.394531 0.90625 -4.65625 C 1.125 -4.914062 1.394531 -5.117188 1.71875 -5.265625 C 2.050781 -5.410156 2.441406 -5.484375 2.890625 -5.484375 C 3.328125 -5.484375 3.707031 -5.40625 4.03125 -5.25 C 4.363281 -5.101562 4.625 -4.894531 4.8125 -4.625 C 5.007812 -4.363281 5.128906 -4.054688 5.171875 -3.703125 L 4.0625 -3.703125 C 4.019531 -3.984375 3.890625 -4.195312 3.671875 -4.34375 C 3.453125 -4.5 3.179688 -4.578125 2.859375 -4.578125 C 2.523438 -4.578125 2.242188 -4.5 2.015625 -4.34375 C 1.796875 -4.1875 1.625 -3.960938 1.5 -3.671875 C 1.382812 -3.390625 1.328125 -3.066406 1.328125 -2.703125 C 1.328125 -2.328125 1.382812 -1.992188 1.5 -1.703125 C 1.625 -1.421875 1.796875 -1.203125 2.015625 -1.046875 C 2.242188 -0.890625 2.523438 -0.8125 2.859375 -0.8125 C 3.179688 -0.8125 3.445312 -0.890625 3.65625 -1.046875 C 3.875 -1.203125 4.007812 -1.4375 4.0625 -1.75 L 5.171875 -1.75 C 5.128906 -1.375 5.007812 -1.046875 4.8125 -0.765625 C 4.625 -0.492188 4.363281 -0.28125 4.03125 -0.125 C 3.707031 0.0195312 3.328125 0.09375 2.890625 0.09375 Z M 2.890625 0.09375 "/></g></g></g><g fill="#ffffff" fill-opacity="1"><g transform="translate(7.800855, 7.366253)"><g><path d="M 1.109375 0 L 0.046875 0 L 1.953125 -5.390625 L 3.0625 -5.390625 L 4.96875 0 L 3.90625 0 L 3.53125 -1.109375 L 1.46875 -1.109375 Z M 2.5 -4.28125 L 1.765625 -2 L 3.25 -2 Z M 2.5 -4.28125 "/></g></g></g><g fill="#ffffff" fill-opacity="1"><g transform="translate(14.265656, 7.366253)"><g><path d="M 3.671875 -2.34375 L 4.640625 0 L 3.546875 0 L 2.703125 -2.15625 L 1.5 -2.15625 L 1.5 0 L 0.484375 0 L 0.484375 -5.390625 L 2.796875 -5.390625 C 3.140625 -5.390625 3.4375 -5.332031 3.6875 -5.21875 C 3.945312 -5.113281 4.148438 -4.941406 4.296875 -4.703125 C 4.441406 -4.472656 4.515625 -4.171875 4.515625 -3.796875 C 4.515625 -3.441406 4.4375 -3.140625 4.28125 -2.890625 C 4.132812 -2.640625 3.929688 -2.457031 3.671875 -2.34375 Z M 2.65625 -4.484375 L 1.5 -4.484375 L 1.5 -3.046875 L 2.65625 -3.046875 C 2.9375 -3.046875 3.144531 -3.101562 3.28125 -3.21875 C 3.425781 -3.34375 3.5 -3.523438 3.5 -3.765625 C 3.5 -3.992188 3.425781 -4.171875 3.28125 -4.296875 C 3.132812 -4.421875 2.925781 -4.484375 2.65625 -4.484375 Z M 2.65625 -4.484375 "/></g></g></g><g fill="#ffffff" fill-opacity="1"><g transform="translate(20.582264, 7.366253)"><g/></g></g><g fill="#ffffff" fill-opacity="1"><g transform="translate(23.927928, 7.366253)"><g><path d="M 2.625 0.09375 C 2.363281 0.09375 2.097656 0.0625 1.828125 0 C 1.566406 -0.0625 1.320312 -0.160156 1.09375 -0.296875 C 0.863281 -0.441406 0.671875 -0.632812 0.515625 -0.875 C 0.367188 -1.113281 0.28125 -1.40625 0.25 -1.75 L 1.296875 -1.75 C 1.359375 -1.5 1.457031 -1.300781 1.59375 -1.15625 C 1.726562 -1.007812 1.882812 -0.90625 2.0625 -0.84375 C 2.25 -0.789062 2.4375 -0.765625 2.625 -0.765625 C 2.90625 -0.765625 3.140625 -0.820312 3.328125 -0.9375 C 3.515625 -1.0625 3.609375 -1.253906 3.609375 -1.515625 C 3.609375 -1.703125 3.546875 -1.847656 3.421875 -1.953125 C 3.296875 -2.054688 3.132812 -2.132812 2.9375 -2.1875 C 2.75 -2.25 2.539062 -2.304688 2.3125 -2.359375 C 2.09375 -2.398438 1.867188 -2.453125 1.640625 -2.515625 C 1.421875 -2.578125 1.21875 -2.660156 1.03125 -2.765625 C 0.84375 -2.878906 0.691406 -3.023438 0.578125 -3.203125 C 0.472656 -3.390625 0.421875 -3.625 0.421875 -3.90625 C 0.421875 -4.25 0.503906 -4.535156 0.671875 -4.765625 C 0.835938 -5.003906 1.0625 -5.179688 1.34375 -5.296875 C 1.632812 -5.421875 1.960938 -5.484375 2.328125 -5.484375 C 2.679688 -5.484375 3.007812 -5.421875 3.3125 -5.296875 C 3.613281 -5.179688 3.867188 -5 4.078125 -4.75 C 4.296875 -4.5 4.429688 -4.175781 4.484375 -3.78125 L 3.453125 -3.78125 C 3.390625 -4.070312 3.25 -4.285156 3.03125 -4.421875 C 2.820312 -4.554688 2.582031 -4.625 2.3125 -4.625 C 2.050781 -4.625 1.835938 -4.566406 1.671875 -4.453125 C 1.515625 -4.347656 1.4375 -4.191406 1.4375 -3.984375 C 1.4375 -3.828125 1.492188 -3.695312 1.609375 -3.59375 C 1.722656 -3.5 1.875 -3.425781 2.0625 -3.375 C 2.25 -3.320312 2.453125 -3.269531 2.671875 -3.21875 C 2.898438 -3.175781 3.125 -3.117188 3.34375 -3.046875 C 3.570312 -2.972656 3.785156 -2.878906 3.984375 -2.765625 C 4.179688 -2.648438 4.335938 -2.492188 4.453125 -2.296875 C 4.578125 -2.109375 4.640625 -1.863281 4.640625 -1.5625 C 4.640625 -1.050781 4.460938 -0.644531 4.109375 -0.34375 C 3.753906 -0.0507812 3.257812 0.09375 2.625 0.09375 Z M 2.625 0.09375 "/></g></g></g><g fill="#ffffff" fill-opacity="1"><g transform="translate(30.293937, 7.366253)"><g><path d="M 4.078125 0 L 0.484375 0 L 0.484375 -5.390625 L 4.078125 -5.390625 L 4.078125 -4.484375 L 1.5 -4.484375 L 1.5 -3.15625 L 3.8125 -3.15625 L 3.8125 -2.25 L 1.5 -2.25 L 1.5 -0.90625 L 4.078125 -0.90625 Z M 4.078125 0 "/></g></g></g><g fill="#ffffff" fill-opacity="1"><g transform="translate(36.130676, 7.366253)"><g><path d="M 3.671875 -2.34375 L 4.640625 0 L 3.546875 0 L 2.703125 -2.15625 L 1.5 -2.15625 L 1.5 0 L 0.484375 0 L 0.484375 -5.390625 L 2.796875 -5.390625 C 3.140625 -5.390625 3.4375 -5.332031 3.6875 -5.21875 C 3.945312 -5.113281 4.148438 -4.941406 4.296875 -4.703125 C 4.441406 -4.472656 4.515625 -4.171875 4.515625 -3.796875 C 4.515625 -3.441406 4.4375 -3.140625 4.28125 -2.890625 C 4.132812 -2.640625 3.929688 -2.457031 3.671875 -2.34375 Z M 2.65625 -4.484375 L 1.5 -4.484375 L 1.5 -3.046875 L 2.65625 -3.046875 C 2.9375 -3.046875 3.144531 -3.101562 3.28125 -3.21875 C 3.425781 -3.34375 3.5 -3.523438 3.5 -3.765625 C 3.5 -3.992188 3.425781 -4.171875 3.28125 -4.296875 C 3.132812 -4.421875 2.925781 -4.484375 2.65625 -4.484375 Z M 2.65625 -4.484375 "/></g></g></g><g fill="#ffffff" fill-opacity="1"><g transform="translate(42.447283, 7.366253)"><g><path d="M 3.03125 0 L 1.921875 0 L 0.015625 -5.390625 L 1.09375 -5.390625 L 2.484375 -1.109375 L 3.875 -5.390625 L 4.9375 -5.390625 Z M 3.03125 0 "/></g></g></g><g fill="#ffffff" fill-opacity="1"><g transform="translate(48.855633, 7.366253)"><g><path d="M 1.5 0 L 0.484375 0 L 0.484375 -5.390625 L 1.5 -5.390625 Z M 1.5 0 "/></g></g></g><g fill="#ffffff" fill-opacity="1"><g transform="translate(52.285984, 7.366253)"><g><path d="M 2.890625 0.09375 C 2.441406 0.09375 2.050781 0.0195312 1.71875 -0.125 C 1.394531 -0.28125 1.125 -0.484375 0.90625 -0.734375 C 0.695312 -0.992188 0.539062 -1.289062 0.4375 -1.625 C 0.332031 -1.96875 0.28125 -2.328125 0.28125 -2.703125 C 0.28125 -3.066406 0.332031 -3.414062 0.4375 -3.75 C 0.539062 -4.09375 0.695312 -4.394531 0.90625 -4.65625 C 1.125 -4.914062 1.394531 -5.117188 1.71875 -5.265625 C 2.050781 -5.410156 2.441406 -5.484375 2.890625 -5.484375 C 3.328125 -5.484375 3.707031 -5.40625 4.03125 -5.25 C 4.363281 -5.101562 4.625 -4.894531 4.8125 -4.625 C 5.007812 -4.363281 5.128906 -4.054688 5.171875 -3.703125 L 4.0625 -3.703125 C 4.019531 -3.984375 3.890625 -4.195312 3.671875 -4.34375 C 3.453125 -4.5 3.179688 -4.578125 2.859375 -4.578125 C 2.523438 -4.578125 2.242188 -4.5 2.015625 -4.34375 C 1.796875 -4.1875 1.625 -3.960938 1.5 -3.671875 C 1.382812 -3.390625 1.328125 -3.066406 1.328125 -2.703125 C 1.328125 -2.328125 1.382812 -1.992188 1.5 -1.703125 C 1.625 -1.421875 1.796875 -1.203125 2.015625 -1.046875 C 2.242188 -0.890625 2.523438 -0.8125 2.859375 -0.8125 C 3.179688 -0.8125 3.445312 -0.890625 3.65625 -1.046875 C 3.875 -1.203125 4.007812 -1.4375 4.0625 -1.75 L 5.171875 -1.75 C 5.128906 -1.375 5.007812 -1.046875 4.8125 -0.765625 C 4.625 -0.492188 4.363281 -0.28125 4.03125 -0.125 C 3.707031 0.0195312 3.328125 0.09375 2.890625 0.09375 Z M 2.890625 0.09375 "/></g></g></g><g fill="#ffffff" fill-opacity="1"><g transform="translate(59.153029, 7.366253)"><g><path d="M 4.078125 0 L 0.484375 0 L 0.484375 -5.390625 L 4.078125 -5.390625 L 4.078125 -4.484375 L 1.5 -4.484375 L 1.5 -3.15625 L 3.8125 -3.15625 L 3.8125 -2.25 L 1.5 -2.25 L 1.5 -0.90625 L 4.078125 -0.90625 Z M 4.078125 0 "/></g></g></g><g fill="#ffffff" fill-opacity="1"><g transform="translate(64.989768, 7.366253)"><g><path d="M 2.625 0.09375 C 2.363281 0.09375 2.097656 0.0625 1.828125 0 C 1.566406 -0.0625 1.320312 -0.160156 1.09375 -0.296875 C 0.863281 -0.441406 0.671875 -0.632812 0.515625 -0.875 C 0.367188 -1.113281 0.28125 -1.40625 0.25 -1.75 L 1.296875 -1.75 C 1.359375 -1.5 1.457031 -1.300781 1.59375 -1.15625 C 1.726562 -1.007812 1.882812 -0.90625 2.0625 -0.84375 C 2.25 -0.789062 2.4375 -0.765625 2.625 -0.765625 C 2.90625 -0.765625 3.140625 -0.820312 3.328125 -0.9375 C 3.515625 -1.0625 3.609375 -1.253906 3.609375 -1.515625 C 3.609375 -1.703125 3.546875 -1.847656 3.421875 -1.953125 C 3.296875 -2.054688 3.132812 -2.132812 2.9375 -2.1875 C 2.75 -2.25 2.539062 -2.304688 2.3125 -2.359375 C 2.09375 -2.398438 1.867188 -2.453125 1.640625 -2.515625 C 1.421875 -2.578125 1.21875 -2.660156 1.03125 -2.765625 C 0.84375 -2.878906 0.691406 -3.023438 0.578125 -3.203125 C 0.472656 -3.390625 0.421875 -3.625 0.421875 -3.90625 C 0.421875 -4.25 0.503906 -4.535156 0.671875 -4.765625 C 0.835938 -5.003906 1.0625 -5.179688 1.34375 -5.296875 C 1.632812 -5.421875 1.960938 -5.484375 2.328125 -5.484375 C 2.679688 -5.484375 3.007812 -5.421875 3.3125 -5.296875 C 3.613281 -5.179688 3.867188 -5 4.078125 -4.75 C 4.296875 -4.5 4.429688 -4.175781 4.484375 -3.78125 L 3.453125 -3.78125 C 3.390625 -4.070312 3.25 -4.285156 3.03125 -4.421875 C 2.820312 -4.554688 2.582031 -4.625 2.3125 -4.625 C 2.050781 -4.625 1.835938 -4.566406 1.671875 -4.453125 C 1.515625 -4.347656 1.4375 -4.191406 1.4375 -3.984375 C 1.4375 -3.828125 1.492188 -3.695312 1.609375 -3.59375 C 1.722656 -3.5 1.875 -3.425781 2.0625 -3.375 C 2.25 -3.320312 2.453125 -3.269531 2.671875 -3.21875 C 2.898438 -3.175781 3.125 -3.117188 3.34375 -3.046875 C 3.570312 -2.972656 3.785156 -2.878906 3.984375 -2.765625 C 4.179688 -2.648438 4.335938 -2.492188 4.453125 -2.296875 C 4.578125 -2.109375 4.640625 -1.863281 4.640625 -1.5625 C 4.640625 -1.050781 4.460938 -0.644531 4.109375 -0.34375 C 3.753906 -0.0507812 3.257812 0.09375 2.625 0.09375 Z M 2.625 0.09375 "/></g></g></g></g></g></g></g></g><g clip-path="url(#3cc207678f)"><g clip-path="url(#cc82d8d59d)"><g clip-path="url(#a3b5887f8c)"><path fill="#dfa900" d="M 37.859375 31.261719 C 37.777344 31.179688 37.664062 31.132812 37.546875 31.128906 C 37.398438 31.128906 37.257812 31.195312 37.167969 31.3125 C 36.242188 32.535156 35.132812 33.601562 33.863281 34.484375 C 27.257812 39.085938 18.136719 37.457031 13.535156 30.847656 C 13.523438 30.828125 13.511719 30.8125 13.496094 30.792969 L 14.109375 30.519531 C 14.253906 30.453125 14.359375 30.316406 14.378906 30.160156 C 14.402344 30 14.339844 29.839844 14.214844 29.738281 L 10.414062 26.609375 C 10.277344 26.5 10.089844 26.472656 9.929688 26.546875 C 9.769531 26.617188 9.660156 26.773438 9.652344 26.949219 L 9.433594 31.867188 C 9.425781 32.027344 9.503906 32.179688 9.636719 32.269531 C 9.769531 32.359375 9.941406 32.375 10.085938 32.3125 L 10.832031 31.980469 C 10.945312 32.152344 11.058594 32.324219 11.175781 32.492188 C 13.84375 36.320312 17.84375 38.886719 22.441406 39.707031 C 27.035156 40.53125 31.675781 39.515625 35.507812 36.84375 C 37.140625 35.710938 38.550781 34.324219 39.703125 32.726562 C 39.796875 32.59375 39.816406 32.425781 39.757812 32.277344 C 39.699219 32.132812 39.566406 32.023438 39.410156 31.996094 C 39.066406 31.9375 38.050781 31.394531 37.859375 31.261719 Z M 34.976562 36.085938 C 27.488281 41.300781 17.152344 39.453125 11.9375 31.964844 C 11.753906 31.699219 11.574219 31.425781 11.40625 31.152344 C 11.28125 30.953125 11.03125 30.875 10.820312 30.96875 L 10.394531 31.160156 L 10.539062 27.917969 L 13.042969 29.980469 L 12.617188 30.167969 C 12.496094 30.222656 12.402344 30.328125 12.363281 30.457031 C 12.324219 30.585938 12.34375 30.726562 12.414062 30.84375 C 12.53125 31.023438 12.652344 31.203125 12.773438 31.378906 C 17.667969 38.40625 27.367188 40.140625 34.394531 35.25 C 35.621094 34.390625 36.714844 33.375 37.640625 32.21875 C 37.914062 32.378906 38.261719 32.550781 38.574219 32.683594 C 37.558594 33.988281 36.351562 35.128906 34.976562 36.085938 Z M 41.402344 12.734375 C 41.269531 12.644531 41.097656 12.628906 40.949219 12.695312 L 40.207031 13.027344 C 40.09375 12.855469 39.980469 12.683594 39.863281 12.515625 C 37.195312 8.683594 33.195312 6.121094 28.597656 5.296875 C 24.003906 4.476562 19.359375 5.492188 15.527344 8.160156 C 13.898438 9.296875 12.484375 10.683594 11.335938 12.28125 C 11.242188 12.410156 11.222656 12.578125 11.28125 12.726562 C 11.339844 12.875 11.472656 12.980469 11.628906 13.007812 C 11.96875 13.070312 12.988281 13.613281 13.175781 13.746094 C 13.261719 13.828125 13.371094 13.875 13.488281 13.878906 C 13.636719 13.882812 13.78125 13.8125 13.867188 13.695312 C 14.792969 12.472656 15.90625 11.40625 17.175781 10.523438 C 23.78125 5.921875 32.898438 7.550781 37.5 14.160156 C 37.511719 14.179688 37.527344 14.195312 37.539062 14.214844 L 36.929688 14.488281 C 36.78125 14.554688 36.679688 14.6875 36.65625 14.847656 C 36.636719 15.007812 36.699219 15.167969 36.820312 15.269531 L 40.625 18.398438 C 40.761719 18.507812 40.949219 18.535156 41.109375 18.460938 C 41.136719 18.449219 41.160156 18.4375 41.1875 18.417969 C 41.304688 18.335938 41.378906 18.207031 41.382812 18.058594 L 41.601562 13.140625 C 41.609375 12.980469 41.535156 12.824219 41.402344 12.734375 Z M 40.496094 17.089844 L 37.992188 15.03125 L 38.417969 14.839844 C 38.542969 14.785156 38.636719 14.679688 38.675781 14.550781 C 38.714844 14.421875 38.695312 14.28125 38.621094 14.164062 C 38.503906 13.984375 38.386719 13.804688 38.261719 13.628906 C 33.367188 6.601562 23.671875 4.863281 16.644531 9.757812 C 15.414062 10.613281 14.324219 11.632812 13.394531 12.789062 C 13.121094 12.628906 12.773438 12.460938 12.460938 12.324219 C 13.480469 11.019531 14.6875 9.878906 16.058594 8.921875 C 23.550781 3.707031 33.886719 5.554688 39.101562 13.042969 C 39.285156 13.308594 39.464844 13.582031 39.632812 13.855469 C 39.753906 14.054688 40.003906 14.132812 40.21875 14.039062 L 40.644531 13.847656 Z M 5.070312 23.570312 L 5.832031 23.144531 C 6.097656 23.359375 6.386719 23.542969 6.695312 23.695312 L 6.628906 24.566406 C 6.609375 24.804688 6.773438 25.015625 7.007812 25.058594 L 8.496094 25.324219 C 8.730469 25.367188 8.960938 25.226562 9.023438 24.996094 L 9.265625 24.15625 C 9.605469 24.121094 9.941406 24.046875 10.265625 23.9375 L 10.832031 24.601562 C 10.988281 24.78125 11.253906 24.816406 11.449219 24.679688 L 12.691406 23.816406 C 12.886719 23.679688 12.949219 23.417969 12.832031 23.207031 L 12.40625 22.445312 C 12.621094 22.179688 12.808594 21.890625 12.957031 21.582031 L 13.832031 21.648438 C 14.070312 21.667969 14.28125 21.503906 14.324219 21.269531 L 14.589844 19.78125 C 14.632812 19.542969 14.488281 19.316406 14.257812 19.25 L 13.417969 19.011719 C 13.382812 18.671875 13.308594 18.335938 13.199219 18.011719 L 13.863281 17.441406 C 14.046875 17.289062 14.078125 17.019531 13.941406 16.824219 L 13.078125 15.585938 C 12.941406 15.390625 12.679688 15.328125 12.472656 15.445312 L 11.707031 15.871094 C 11.441406 15.652344 11.152344 15.46875 10.84375 15.316406 L 10.914062 14.445312 C 10.929688 14.207031 10.765625 13.996094 10.53125 13.953125 L 9.042969 13.6875 C 8.808594 13.644531 8.578125 13.789062 8.515625 14.015625 L 8.277344 14.859375 C 7.933594 14.894531 7.601562 14.96875 7.277344 15.074219 L 6.707031 14.414062 C 6.550781 14.230469 6.285156 14.199219 6.089844 14.332031 L 4.847656 15.199219 C 4.652344 15.335938 4.589844 15.597656 4.707031 15.804688 L 5.132812 16.570312 C 4.917969 16.835938 4.730469 17.125 4.582031 17.429688 L 3.707031 17.363281 C 3.472656 17.347656 3.257812 17.511719 3.214844 17.746094 L 2.949219 19.234375 C 2.90625 19.46875 3.050781 19.695312 3.28125 19.761719 L 4.121094 20 C 4.15625 20.34375 4.230469 20.675781 4.339844 21 L 3.675781 21.570312 C 3.492188 21.726562 3.460938 21.992188 3.597656 22.1875 L 4.460938 23.429688 C 4.597656 23.625 4.859375 23.683594 5.070312 23.570312 Z M 4.597656 22 L 5.191406 21.492188 C 5.34375 21.363281 5.394531 21.148438 5.316406 20.960938 C 5.136719 20.539062 5.039062 20.089844 5.023438 19.628906 C 5.019531 19.425781 4.882812 19.25 4.6875 19.195312 L 3.9375 18.984375 L 4.054688 18.320312 L 4.832031 18.382812 C 5.035156 18.398438 5.222656 18.28125 5.300781 18.09375 C 5.472656 17.667969 5.71875 17.28125 6.035156 16.945312 C 6.171875 16.796875 6.199219 16.578125 6.101562 16.402344 L 5.722656 15.71875 L 6.273438 15.335938 L 6.78125 15.929688 C 6.914062 16.082031 7.128906 16.132812 7.3125 16.054688 C 7.738281 15.875 8.1875 15.777344 8.644531 15.761719 C 8.847656 15.757812 9.023438 15.621094 9.078125 15.425781 L 9.292969 14.675781 L 9.953125 14.792969 L 9.894531 15.570312 C 9.878906 15.773438 9.992188 15.960938 10.179688 16.039062 C 10.609375 16.210938 10.996094 16.457031 11.328125 16.773438 C 11.476562 16.910156 11.695312 16.9375 11.875 16.839844 L 12.554688 16.460938 L 12.9375 17.011719 L 12.347656 17.519531 C 12.191406 17.652344 12.140625 17.867188 12.222656 18.054688 C 12.398438 18.476562 12.5 18.925781 12.511719 19.386719 C 12.519531 19.585938 12.65625 19.761719 12.847656 19.816406 L 13.601562 20.03125 L 13.480469 20.695312 L 12.703125 20.632812 C 12.503906 20.617188 12.3125 20.734375 12.238281 20.921875 C 12.066406 21.347656 11.816406 21.734375 11.503906 22.070312 C 11.363281 22.21875 11.335938 22.4375 11.433594 22.613281 L 11.816406 23.292969 L 11.261719 23.679688 L 10.757812 23.085938 C 10.625 22.933594 10.410156 22.882812 10.222656 22.960938 C 9.800781 23.140625 9.351562 23.238281 8.890625 23.253906 C 8.6875 23.257812 8.515625 23.394531 8.457031 23.589844 L 8.246094 24.339844 L 7.582031 24.222656 L 7.644531 23.441406 C 7.660156 23.242188 7.542969 23.054688 7.355469 22.976562 C 6.929688 22.804688 6.542969 22.554688 6.207031 22.242188 C 6.058594 22.101562 5.839844 22.074219 5.664062 22.175781 L 4.984375 22.554688 Z M 10.351562 21.777344 C 11.605469 20.90625 11.914062 19.175781 11.042969 17.921875 C 10.167969 16.671875 8.441406 16.359375 7.1875 17.234375 C 5.933594 18.105469 5.625 19.835938 6.496094 21.089844 C 7.371094 22.34375 9.097656 22.652344 10.351562 21.777344 Z M 7.71875 17.996094 C 8.550781 17.414062 9.699219 17.621094 10.28125 18.453125 C 10.859375 19.289062 10.65625 20.4375 9.820312 21.019531 C 8.988281 21.597656 7.839844 21.390625 7.257812 20.558594 C 6.679688 19.726562 6.882812 18.578125 7.71875 17.996094 Z M 45.96875 21.441406 L 45.203125 21.863281 C 44.9375 21.648438 44.648438 21.464844 44.34375 21.3125 L 44.410156 20.441406 C 44.429688 20.203125 44.265625 19.992188 44.027344 19.949219 L 42.539062 19.683594 C 42.304688 19.640625 42.078125 19.785156 42.011719 20.011719 L 41.773438 20.851562 C 41.433594 20.890625 41.097656 20.960938 40.773438 21.070312 L 40.203125 20.40625 C 40.046875 20.226562 39.78125 20.191406 39.585938 20.328125 L 38.34375 21.195312 C 38.148438 21.328125 38.089844 21.589844 38.203125 21.800781 L 38.628906 22.5625 C 38.414062 22.828125 38.230469 23.117188 38.078125 23.425781 L 37.207031 23.359375 C 36.96875 23.339844 36.753906 23.503906 36.714844 23.738281 L 36.449219 25.230469 C 36.40625 25.464844 36.546875 25.691406 36.777344 25.757812 L 37.617188 25.996094 C 37.652344 26.335938 37.726562 26.671875 37.835938 26.996094 L 37.171875 27.566406 C 36.992188 27.71875 36.957031 27.988281 37.09375 28.183594 L 37.957031 29.425781 C 38.09375 29.621094 38.355469 29.679688 38.566406 29.5625 L 39.328125 29.140625 C 39.59375 29.355469 39.882812 29.539062 40.191406 29.691406 L 40.125 30.5625 C 40.105469 30.800781 40.269531 31.011719 40.503906 31.054688 L 41.992188 31.320312 C 42.226562 31.363281 42.457031 31.222656 42.523438 30.992188 L 42.761719 30.152344 C 43.101562 30.113281 43.4375 30.042969 43.761719 29.933594 L 44.328125 30.597656 C 44.484375 30.777344 44.753906 30.8125 44.949219 30.675781 L 46.1875 29.808594 C 46.382812 29.675781 46.445312 29.414062 46.328125 29.203125 L 45.902344 28.441406 C 46.121094 28.175781 46.304688 27.886719 46.457031 27.578125 L 47.328125 27.644531 C 47.566406 27.664062 47.777344 27.5 47.820312 27.265625 L 48.085938 25.773438 C 48.128906 25.539062 47.984375 25.3125 47.757812 25.246094 L 46.914062 25.007812 C 46.878906 24.667969 46.804688 24.332031 46.699219 24.007812 L 47.359375 23.4375 C 47.542969 23.285156 47.574219 23.015625 47.441406 22.820312 L 46.574219 21.578125 C 46.441406 21.382812 46.175781 21.324219 45.96875 21.441406 Z M 46.4375 23.007812 L 45.847656 23.515625 C 45.691406 23.644531 45.640625 23.859375 45.722656 24.046875 C 45.898438 24.472656 45.996094 24.917969 46.011719 25.378906 C 46.019531 25.582031 46.15625 25.757812 46.347656 25.8125 L 47.101562 26.023438 L 46.980469 26.6875 L 46.203125 26.628906 C 46 26.613281 45.8125 26.726562 45.738281 26.914062 C 45.5625 27.34375 45.316406 27.726562 45 28.0625 C 44.863281 28.210938 44.835938 28.429688 44.933594 28.605469 L 45.3125 29.289062 L 44.761719 29.671875 L 44.253906 29.078125 C 44.125 28.925781 43.910156 28.875 43.722656 28.953125 C 43.300781 29.132812 42.851562 29.230469 42.390625 29.246094 C 42.1875 29.253906 42.011719 29.386719 41.957031 29.582031 L 41.746094 30.332031 L 41.082031 30.214844 L 41.144531 29.4375 C 41.15625 29.234375 41.042969 29.046875 40.855469 28.96875 C 40.425781 28.796875 40.039062 28.550781 39.707031 28.234375 C 39.558594 28.097656 39.339844 28.070312 39.160156 28.167969 L 38.480469 28.546875 L 38.097656 27.996094 L 38.6875 27.488281 C 38.84375 27.355469 38.894531 27.140625 38.8125 26.953125 C 38.636719 26.53125 38.535156 26.082031 38.523438 25.621094 C 38.515625 25.421875 38.378906 25.246094 38.1875 25.191406 L 37.433594 24.976562 L 37.554688 24.316406 L 38.332031 24.375 C 38.53125 24.390625 38.722656 24.273438 38.796875 24.085938 C 38.96875 23.660156 39.21875 23.273438 39.53125 22.9375 C 39.671875 22.789062 39.699219 22.570312 39.601562 22.394531 L 39.21875 21.714844 L 39.773438 21.328125 L 40.28125 21.921875 C 40.410156 22.074219 40.625 22.125 40.8125 22.046875 C 41.234375 21.867188 41.683594 21.769531 42.144531 21.753906 C 42.347656 21.75 42.523438 21.613281 42.578125 21.417969 L 42.789062 20.667969 L 43.453125 20.785156 L 43.390625 21.566406 C 43.375 21.765625 43.492188 21.953125 43.679688 22.03125 C 44.105469 22.203125 44.492188 22.453125 44.828125 22.765625 C 44.976562 22.90625 45.195312 22.933594 45.371094 22.832031 L 46.054688 22.453125 Z M 16.488281 22.171875 L 14.480469 22.816406 C 14.253906 22.886719 14.117188 23.121094 14.167969 23.355469 L 14.808594 26.363281 C 14.859375 26.597656 15.078125 26.753906 15.316406 26.730469 L 17.414062 26.496094 C 17.800781 27.285156 18.300781 28.007812 18.898438 28.652344 L 17.933594 30.53125 C 17.824219 30.742188 17.890625 31 18.09375 31.132812 L 20.675781 32.804688 C 20.875 32.9375 21.140625 32.894531 21.292969 32.707031 L 22.609375 31.058594 C 23.441406 31.34375 24.304688 31.5 25.183594 31.53125 L 25.832031 33.542969 C 25.902344 33.769531 26.136719 33.90625 26.371094 33.855469 L 29.378906 33.210938 C 29.613281 33.164062 29.769531 32.945312 29.746094 32.707031 L 29.511719 30.609375 C 30.300781 30.21875 31.023438 29.722656 31.667969 29.125 L 33.542969 30.089844 C 33.703125 30.171875 33.886719 30.152344 34.023438 30.058594 C 34.070312 30.023438 34.113281 29.980469 34.144531 29.929688 L 35.820312 27.34375 C 35.949219 27.144531 35.90625 26.878906 35.71875 26.730469 L 34.074219 25.410156 C 34.355469 24.582031 34.515625 23.714844 34.546875 22.835938 L 36.558594 22.191406 C 36.785156 22.117188 36.917969 21.886719 36.871094 21.652344 L 36.226562 18.640625 C 36.175781 18.410156 35.957031 18.25 35.722656 18.277344 L 33.621094 18.511719 C 33.234375 17.71875 32.738281 16.996094 32.140625 16.351562 L 33.105469 14.476562 C 33.214844 14.265625 33.144531 14.003906 32.945312 13.875 L 30.359375 12.199219 C 30.160156 12.070312 29.894531 12.113281 29.746094 12.300781 L 28.425781 13.949219 C 27.59375 13.664062 26.730469 13.503906 25.851562 13.472656 L 25.207031 11.464844 C 25.132812 11.234375 24.898438 11.101562 24.667969 11.152344 L 21.65625 11.792969 C 21.421875 11.84375 21.265625 12.0625 21.292969 12.300781 L 21.523438 14.398438 C 20.734375 14.785156 20.011719 15.285156 19.367188 15.882812 L 17.492188 14.917969 C 17.28125 14.808594 17.019531 14.875 16.890625 15.078125 L 15.214844 17.660156 C 15.085938 17.859375 15.128906 18.125 15.316406 18.277344 L 16.964844 19.59375 C 16.679688 20.425781 16.519531 21.289062 16.488281 22.171875 Z M 17.945312 19.605469 C 18.019531 19.417969 17.960938 19.203125 17.800781 19.078125 L 16.222656 17.8125 L 17.441406 15.9375 L 19.238281 16.859375 C 19.417969 16.953125 19.636719 16.917969 19.78125 16.777344 C 20.480469 16.070312 21.300781 15.507812 22.210938 15.101562 C 22.398438 15.019531 22.507812 14.828125 22.484375 14.625 L 22.261719 12.617188 L 24.449219 12.148438 L 25.070312 14.074219 C 25.128906 14.269531 25.308594 14.398438 25.511719 14.398438 C 26.507812 14.394531 27.484375 14.574219 28.414062 14.933594 C 28.601562 15.003906 28.816406 14.945312 28.941406 14.789062 L 30.207031 13.210938 L 32.085938 14.425781 L 31.160156 16.226562 C 31.066406 16.40625 31.101562 16.625 31.246094 16.765625 C 31.949219 17.46875 32.515625 18.289062 32.917969 19.199219 C 33.003906 19.382812 33.195312 19.492188 33.394531 19.472656 L 35.40625 19.25 L 35.875 21.4375 L 33.945312 22.054688 C 33.753906 22.117188 33.625 22.296875 33.625 22.496094 C 33.625 23.496094 33.445312 24.472656 33.089844 25.402344 C 33.019531 25.589844 33.074219 25.804688 33.234375 25.929688 L 34.8125 27.195312 L 33.59375 29.070312 L 31.796875 28.148438 C 31.640625 28.066406 31.457031 28.082031 31.320312 28.179688 C 31.296875 28.195312 31.277344 28.210938 31.253906 28.230469 C 30.554688 28.9375 29.734375 29.5 28.824219 29.90625 C 28.640625 29.988281 28.53125 30.179688 28.550781 30.382812 L 28.773438 32.390625 L 26.585938 32.859375 L 25.96875 30.933594 C 25.90625 30.742188 25.726562 30.609375 25.523438 30.609375 C 24.527344 30.613281 23.550781 30.433594 22.621094 30.078125 C 22.433594 30.003906 22.21875 30.0625 22.09375 30.21875 L 20.828125 31.800781 L 18.949219 30.582031 L 19.875 28.78125 C 19.96875 28.601562 19.933594 28.382812 19.789062 28.242188 C 19.085938 27.539062 18.523438 26.722656 18.117188 25.808594 C 18.035156 25.625 17.84375 25.515625 17.640625 25.539062 L 15.628906 25.761719 L 15.164062 23.570312 L 17.089844 22.953125 C 17.28125 22.890625 17.414062 22.714844 17.414062 22.511719 C 17.410156 21.511719 17.589844 20.535156 17.945312 19.605469 Z M 21.878906 28.121094 C 24.226562 29.640625 27.183594 29.5 29.351562 27.992188 C 30.039062 27.511719 30.648438 26.890625 31.132812 26.144531 C 33.140625 23.046875 32.253906 18.894531 29.15625 16.886719 C 26.0625 14.882812 21.910156 15.769531 19.902344 18.863281 C 17.894531 21.960938 18.78125 26.113281 21.878906 28.121094 Z M 28.816406 27.230469 C 28.550781 27.417969 28.265625 27.578125 27.972656 27.714844 L 26.28125 25.289062 C 26.179688 25.144531 26.003906 25.066406 25.824219 25.097656 C 24.738281 25.277344 23.628906 24.8125 23 23.90625 C 22.414062 23.066406 22.328125 22.003906 22.734375 21.097656 L 24.136719 23.117188 C 24.285156 23.324219 24.574219 23.378906 24.785156 23.230469 L 26.453125 22.066406 C 26.664062 21.921875 26.714844 21.632812 26.570312 21.421875 L 25.164062 19.40625 C 26.152344 19.339844 27.121094 19.789062 27.707031 20.628906 C 28.335938 21.535156 28.390625 22.734375 27.84375 23.6875 C 27.753906 23.84375 27.761719 24.039062 27.863281 24.183594 L 29.554688 26.613281 C 29.324219 26.84375 29.078125 27.046875 28.816406 27.230469 Z M 20.679688 19.371094 C 22.410156 16.703125 25.984375 15.9375 28.652344 17.667969 C 31.320312 19.394531 32.082031 22.972656 30.355469 25.636719 C 30.300781 25.722656 30.242188 25.808594 30.183594 25.886719 L 28.785156 23.886719 C 29.359375 22.671875 29.246094 21.214844 28.46875 20.097656 C 27.523438 18.738281 25.824219 18.152344 24.238281 18.640625 C 24.097656 18.683594 23.984375 18.792969 23.9375 18.933594 C 23.886719 19.070312 23.910156 19.226562 23.996094 19.347656 L 25.542969 21.570312 L 24.636719 22.203125 L 23.085938 19.980469 C 23 19.859375 22.863281 19.785156 22.714844 19.78125 C 22.566406 19.777344 22.425781 19.847656 22.335938 19.964844 C 21.332031 21.28125 21.292969 23.078125 22.238281 24.4375 C 23.015625 25.550781 24.339844 26.164062 25.683594 26.050781 L 27.074219 28.050781 C 25.535156 28.480469 23.828125 28.273438 22.382812 27.339844 C 19.71875 25.613281 18.953125 22.035156 20.679688 19.371094 Z M 40.683594 23.230469 C 39.429688 24.101562 39.121094 25.832031 39.996094 27.085938 C 40.867188 28.339844 42.597656 28.648438 43.851562 27.773438 C 45.105469 26.902344 45.414062 25.171875 44.539062 23.917969 C 43.667969 22.664062 41.9375 22.355469 40.683594 23.230469 Z M 43.320312 27.011719 C 42.488281 27.59375 41.335938 27.386719 40.757812 26.554688 C 40.175781 25.722656 40.382812 24.570312 41.214844 23.992188 C 42.046875 23.410156 43.199219 23.617188 43.777344 24.449219 C 44.359375 25.28125 44.152344 26.433594 43.320312 27.011719 Z M 43.320312 27.011719 " fill-opacity="1" fill-rule="nonzero"/></g></g></g></svg>