<?xml version="1.0" encoding="utf-8"?>
<!-- Generator: Adobe Illustrator 20.0.0, SVG Export Plug-In . SVG Version: 6.00 Build 0)  -->
<svg version="1.1" id="Layer_1" xmlns="http://www.w3.org/2000/svg" xmlns:xlink="http://www.w3.org/1999/xlink" x="0px" y="0px"
	 viewBox="0 0 358.94 102.07" style="enable-background:new 0 0 358.94 102.07;" xml:space="preserve">
<style type="text/css">
	.st0{display:none;fill:#0C4684;}
	.st1{display:none;fill:#F8DC00;}
	.st2{display:none;fill:#DE222A;}
	.st3{display:none;fill:#004996;}
	.st4{display:none;}
	.st5{display:none;fill:#1D1D1B;}
	.st6{display:none;fill:#005AA9;}
	.st7{display:none;fill:#FFEC00;}
	.st8{display:none;fill:#FDA428;}
	.st9{fill:#1D1D1B;}
	.st10{fill:#ED0000;}
	.st11{fill:#E2231A;}
	.st12{fill:#1D1D1B;}
	.st13{fill:#E20613;}
	.st14{fill:#FFD039;}
	.st15{fill:#FCBD1B;}
	.st16{fill:#FF4C00;}
	.st17{fill:#FFE600;}
	.st18{fill:#231F20;}
	.st19{fill:#DB0D15;}
	.st20{fill:#E30613;}
	.st21{fill:#E30613;stroke:#E30613;stroke-width:2.9777;stroke-miterlimit:3.8637;}
</style>
<rect id="XMLID_440_" y="0" class="st2" width="358.803" height="102.07"/>
<g id="Firestone">
	<path id="XMLID_451_" class="st9" d="M22.571,74.847c7.244,0.505,17.52-2.695,15.161-18.025c2.19-1.853,5.391-1.179,7.244,0.337
		l3.875-8.591c-3.875-3.201-8.423-2.19-12.466,1.179c-1.179-3.369-1.516-6.907,0.674-9.097c10.444,1.348,19.71-1.179,19.71-13.477
		c-7.244,4.885-12.634,3.201-20.215,1.685C25.435,26.5,15.665,27.51,13.475,43.009c5.222-3.538,11.455-3.875,14.15-3.032
		c-3.875,5.896-6.401,9.602-3.201,21.731C25.435,65.245,26.783,69.625,22.571,74.847z"/>
	<path id="XMLID_450_" class="st9" d="M55.926,40.65l12.971-4.548c3.538,2.864,3.706,5.054,3.706,11.792s-1.179,11.455,3.706,13.982
		l-12.297,4.38c-5.222-2.864-4.717-5.728-4.717-13.477C59.464,45.03,59.801,43.177,55.926,40.65z"/>
	<path id="XMLID_449_" class="st9" d="M96.019,48.231c-0.168,6.064-1.516,11.624,3.706,13.477l-11.624,4.38
		c-5.222-2.864-4.717-5.728-4.717-13.477c0.168-7.581,0.505-9.434-3.538-11.961l12.466-4.548c1.853,1.516,2.864,2.864,3.201,4.885
		l10.276-4.38l6.57,11.118l-9.939,5.728l-3.875-5.896L96.019,48.231z"/>
	<path id="XMLID_475_" class="st9" d="M140.155,35.933l9.939,12.129l-17.183,7.749c3.201,4.043,12.971,1.853,16.172-0.337
		l-5.222,8.76c-17.857,5.896-30.154-4.717-27.29-16.34C119.098,37.955,134.428,35.933,140.155,35.933z M129.037,51.768l6.907-3.201
		l-4.211-5.054C128.531,44.356,127.352,48.062,129.037,51.768z"/>
	<path id="XMLID_446_" class="st9" d="M170.814,57.159l-11.287-6.907c-6.064-3.706-2.695-5.896-0.505-7.244l13.308-7.918
		l14.993,8.254l-3.706,3.369l-8.086-4.717c-1.685-1.179-4.211,0.842-1.348,2.864l10.781,6.738c5.054,2.695,3.369,6.064,0.505,7.749
		l-13.814,7.581l-15.33-8.591l3.875-3.369l8.928,5.391C171.32,61.539,173.678,59.181,170.814,57.159z"/>
	<path id="XMLID_445_" class="st9" d="M209.223,33.07L189.85,47.389h6.57v13.982c0.168,3.706,0.842,5.896,4.211,7.581l12.971-4.717
		c-3.032-1.685-4.38-2.695-4.38-6.233V47.22h7.412v-6.907h-7.412V33.07L209.223,33.07z"/>
	<path id="XMLID_470_" class="st9" d="M256.728,49.578c0.505,8.928-3.706,12.129-16.172,16.846
		c-11.118-2.19-18.193-6.401-19.204-14.487c-0.842-6.57,1.348-11.624,18.193-16.34C245.947,37.786,256.391,41.661,256.728,49.578z
		 M236.176,42.672c-3.875,5.391,0.168,14.993,5.896,15.667C244.936,54.295,243.588,45.535,236.176,42.672z"/>
	<path id="XMLID_442_" class="st9" d="M298.674,46.378c0,0,0,7.075,0,9.939c0,3.032,1.011,4.38,3.875,5.391l-12.129,4.38
		c-3.201-2.021-4.211-3.875-4.211-7.075s0-4.717,0-8.423c0-3.706-1.516-5.054-3.032-5.728l-4.38,1.348c0,0,0,6.57,0,10.444
		c0,3.201,1.179,3.875,3.032,5.054l-11.961,4.211c-4.38-2.695-3.706-5.559-3.706-13.308c0.168-7.581,0.337-9.434-3.706-11.961
		l12.466-4.548c1.853,1.516,2.527,2.864,2.864,4.717l10.107-3.706c6.401-2.695,10.444,3.369,10.444,9.097"/>
	<path id="XMLID_466_" class="st9" d="M332.029,35.933l9.939,12.129l-17.183,7.749c3.201,4.043,12.971,1.853,16.172-0.337
		l-5.222,8.76c-17.857,5.896-30.154-4.717-27.29-16.34C310.972,37.955,326.301,35.933,332.029,35.933z M320.911,51.768l6.907-3.201
		l-4.211-5.054C320.405,44.356,319.226,48.062,320.911,51.768z"/>
</g>
</svg>
