<?xml version="1.0" encoding="utf-8"?>
<!-- Generator: Adobe Illustrator 20.0.0, SVG Export Plug-In . SVG Version: 6.00 Build 0)  -->
<svg version="1.1" id="Layer_1" xmlns="http://www.w3.org/2000/svg" xmlns:xlink="http://www.w3.org/1999/xlink" x="0px" y="0px"
	 viewBox="0 0 358.94 102.07" style="enable-background:new 0 0 358.94 102.07;" xml:space="preserve">
<style type="text/css">
	.st0{display:none;fill:#0C4684;}
	.st1{display:none;fill:#F8DC00;}
	.st2{display:none;fill:#DE222A;}
	.st3{display:none;fill:#004996;}
	.st4{display:none;}
	.st5{display:none;fill:#1D1D1B;}
	.st6{display:none;fill:#005AA9;}
	.st7{display:none;fill:#FFEC00;}
	.st8{display:none;fill:#FDA428;}
	.st9{fill:#FFFFFF;}
	.st10{fill:#ED0000;}
	.st11{fill:#E2231A;}
	.st12{fill:#1D1D1B;}
	.st13{fill:#E20613;}
	.st14{fill:#FFD039;}
	.st15{fill:#FCBD1B;}
	.st16{fill:#FF4C00;}
	.st17{fill:#FFE600;}
	.st18{fill:#231F20;}
	.st19{fill:#DB0D15;}
	.st20{fill:#E30613;}
	.st21{fill:#E30613;stroke:#E30613;stroke-width:2.9777;stroke-miterlimit:3.8637;}
</style>
<rect id="XMLID_467_" y="0" class="st3" width="358.887" height="102.07"/>
<g id="Goodyear">
	<path id="XMLID_518_" class="st14" d="M111.706,34.306c-8.813-0.205-17.01,6.763-18.855,16.191
		c-2.049,9.427,3.894,17.625,14.141,17.42c10.247-0.41,18.24-4.304,20.699-16.805C129.946,40.249,121.133,34.511,111.706,34.306
		L111.706,34.306L111.706,34.306z M114.37,44.553c-1.23,4.919-2.254,10.042-3.894,14.961c-0.41,2.049-1.844,4.304-3.689,3.894
		c-1.64-0.41-1.64-2.869-1.435-4.919c1.025-5.329,2.459-10.452,4.099-15.576c0.82-2.459,1.64-4.509,3.689-4.509
		C116.01,38.815,114.78,42.709,114.37,44.553L114.37,44.553L114.37,44.553z"/>
	<path id="XMLID_515_" class="st14" d="M74.201,34.306c-9.018-0.205-17.01,6.763-19.06,16.191
		c-2.049,9.427,3.894,17.625,14.346,17.42c10.247-0.41,18.445-4.304,20.699-16.805C92.441,40.249,83.628,34.511,74.201,34.306
		L74.201,34.306L74.201,34.306z M77.07,44.553c-1.23,4.919-2.459,10.042-3.894,14.961c-0.41,2.049-1.844,4.304-3.894,3.894
		c-1.64-0.205-1.64-2.869-1.23-4.919c0.82-5.329,2.254-10.452,3.689-15.576c1.23-2.459,1.64-4.509,3.689-4.509
		C78.505,38.815,77.48,42.709,77.07,44.553L77.07,44.553L77.07,44.553z"/>
	<path id="XMLID_486_" class="st14" d="M36.286,59.104c-0.41,1.23-1.23,2.459-2.869,2.254c-2.254,0.205-2.254-1.845-2.049-2.869l0,0
		l4.099-15.166c0.41-1.845,1.64-3.279,4.509-3.074c2.049,0,3.689,1.23,5.124,2.664l0,0l3.484-4.509
		c-3.074-2.254-6.558-3.279-10.452-3.484c-12.911,0.205-19.88,7.788-21.724,15.166c-2.254,6.763,0,17.625,11.477,18.035l0,0h20.289
		l4.509-18.24H38.541L36.286,59.104L36.286,59.104z"/>
	<path id="XMLID_485_" class="st14" d="M184.666,33.691c0.205-0.205,0.205-0.41,0.205-0.41c-0.41-1.844-0.41-3.279-0.41-4.919l0,0
		h0.205l-0.82-1.23l-11.067,7.378c0.615,2.049,2.049,4.099,2.869,6.148l0,0L184.666,33.691L184.666,33.691z"/>
	<path id="XMLID_484_" class="st14" d="M183.641,59.924c0.82-1.025,1.844-1.845,2.869-2.869l0,0l1.025-0.82l1.23-0.82l1.23-0.82
		l1.23-1.025l1.23-0.615l1.435-0.82l1.435-0.82l1.64-0.615l0.205-0.205l-2.664-4.714c-1.025,1.23-2.254,2.459-3.484,3.484l0,0
		l-2.459-2.459l-1.23-1.64c-0.205-0.615-0.615-1.23-0.82-1.844l0,0l-9.427,5.738l6.148,11.067L183.641,59.924L183.641,59.924z"/>
	<path id="XMLID_483_" class="st14" d="M185.076,42.709l-8.813-0.41c0.41,1.23,0.41,2.254,0,3.689c0,0.41-0.205,1.23-0.41,2.254l0,0
		L185.076,42.709L185.076,42.709z"/>
	<path id="XMLID_482_" class="st14" d="M184.666,35.331l-7.583,5.533l8.403,0.41c-0.205-0.41-0.205-1.025-0.41-1.64l0,0l-0.41-2.049
		C184.666,36.97,184.666,36.15,184.666,35.331L184.666,35.331L184.666,35.331z"/>
	<polygon id="XMLID_481_" class="st14" points="250.863,53.161 258.446,53.161 260.086,46.807 252.503,46.807 253.937,40.659 
		265.824,40.659 267.259,34.716 240.411,34.716 232.418,67.712 259.061,67.712 260.905,61.154 249.019,61.154 	"/>
	<polygon id="XMLID_480_" class="st14" points="230.983,34.716 221.761,45.783 218.892,34.716 202.496,34.716 208.235,53.161 
		204.546,67.712 220.326,67.712 223.4,53.98 238.976,34.716 	"/>
	<path id="XMLID_505_" class="st14" d="M332.636,34.716h-22.954l-9.223,32.996h15.781l3.689-12.092l3.074,12.092h15.371
		l-3.279-12.707c4.509-2.664,6.353-5.329,7.378-10.862C343.293,35.945,336.735,34.921,332.636,34.716L332.636,34.716L332.636,34.716
		z M327.102,41.069c-0.205,2.664-0.82,5.124-1.435,7.583c-0.41,1.23-0.615,2.869-2.869,2.869l0,0h-2.049l2.664-12.707h2.459
		C326.897,38.61,327.512,39.839,327.102,41.069L327.102,41.069z"/>
	<path id="XMLID_502_" class="st14" d="M281.4,34.716l-20.085,32.996h6.968l3.279-5.533h10.657l0.82,5.533H298l-3.894-32.996H281.4
		L281.4,34.716z M275.661,56.03l5.329-8.608l0.82,8.608H275.661L275.661,56.03z"/>
	<path id="XMLID_499_" class="st14" d="M154.744,34.716h-19.88l-8.403,32.996h19.265c14.346-0.205,19.265-9.427,20.904-18.445
		C167.861,40.249,162.122,35.331,154.744,34.716L154.744,34.716z M153.105,43.733l-4.099,15.166
		c-0.41,2.049-1.435,3.689-4.099,3.689l0,0h-2.459l6.148-22.749h3.279C153.105,39.839,153.924,41.479,153.105,43.733L153.105,43.733
		L153.105,43.733z"/>
	<path id="XMLID_495_" class="st14" d="M209.054,32.461c-0.205-1.23-1.23-1.64-2.254-2.049c2.254-0.615,4.509-1.025,4.919-1.64
		c0.205-0.205-0.41-0.82-1.435-1.844l0,0l11.887-0.205c4.304,0,9.427-3.894,9.632-7.788c-1.23,0.615-3.074,1.435-4.714,1.64l0,0
		l-25.208-0.41c-4.509-0.41-9.427,0-11.887,1.435c-3.689,2.869-3.484,6.968-2.869,11.272c-0.41,4.714,0.615,10.247,3.689,12.707
		c1.64-1.64,2.869-3.279,3.484-5.943c0.41,0.82,1.23,1.23,2.254,1.64c0.615-1.64,0.615-3.074,0.615-4.714
		c0.41,0.615,1.23,1.23,2.049,1.64c0.82-2.254,1.025-4.304,1.025-6.148C203.316,33.691,206.595,33.691,209.054,32.461
		L209.054,32.461L209.054,32.461z M193.274,36.355c-1.025-0.41-1.844-1.23-2.869-1.844c0-1.23,0-2.459-0.615-3.484
		c1.23,0.82,2.459,1.23,3.894,1.23C193.274,33.691,193.069,35.126,193.274,36.355L193.274,36.355L193.274,36.355z M200.447,27.133
		c-1.025,1.435-2.049,1.844-3.894,1.435c-1.64,1.025-3.279,0.82-5.124-0.205c1.64-0.615,3.074-1.435,3.689-2.869
		c2.049,0.41,3.689,0.41,4.509-1.64c1.64,1.025,3.279,0.82,4.919,0.205C204.136,26.108,202.701,27.133,200.447,27.133
		L200.447,27.133L200.447,27.133z"/>
	<path id="XMLID_468_" class="st14" d="M197.578,52.341l-1.435,0.82l-1.435,0.41l-1.23,0.82l-1.23,0.82l-1.23,0.82l-1.23,0.82
		l-0.82,0.82l-1.23,0.615l-1.844,1.845l-1.844,1.845c-2.049,2.254-4.509,4.509-6.763,6.968l0,0l-1.64,1.845l-1.025,0.615
		l-1.025,0.82l-1.025,1.025l-1.025,0.615l-1.23,0.82l-0.82,0.82l-1.435,0.41l-1.23,0.82l-1.64,0.82l-1.23,0.615l1.64,2.049
		c16.191-6.763,17.01-18.445,33.816-25.823l0,0l-1.435-2.254L197.578,52.341L197.578,52.341z"/>
	<path id="XMLID_465_" class="st14" d="M165.811,75.295l1.435-0.615l1.025-0.82l1.23-0.41l1.025-0.82l1.23-0.82l0.82-0.82
		l2.049-1.435l1.64-1.64c2.049-2.049,3.689-4.304,5.738-6.148l0,0l0.41-0.41l-6.763-11.887c-2.049,4.509-7.583,11.477-8.198,18.65
		c-2.869,2.254-6.968,4.919-4.509,8.608l0,0h0.205l1.435-0.615L165.811,75.295L165.811,75.295z"/>
</g>
</svg>
