<?xml version="1.0" encoding="utf-8"?>
<!-- Generator: Adobe Illustrator 20.0.0, SVG Export Plug-In . SVG Version: 6.00 Build 0)  -->
<svg version="1.1" xmlns="http://www.w3.org/2000/svg" xmlns:xlink="http://www.w3.org/1999/xlink" x="0px" y="0px"
	 viewBox="0 0 358.94 102.07" style="enable-background:new 0 0 358.94 102.07;" xml:space="preserve">
<style type="text/css">
	.st0{fill:#0C4684;}
	.st1{fill:#F8DC00;}
	.st2{fill:#DE222A;}
	.st3{fill:#004996;}
	.st4{fill:#1D1D1B;}
	.st5{fill:#005AA9;}
	.st6{fill:#FFEC00;}
	.st7{fill:#FDA428;}
	.st8{fill:#FFFFFF;}
	.st9{fill:#ED0000;}
	.st10{fill:#E2231A;}
	.st11{fill:#E20613;}
	.st12{fill:#FFD039;}
	.st13{fill:#FCBD1B;}
	.st14{fill:#FF4C00;}
	.st15{fill:#FFE600;}
	.st16{fill:#231F20;}
	.st17{fill:#DB0D15;}
	.st18{fill:#E30613;}
	.st19{fill:#E30613;stroke:#E30613;stroke-width:2.9777;stroke-miterlimit:3.8637;}
	.st20{fill-rule:evenodd;clip-rule:evenodd;fill:#FFED00;}
	.st21{fill-rule:evenodd;clip-rule:evenodd;fill:#1D1D1B;}
</style>
<g id="Layer_1">
	
		<rect id="XMLID_565_" x="-0.03" y="0" transform="matrix(-1 -5.002899e-11 5.002899e-11 -1 358.91 102.07)" width="358.97" height="102.07"/>
	<path id="XMLID_728_" class="st8" d="M107.238,31.396c-0.089,0.293-3.208,10.489-3.208,10.489h-9.967l3.21-10.489h-11.41
		c0,0-8.619,28.165-8.783,28.703c0.538,0,11.109,0,11.405,0c0.09-0.295,3.684-12.038,3.684-12.038h9.972
		c0,0-3.524,11.511-3.684,12.038c0.541,0,11.107,0,11.405,0c0.089-0.296,8.619-28.165,8.785-28.703
		C118.105,31.396,107.537,31.396,107.238,31.396z"/>
	<path id="XMLID_727_" class="st8" d="M167.22,34.519l-0.523,0.387l1.076-3.511h-11.405c0,0-8.622,28.165-8.786,28.703
		c0.541,0,11.109,0,11.408,0c0.09-0.296,5.302-17.332,5.302-17.332c0.743-2.41,2.624-4.028,4.689-4.028h2.922
		c0.925,0,1.648,0.312,2.084,0.908c0.325,0.436,0.488,1.01,0.488,1.675c0,0.477-0.084,1.002-0.251,1.559
		c0,0-4.597,15.024-5.267,17.218c0.541,0,11.107,0,11.405,0c0.09-0.296,6.191-20.233,6.191-20.233
		c0.177-0.581,0.427-1.606,0.427-2.769c0-1.192-0.261-2.532-1.124-3.698c-1.269-1.715-3.514-2.585-6.675-2.585
		C173.088,30.815,169.071,33.134,167.22,34.519z"/>
	<path id="XMLID_753_" class="st8" d="M122.053,33.461c0.105,0.353,1.644,5.679,1.765,6.093c1.007-0.417,5.288-2.091,8.979-2.091
		c3.529,0,5.525,0.477,6.282,1.496c0.383,0.52,0.445,1.174,0.192,2.002l-0.714,2.337l-0.208-0.068
		c-4.798-1.582-8.456-1.53-8.493-1.53c-3.811,0-7.238,0.95-9.917,2.749c-2.564,1.727-4.392,4.178-5.286,7.098
		c-0.788,2.582-0.591,4.776,0.57,6.348c1.351,1.825,4.019,2.788,7.713,2.788c3.49,0,7.291-0.9,10.701-2.535l0.44-0.213
		c0,0-0.538,1.756-0.664,2.165c0.543,0,11.11,0,11.408,0c0.089-0.296,6.074-19.843,6.074-19.843c0.25-0.82,0.374-1.606,0.374-2.347
		c0-1.247-0.35-2.368-1.047-3.31c-1.836-2.477-6.066-3.785-12.235-3.785C130.433,30.815,123.29,33.05,122.053,33.461z
		 M131.088,47.578c0.87,0,3.849,0.068,5.681,0.929l0.167,0.077l-1.277,4.176l-0.089,0.04c-1.817,0.849-4.381,1.422-6.381,1.422
		c-1.918,0-3.263-0.449-3.887-1.293c-0.261-0.351-0.391-0.767-0.391-1.226c0-0.271,0.047-0.564,0.142-0.867
		C125.675,48.796,127.935,47.578,131.088,47.578z"/>
	<path id="XMLID_724_" class="st8" d="M211.684,31.25c-0.116,0.089-10.93,8.612-10.93,8.612l2.648-8.612H192.01
		c0,0-8.757,28.597-8.918,29.135c0.541,0,11.099,0,11.399,0c0.089-0.293,3.621-11.838,3.621-11.838s8.184,11.66,8.308,11.838
		c0.209,0,11.415,0,12.172,0c-0.445-0.641-10.455-14.919-10.455-14.919s16.371-13.5,17.248-14.216
		C224.29,31.25,211.826,31.25,211.684,31.25z"/>
	<path id="XMLID_749_" class="st8" d="M216.424,45.81L216.424,45.81c-1.24,4.052-0.77,7.845,1.327,10.68
		c2.368,3.2,6.623,4.964,11.977,4.964c12.6,0,19.711-4.863,23.05-15.765c1.24-4.051,0.768-7.844-1.329-10.677
		c-2.366-3.202-6.623-4.966-11.978-4.966C227.89,30.043,219.489,35.79,216.424,45.81z M227.578,52.201
		c-0.995-1.343-1.028-3.474-0.097-6.509l0,0c1.127-3.69,3.701-8.085,9.548-8.085c2.24,0,3.742,0.554,4.589,1.699
		c0.994,1.342,1.026,3.473,0.095,6.509c-1.126,3.69-3.696,8.087-9.545,8.087C229.926,53.904,228.427,53.348,227.578,52.201z"/>
	<path id="XMLID_746_" class="st8" d="M254.447,45.81L254.447,45.81c-1.24,4.052-0.77,7.845,1.329,10.679
		c2.366,3.202,6.621,4.964,11.982,4.964c12.599,0,19.706-4.863,23.045-15.765c1.24-4.051,0.768-7.844-1.329-10.677
		c-2.364-3.202-6.623-4.966-11.982-4.966C265.911,30.043,257.512,35.79,254.447,45.81z M275.052,37.607
		c2.244,0,3.743,0.554,4.592,1.699c0.992,1.342,1.024,3.474,0.093,6.509c-1.129,3.69-3.698,8.087-9.546,8.087
		c-2.244,0-3.742-0.556-4.59-1.701c-0.995-1.347-1.028-3.474-0.098-6.509l0,0C266.631,42.002,269.205,37.607,275.052,37.607z"/>
	<path id="XMLID_719_" class="st8" d="M316.545,30.998c-0.116,0.095-11.089,9.361-11.089,9.361l2.852-9.361h-11.394
		c0,0-8.897,29.058-9.062,29.597c0.541,0,11.094,0,11.395,0c0.089-0.295,3.676-12.024,3.676-12.024s8.817,11.861,8.942,12.024
		c0.2,0,11.716,0,12.505,0c-0.486-0.654-11.204-15.055-11.204-15.055s15.464-13.826,16.342-14.543
		C328.414,30.998,316.69,30.998,316.545,30.998z"/>
	<path id="XMLID_718_" class="st14" d="M80.483,26.489l-0.151-1.4h-9.666c1.107,11.413-6.763,24.142-17.978,27.175l-0.002,0.002
		c-0.008,0.002-0.014,0.005-0.023,0.006c-0.058,0.013-0.201,0.023-0.217-0.147c-0.006-0.058,0.019-0.119,0.064-0.15l-0.008,0.002
		c9.351-6.246,14.283-16.301,13.436-26.888h-9.466c0.412,9.305-5.831,17.772-15.383,21.209c-0.061,0.013-0.2,0.021-0.217-0.147
		c-0.003-0.058,0.031-0.108,0.074-0.137l-0.006-0.003c6.898-4.726,11.052-11.756,10.806-20.922h-9.464
		c-0.09,10.973-9.954,18.638-29.267,18.638c0.28,0.153,0.548,0.304,0.812,0.456c12.568,6.869,19.118,11.089,28.396,18.648
		c1.427,1.226,3.413,1.896,5.409,1.826C72.66,62.914,81.667,40.952,80.483,26.489z"/>
</g>
<g id="Layer_2">
</g>
</svg>
