<?xml version="1.0" encoding="utf-8"?>
<!-- Generator: Adobe Illustrator 20.0.0, SVG Export Plug-In . SVG Version: 6.00 Build 0)  -->
<svg version="1.1" id="Layer_1" xmlns="http://www.w3.org/2000/svg" xmlns:xlink="http://www.w3.org/1999/xlink" x="0px" y="0px"
	 viewBox="0 0 358.94 102.07" style="enable-background:new 0 0 358.94 102.07;" xml:space="preserve">
<style type="text/css">
	.st0{display:none;fill:#0C4684;}
	.st1{display:none;fill:#F8DC00;}
	.st2{display:none;fill:#DE222A;}
	.st3{display:none;fill:#004996;}
	.st4{display:none;}
	.st5{display:none;fill:#1D1D1B;}
	.st6{display:none;fill:#005AA9;}
	.st7{display:none;fill:#FFEC00;}
	.st8{display:none;fill:#FDA428;}
	.st9{fill:#1D1D1B;}
	.st10{fill:#ED0000;}
	.st11{fill:#E2231A;}
	.st12{fill:#1D1D1B;}
	.st13{fill:#E20613;}
	.st14{fill:#FFD039;}
	.st15{fill:#FCBD1B;}
	.st16{fill:#FF4C00;}
	.st17{fill:#FFE600;}
	.st18{fill:#231F20;}
	.st19{fill:#DB0D15;}
	.st20{fill:#E30613;}
	.st21{fill:#E30613;stroke:#E30613;stroke-width:2.9777;stroke-miterlimit:3.8637;}
</style>
<rect id="XMLID_566_" y="0" class="st2" width="358.94" height="102.07"/>
<g id="XMLID_665_">
	<polygon id="XMLID_587_" class="st15" points="335.584,55.144 335.584,83.078 167.82,83.078 	"/>
	<g id="XMLID_567_">
		<g id="XMLID_582_">
			<g id="XMLID_583_">
				<path id="XMLID_584_" class="st9" d="M154.828,40.69c1.624-0.325,8.445-1.624,7.308-7.795s-12.505-8.12-19.813-8.12
					c-7.308,0-17.215,0-17.215,0l0.162,27.934h12.668v-13.48c0,0,8.607,7.308,12.18,10.069c3.573,2.761,6.496,3.248,10.069,3.248
					s9.744,0,9.744,0L154.828,40.69z M147.357,35.331c-1.949,1.137-6.496,2.923-9.419,3.573v-7.795c0,0,2.761,0,4.71,0
					c1.949,0,3.898,0,5.522,0.974C149.956,32.895,149.306,34.031,147.357,35.331z"/>
			</g>
		</g>
		<path id="XMLID_581_" class="st9" d="M170.256,52.708l0.162-6.496c0,0,12.668,0,15.753,0c3.573,0,6.334-0.325,6.171-1.786
			c0-1.137-2.598-1.949-4.223-2.274c-1.624-0.487-7.471-1.786-10.556-2.923c-3.735-1.299-6.983-5.197-6.496-8.283
			c0.487-3.086,3.41-6.171,11.693-6.171s20.625,0,20.625,0l-0.162,6.983c0,0-11.531,0-13.804,0s-4.872-0.162-5.035,0.812
			c-0.325,0.812,0.487,1.786,3.248,2.436c2.923,0.65,6.334,1.462,10.231,2.598c3.735,1.137,8.445,3.735,7.958,8.12
			c-0.325,4.385-6.983,6.983-13.804,6.983C184.873,52.708,170.256,52.708,170.256,52.708z"/>
		<polygon id="XMLID_580_" class="st9" points="303.266,24.774 316.096,24.774 316.096,45.887 335.584,45.887 335.584,52.708 
			303.266,52.708 		"/>
		<path id="XMLID_579_" class="st9" d="M18.895,52.708l3.248-27.934h15.916l8.607,17.052c0,0,6.334-11.856,7.308-13.642
			c0.974-1.786,3.573-3.248,8.77-3.248s9.419,0,9.419,0L75.25,52.87H62.582l-1.137-18.189L51.051,52.87h-9.257l-9.582-18.677
			l-1.299,18.514H18.895z"/>
		<g id="XMLID_574_">
			<g id="XMLID_575_">
				<path id="XMLID_576_" class="st9" d="M108.055,24.774c0,0-5.197,0-10.394,0c-5.197,0-6.009,2.274-6.983,3.898
					S76.711,52.708,76.711,52.708H90.84l3.086-5.359h14.129l3.086,5.359h13.317L108.055,24.774z M100.422,41.015
					c-1.949,0-2.923,0.325-3.735,1.299c-0.812,0.974-1.299,1.786-1.299,1.786l5.522-11.856l4.547,8.77
					C105.294,41.015,102.371,41.015,100.422,41.015z"/>
			</g>
		</g>
		<g id="XMLID_569_">
			<g id="XMLID_570_">
				<path id="XMLID_571_" class="st9" d="M284.264,24.774c0,0-5.197,0-10.394,0c-5.197,0-6.009,2.274-6.983,3.898
					c-0.974,1.624-13.967,24.036-13.967,24.036h14.129l3.086-5.359h14.129l3.086,5.359h13.317L284.264,24.774z M276.631,41.015
					c-1.949,0-2.923,0.325-3.735,1.299c-0.812,0.974-1.299,1.786-1.299,1.786l5.522-11.856l4.547,8.77
					C281.503,41.015,278.58,41.015,276.631,41.015z"/>
			</g>
		</g>
		<path id="XMLID_568_" class="st9" d="M208.584,52.708V24.774h12.83l-0.162,14.779c0,0,0.487-1.949,0.65-2.598
			c0.162-0.65,1.299-1.949,3.086-1.949s12.83,0,12.83,0V24.937h12.83V52.87h-12.83l-0.162-11.044h-16.403l0.162,11.044
			L208.584,52.708L208.584,52.708z"/>
	</g>
</g>
</svg>
