<svg id="svg" version="1.1" xmlns="http://www.w3.org/2000/svg" xmlns:xlink="http://www.w3.org/1999/xlink" width="400" height="114.47058823529412" viewBox="0, 0, 400,114.47058823529412"><g id="svgg"><path id="path0" d="M23.609 88.250 C 23.564 88.433,23.305 89.183,23.033 89.917 C 22.761 90.650,22.300 91.920,22.008 92.740 C 21.717 93.559,21.405 94.366,21.316 94.532 C 21.161 94.823,26.626 94.833,176.124 94.833 L 331.094 94.833 331.312 94.292 C 331.432 93.994,331.777 93.075,332.079 92.250 C 332.381 91.425,332.862 90.120,333.147 89.349 C 333.433 88.579,333.667 87.914,333.667 87.872 C 333.667 87.559,23.685 87.936,23.609 88.250 " stroke="none" fill="#fce404" fill-rule="evenodd"></path><path id="path1" d="M11.534 20.021 C 10.639 20.465,10.070 21.207,9.919 22.129 C 9.829 22.683,9.697 22.895,9.327 23.087 C 8.352 23.591,7.929 24.404,7.909 25.813 C 7.899 26.512,7.836 27.207,7.768 27.358 C 7.246 28.517,7.569 31.951,8.406 34.167 C 8.562 34.579,8.750 35.142,8.824 35.417 C 9.278 37.103,12.051 43.133,13.068 44.644 C 13.397 45.133,13.667 45.601,13.667 45.683 C 13.667 45.766,13.724 45.833,13.795 45.833 C 14.387 45.833,14.437 46.722,13.903 47.764 C 13.102 49.330,12.833 50.429,12.833 52.148 C 12.833 54.149,13.284 55.950,14.258 57.838 C 14.404 58.121,14.444 58.602,14.380 59.306 C 14.048 62.972,16.695 67.764,20.097 69.652 C 20.574 69.917,20.843 70.212,20.998 70.640 C 21.644 72.429,25.216 75.667,26.543 75.667 C 26.630 75.667,27.199 76.179,27.809 76.805 C 28.895 77.921,29.167 78.131,30.446 78.850 C 31.183 79.263,32.767 79.792,33.733 79.947 C 34.170 80.017,34.712 80.305,35.287 80.773 C 36.123 81.454,37.589 82.239,38.500 82.492 C 38.903 82.604,38.915 82.650,38.868 83.846 C 38.811 85.299,39.193 87.642,39.521 87.850 C 39.647 87.930,40.190 87.996,40.728 87.997 L 41.706 88.000 41.589 87.542 C 41.243 86.182,40.969 84.136,41.064 83.628 L 41.173 83.048 42.878 82.951 C 46.987 82.719,50.436 80.899,53.170 77.519 L 53.757 76.794 55.170 77.378 C 58.734 78.850,63.043 80.106,68.417 81.239 C 72.960 82.197,75.145 82.555,79.833 83.109 C 83.127 83.498,91.385 83.519,93.053 83.142 L 94.189 82.885 94.570 83.401 C 95.171 84.216,95.505 85.269,95.615 86.687 L 95.716 88.000 98.013 88.000 L 100.309 88.000 100.824 87.375 C 101.108 87.031,101.582 86.282,101.878 85.709 C 102.174 85.136,102.461 84.668,102.515 84.667 C 102.625 84.667,102.921 85.994,103.083 87.216 L 103.189 88.016 104.136 87.966 L 105.083 87.917 105.139 87.083 C 105.226 85.775,104.455 82.933,103.764 82.020 C 103.669 81.894,103.578 81.032,103.563 80.104 C 103.532 78.239,103.084 75.958,102.541 74.905 C 102.450 74.728,102.203 74.246,101.992 73.833 C 100.425 70.769,96.700 68.058,93.417 67.592 C 92.480 67.459,92.163 67.288,91.240 66.418 C 90.885 66.084,90.386 65.687,90.131 65.536 C 89.876 65.385,89.667 65.203,89.667 65.131 C 89.667 65.059,89.560 65.000,89.431 65.000 C 89.301 65.000,89.169 64.935,89.139 64.855 C 89.062 64.653,85.170 62.345,84.708 62.227 C 84.113 62.074,84.272 61.782,85.186 61.349 C 87.195 60.399,88.954 58.681,89.803 56.841 C 91.093 54.045,90.914 50.196,89.356 47.216 C 88.873 46.293,88.848 46.143,88.790 43.833 C 88.656 38.484,86.604 34.403,83.007 32.326 C 82.426 31.991,81.935 31.572,81.831 31.325 C 80.433 27.976,74.215 27.381,71.333 30.320 C 70.921 30.740,70.396 31.170,70.167 31.275 C 67.858 32.332,66.951 32.918,65.448 34.323 C 63.658 35.995,61.167 40.636,61.167 42.297 C 61.167 42.420,60.710 42.980,60.151 43.542 C 56.469 47.248,55.946 52.221,58.769 56.688 L 59.467 57.793 57.025 57.895 C 54.638 57.995,53.182 58.142,51.333 58.471 C 50.638 58.595,50.356 58.584,50.167 58.423 C 48.445 56.966,43.906 56.002,41.083 56.495 C 39.344 56.798,36.556 56.417,36.397 55.854 C 36.183 55.090,35.056 53.152,34.405 52.427 C 33.948 51.918,33.667 51.446,33.667 51.188 C 33.667 50.232,32.512 46.866,32.125 46.694 C 32.056 46.664,32.000 46.548,32.000 46.437 C 32.000 46.090,30.130 44.245,29.133 43.607 L 28.182 43.000 28.268 42.125 C 28.315 41.644,28.464 40.537,28.598 39.667 C 28.732 38.796,28.922 37.558,29.020 36.917 C 29.119 36.275,29.298 35.188,29.419 34.500 C 29.539 33.813,29.726 32.650,29.832 31.917 C 29.939 31.183,30.095 30.223,30.180 29.783 C 30.720 26.973,29.674 25.500,27.140 25.500 C 25.294 25.500,23.594 26.940,23.096 28.925 C 22.961 29.464,23.273 29.998,20.295 24.138 C 18.504 20.614,17.778 19.969,15.896 20.227 C 15.398 20.295,15.016 20.230,14.527 19.994 C 13.630 19.561,12.443 19.572,11.534 20.021 M13.567 21.856 C 14.038 22.071,14.090 22.171,15.479 25.500 C 17.749 30.944,18.274 32.083,18.510 32.083 C 18.967 32.083,18.708 31.253,16.947 27.085 C 15.009 22.495,14.986 22.333,16.264 22.333 C 16.951 22.333,17.030 22.447,18.872 26.083 C 19.661 27.642,20.899 30.052,21.624 31.440 L 22.941 33.964 22.551 34.732 C 22.336 35.154,22.218 35.497,22.288 35.493 C 22.763 35.469,24.329 32.400,24.835 30.503 C 25.435 28.252,26.557 27.251,27.903 27.768 C 28.271 27.909,28.251 28.154,27.490 32.882 C 26.634 38.200,26.548 38.775,26.350 40.518 C 26.261 41.305,26.029 42.420,25.835 42.995 L 25.482 44.042 25.851 45.646 C 26.053 46.528,26.269 47.700,26.330 48.250 L 26.441 49.250 26.915 48.257 C 27.369 47.307,27.381 47.218,27.203 46.179 C 26.969 44.812,26.977 44.807,28.119 45.595 C 32.287 48.472,32.893 55.234,29.285 58.609 C 23.615 63.913,15.000 60.000,15.000 52.122 C 15.000 48.753,16.755 46.839,17.413 49.490 C 18.021 51.937,18.659 52.667,20.189 52.667 C 21.189 52.667,21.580 52.320,20.844 52.087 C 20.124 51.858,19.566 50.931,19.197 49.349 L 18.839 47.812 19.189 47.339 C 19.615 46.762,19.464 46.432,18.833 46.558 C 16.842 46.957,14.849 44.329,11.961 37.500 C 9.224 31.026,8.791 27.192,10.887 27.989 C 11.451 28.203,11.764 28.840,12.090 30.440 C 12.693 33.404,13.917 35.816,14.514 35.219 C 14.615 35.119,14.439 34.597,14.036 33.801 C 13.686 33.108,13.264 31.950,13.099 31.229 C 12.518 28.689,12.442 28.457,12.025 27.961 C 11.794 27.687,11.285 27.325,10.895 27.157 C 9.749 26.666,9.667 25.002,10.778 24.785 C 11.862 24.574,12.483 25.352,13.345 28.000 C 13.797 29.388,15.016 32.063,15.685 33.135 C 15.981 33.609,16.500 33.619,16.500 33.151 C 16.500 32.959,16.359 32.602,16.188 32.359 C 15.567 31.480,14.694 29.546,14.091 27.716 C 13.753 26.688,13.297 25.601,13.077 25.299 C 12.857 24.997,12.559 24.589,12.415 24.393 C 11.783 23.535,11.900 22.125,12.625 21.860 C 12.877 21.768,13.099 21.687,13.117 21.680 C 13.136 21.673,13.338 21.752,13.567 21.856 M77.840 30.767 C 79.147 31.156,80.698 32.833,79.750 32.833 C 79.612 32.833,79.500 32.908,79.500 33.000 C 79.500 33.092,79.586 33.167,79.691 33.167 C 81.437 33.167,84.768 36.345,85.804 39.000 C 86.646 41.157,87.029 45.781,86.394 46.136 C 86.158 46.268,86.213 46.409,86.813 47.204 C 90.837 52.534,88.336 58.545,81.208 60.672 C 79.570 61.161,79.691 61.492,81.508 61.498 C 83.037 61.502,83.075 62.665,81.578 63.682 L 81.083 64.018 82.000 63.916 C 83.109 63.793,84.686 64.484,87.385 66.278 C 93.612 70.416,97.609 77.700,94.973 80.106 C 92.521 82.343,81.826 81.963,68.000 79.148 C 64.055 78.344,58.413 76.629,55.292 75.283 C 54.734 75.042,54.734 75.130,55.283 73.547 C 56.558 69.872,55.564 64.453,53.047 61.366 C 52.325 60.480,52.279 60.520,54.362 60.241 C 59.840 59.509,61.320 59.682,63.798 61.347 C 65.697 62.623,66.630 62.920,65.719 61.958 C 64.291 60.449,64.677 59.842,66.750 60.337 C 68.948 60.862,69.537 60.754,67.750 60.153 C 62.518 58.395,59.820 55.887,59.154 52.158 C 58.542 48.738,60.564 44.998,63.708 43.735 C 64.625 43.366,64.687 43.234,64.014 43.086 C 63.370 42.945,63.309 42.715,63.608 41.571 C 64.730 37.271,68.316 33.813,72.791 32.713 C 74.109 32.390,74.265 32.251,73.500 32.083 C 72.914 31.955,72.881 31.826,73.329 31.420 C 74.223 30.612,76.302 30.311,77.840 30.767 M72.446 39.288 C 69.950 39.659,69.103 45.611,71.331 47.125 C 73.443 48.560,75.781 46.797,75.967 43.630 C 76.148 40.541,74.843 38.931,72.446 39.288 M74.323 40.648 C 75.871 41.749,75.880 44.844,74.341 46.492 C 73.724 47.152,73.340 47.154,73.895 46.495 C 75.390 44.719,74.545 41.260,72.690 41.561 C 71.892 41.690,71.705 41.916,72.066 42.314 C 72.707 43.022,72.084 44.341,71.330 43.870 C 70.877 43.587,70.757 43.907,70.888 45.052 C 70.963 45.708,70.944 45.842,70.809 45.609 C 69.323 43.028,72.120 39.080,74.323 40.648 M80.302 40.913 C 78.330 42.254,77.964 47.095,79.746 48.263 C 81.810 49.615,84.178 47.752,84.445 44.566 C 84.716 41.339,82.522 39.405,80.302 40.913 M82.940 41.795 C 84.262 42.861,84.133 46.051,82.709 47.542 C 82.100 48.178,81.894 48.116,82.403 47.450 C 83.691 45.760,83.059 42.667,81.426 42.667 C 80.623 42.667,80.183 43.040,80.551 43.408 C 81.216 44.073,80.540 45.556,79.854 44.935 C 79.301 44.435,79.135 45.644,79.582 46.917 C 79.783 47.490,79.783 47.539,79.582 47.269 C 77.711 44.763,80.660 39.956,82.940 41.795 M68.657 49.912 C 68.222 50.148,67.775 50.886,67.956 51.067 C 68.140 51.251,68.310 51.169,68.412 50.849 C 68.467 50.674,68.814 50.411,69.182 50.264 C 69.549 50.116,69.805 49.922,69.749 49.831 C 69.608 49.604,69.164 49.636,68.657 49.912 M69.111 50.611 C 68.711 51.012,69.926 52.000,70.819 52.000 C 70.915 52.000,71.563 52.520,72.260 53.155 C 74.972 55.626,77.664 55.877,80.250 53.898 C 81.409 53.012,83.043 52.212,83.134 52.487 C 83.248 52.828,83.500 52.482,83.500 51.985 C 83.500 51.400,83.080 51.160,82.779 51.572 C 81.672 53.085,73.836 52.618,70.094 50.816 C 69.371 50.468,69.274 50.448,69.111 50.611 M77.478 53.280 C 79.644 53.382,79.696 53.393,79.321 53.676 C 78.011 54.664,75.456 54.541,73.825 53.411 C 72.917 52.782,72.997 52.686,74.208 52.949 C 74.781 53.074,76.253 53.223,77.478 53.280 M33.998 55.746 C 36.477 61.187,33.409 67.807,27.867 68.980 C 23.235 69.960,18.140 66.770,16.900 62.112 C 16.509 60.644,16.546 60.615,17.756 61.427 C 23.218 65.089,31.648 61.993,33.324 55.708 C 33.559 54.829,33.581 54.830,33.998 55.746 M46.045 58.912 C 53.403 61.143,56.285 70.096,51.624 76.250 C 48.479 80.403,43.055 82.088,38.739 80.251 L 38.083 79.972 39.341 79.605 C 41.195 79.063,42.438 78.367,44.140 76.917 C 48.824 72.926,48.989 64.302,44.469 59.782 L 43.138 58.451 44.194 58.561 C 44.775 58.621,45.608 58.779,46.045 58.912 M41.209 59.790 C 49.916 64.317,45.660 78.406,35.719 77.963 C 32.859 77.836,29.725 76.504,31.702 76.256 C 39.585 75.268,44.097 66.209,39.845 59.908 C 39.079 58.773,39.228 58.760,41.209 59.790 M38.603 61.705 C 42.876 70.135,32.216 78.143,24.782 72.088 C 23.524 71.063,23.531 71.056,25.792 71.071 C 31.952 71.110,36.792 66.384,36.840 60.281 L 36.847 59.417 37.525 60.167 C 37.898 60.579,38.383 61.271,38.603 61.705 M97.921 72.213 C 102.210 76.036,102.511 82.790,98.580 86.961 L 97.679 87.917 97.667 87.083 C 97.648 85.776,97.246 84.202,96.618 82.977 L 96.041 81.853 96.415 81.501 C 98.525 79.519,98.135 75.589,95.423 71.510 C 95.007 70.884,94.667 70.322,94.667 70.260 C 94.667 70.001,97.029 71.418,97.921 72.213 " stroke="none" fill="#050505" fill-rule="evenodd"></path><path id="path2" d="M12.333 22.167 C 11.812 22.688,12.006 23.836,12.754 24.667 C 13.274 25.243,13.710 26.171,14.243 27.833 C 14.708 29.284,15.462 30.977,16.261 32.364 C 16.719 33.159,16.716 33.667,16.253 33.667 C 15.707 33.667,14.055 30.539,13.230 27.945 C 12.465 25.539,11.748 24.651,10.767 24.897 C 9.754 25.152,9.851 26.872,10.889 27.067 C 11.924 27.261,12.543 28.186,12.933 30.118 C 13.266 31.768,13.540 32.591,14.166 33.831 C 14.723 34.935,14.778 35.255,14.433 35.387 C 14.057 35.532,13.725 35.161,13.116 33.917 C 12.583 32.828,12.305 31.920,11.816 29.676 C 11.360 27.585,9.661 27.338,9.670 29.364 C 9.682 32.397,13.559 41.935,16.013 44.967 C 16.925 46.095,17.645 46.500,18.734 46.500 C 19.597 46.500,19.696 46.700,19.227 47.494 C 18.973 47.924,18.974 48.044,19.240 49.187 C 19.664 51.007,19.782 51.233,20.608 51.815 C 21.503 52.446,21.389 52.833,20.308 52.833 C 18.652 52.833,17.672 51.664,17.254 49.190 C 17.160 48.632,16.710 48.167,16.265 48.167 C 16.114 48.167,15.309 50.249,15.161 51.022 C 14.710 53.378,15.897 56.919,17.764 58.786 C 22.102 63.124,30.264 60.532,31.503 54.424 C 32.150 51.235,30.243 46.749,27.676 45.422 L 27.133 45.141 27.250 45.832 C 27.449 47.013,27.381 47.661,26.975 48.450 C 26.442 49.485,26.270 49.385,26.133 47.962 C 26.068 47.295,25.875 46.135,25.703 45.384 L 25.391 44.019 25.766 42.801 C 25.973 42.131,26.228 40.833,26.335 39.917 C 26.441 39.000,26.706 37.162,26.924 35.833 C 28.343 27.191,28.291 27.924,27.504 27.751 C 26.376 27.503,25.622 28.349,24.847 30.733 C 24.146 32.891,23.472 34.306,22.777 35.083 C 22.096 35.845,21.944 35.573,22.500 34.584 L 22.833 33.990 21.052 30.537 C 16.480 21.673,16.767 22.113,15.822 22.505 C 15.175 22.773,15.102 22.509,17.177 27.417 C 19.018 31.771,19.102 32.057,18.561 32.134 C 18.253 32.178,18.101 31.934,17.416 30.301 C 16.981 29.264,16.493 28.117,16.331 27.750 C 16.169 27.383,15.571 25.976,15.002 24.622 C 14.404 23.200,13.838 22.092,13.661 21.997 C 13.183 21.741,12.697 21.803,12.333 22.167 M74.673 30.862 C 73.406 31.226,72.844 31.894,73.667 32.058 C 74.476 32.220,74.248 32.445,72.958 32.754 C 68.508 33.820,64.917 37.206,63.738 41.448 C 63.401 42.658,63.471 42.931,64.155 43.081 C 64.893 43.243,64.801 43.368,63.542 43.913 C 60.264 45.332,58.394 49.474,59.433 53.011 C 60.393 56.281,62.952 58.456,67.667 60.010 C 70.320 60.884,69.988 61.112,66.991 60.474 C 64.794 60.006,64.407 60.342,65.609 61.674 C 66.869 63.067,65.642 62.854,63.562 61.317 C 61.619 59.882,59.909 59.676,54.899 60.275 L 52.548 60.556 53.199 61.403 C 55.834 64.829,56.666 69.813,55.270 73.807 L 54.861 74.980 56.139 75.514 C 59.108 76.753,64.186 78.274,67.750 78.991 C 68.117 79.065,69.204 79.284,70.167 79.478 C 81.813 81.826,92.614 82.101,94.808 80.106 C 97.974 77.225,92.394 68.744,84.750 64.819 C 83.180 64.013,83.028 63.968,82.125 64.049 C 80.985 64.151,80.975 64.126,81.833 63.333 C 82.956 62.297,82.813 61.737,81.399 61.624 C 79.795 61.495,79.361 60.683,80.886 60.664 C 81.809 60.653,85.120 59.004,86.198 58.019 C 89.132 55.337,89.284 50.200,86.523 46.975 C 85.991 46.353,85.963 46.272,86.219 46.085 C 86.602 45.806,86.615 42.357,86.240 40.719 C 85.476 37.381,83.171 34.589,80.262 33.476 C 79.309 33.111,79.145 32.941,79.583 32.773 C 80.006 32.611,79.864 32.219,79.168 31.623 C 78.110 30.718,76.265 30.405,74.673 30.862 M74.490 39.495 C 77.521 41.041,76.155 47.880,72.864 47.634 C 70.581 47.464,69.481 45.642,69.981 42.860 C 70.536 39.773,72.363 38.410,74.490 39.495 M72.333 40.452 C 71.468 40.770,70.658 42.317,70.693 43.583 C 70.707 44.063,70.746 44.222,70.786 43.958 C 70.856 43.493,71.063 43.364,71.250 43.667 C 71.447 43.985,72.006 43.836,72.199 43.413 C 72.361 43.057,72.334 42.917,72.029 42.503 C 71.572 41.885,71.564 41.920,72.218 41.610 C 74.100 40.716,75.523 43.668,74.334 45.999 C 74.057 46.543,74.026 46.686,74.222 46.523 C 76.621 44.532,75.042 39.456,72.333 40.452 M83.184 40.710 C 85.406 42.187,84.773 47.629,82.267 48.586 C 80.174 49.385,78.498 47.920,78.502 45.293 C 78.507 41.639,80.964 39.234,83.184 40.710 M80.737 41.737 C 79.818 42.137,79.091 43.889,79.209 45.419 L 79.273 46.250 79.303 45.375 C 79.332 44.528,79.530 44.237,79.727 44.750 C 79.863 45.106,80.456 45.060,80.661 44.678 C 80.920 44.194,80.871 43.871,80.482 43.482 C 80.044 43.044,80.301 42.705,81.178 42.563 C 82.819 42.296,83.792 45.041,82.771 47.058 C 82.244 48.099,82.649 47.742,83.252 46.634 C 84.767 43.850,83.143 40.689,80.737 41.737 M210.333 46.524 C 203.942 47.177,199.554 48.706,194.917 51.897 C 190.016 55.268,187.167 60.161,187.167 65.204 C 187.167 68.968,188.942 71.230,193.667 73.489 C 194.173 73.731,196.784 74.468,197.917 74.689 C 199.338 74.966,206.657 74.978,208.417 74.706 C 209.058 74.607,210.258 74.436,211.083 74.326 C 213.592 73.993,213.485 74.049,213.951 72.828 C 214.178 72.235,214.432 71.600,214.515 71.417 C 214.598 71.233,214.845 70.596,215.064 70.000 C 215.283 69.404,215.737 68.204,216.071 67.333 C 216.785 65.474,216.801 65.414,216.583 65.425 C 216.251 65.441,214.724 65.690,213.583 65.913 C 207.966 67.012,204.324 66.302,202.729 63.795 C 201.113 61.256,204.571 56.391,208.750 55.324 C 209.025 55.254,209.813 55.042,210.500 54.852 C 214.230 53.824,218.427 54.817,219.227 56.916 C 219.366 57.280,219.988 56.700,219.996 56.198 C 220.000 55.997,220.640 54.480,221.010 53.794 C 221.096 53.635,221.167 53.431,221.167 53.340 C 221.167 53.250,221.362 52.742,221.601 52.213 C 221.839 51.683,222.110 51.063,222.201 50.833 C 222.364 50.428,222.565 49.945,222.997 48.917 C 223.113 48.642,223.311 48.218,223.437 47.974 C 223.747 47.378,223.760 47.400,222.958 47.197 C 219.978 46.443,214.164 46.133,210.333 46.524 M119.875 48.042 C 119.678 48.615,119.285 49.683,119.002 50.417 C 118.719 51.150,118.256 52.387,117.974 53.167 C 117.692 53.946,117.253 55.146,116.998 55.833 C 116.197 57.994,115.385 60.218,115.082 61.083 C 114.921 61.542,114.724 62.048,114.644 62.208 C 114.564 62.367,114.309 63.080,114.079 63.791 C 113.848 64.502,113.580 65.223,113.483 65.393 C 113.387 65.563,113.172 66.126,113.005 66.643 C 112.839 67.160,112.610 67.808,112.497 68.083 C 112.384 68.358,112.230 68.733,112.154 68.917 C 112.079 69.100,111.908 69.587,111.774 70.000 C 111.641 70.412,111.456 70.938,111.363 71.167 C 111.270 71.396,111.139 71.733,111.073 71.917 C 110.311 74.022,110.168 74.422,110.167 74.458 C 110.167 74.481,112.902 74.500,116.246 74.500 L 122.325 74.500 122.560 74.042 C 122.689 73.790,122.912 73.246,123.056 72.833 C 123.199 72.421,123.517 71.558,123.761 70.917 C 124.005 70.275,124.244 69.563,124.292 69.333 C 124.339 69.104,124.438 68.840,124.512 68.746 C 124.585 68.652,124.768 68.202,124.917 67.746 C 125.067 67.290,125.288 66.692,125.409 66.417 C 125.530 66.142,125.793 65.429,125.995 64.833 C 126.196 64.237,126.467 63.514,126.597 63.225 C 126.727 62.936,126.833 62.592,126.833 62.461 C 126.833 62.330,126.885 62.171,126.948 62.108 C 127.062 61.994,127.290 61.404,127.764 60.000 C 127.903 59.587,128.079 59.100,128.155 58.917 C 128.478 58.140,128.835 57.201,129.076 56.500 L 129.334 55.750 129.245 57.333 C 129.102 59.903,128.647 65.758,128.163 71.269 C 128.073 72.287,128.000 73.432,128.000 73.813 L 128.000 74.505 133.440 74.461 C 138.684 74.418,138.887 74.405,139.065 74.083 C 139.167 73.900,139.293 73.712,139.346 73.667 C 139.399 73.621,139.584 73.340,139.757 73.042 C 139.930 72.744,140.131 72.500,140.203 72.500 C 140.275 72.500,140.333 72.425,140.333 72.334 C 140.333 72.243,140.692 71.661,141.131 71.042 C 141.570 70.423,142.077 69.675,142.256 69.380 C 142.436 69.084,143.483 67.526,144.583 65.917 C 145.683 64.308,146.771 62.697,147.000 62.337 C 147.855 60.992,151.033 56.333,151.095 56.333 C 151.130 56.333,151.094 56.502,151.015 56.708 C 150.292 58.579,150.192 58.848,149.754 60.083 C 149.592 60.542,149.251 61.479,148.996 62.167 C 148.742 62.854,148.273 64.129,147.953 65.000 C 147.634 65.871,147.173 67.108,146.929 67.750 C 146.685 68.392,146.255 69.554,145.973 70.333 C 145.024 72.960,144.504 74.416,144.502 74.458 C 144.501 74.481,147.267 74.500,150.649 74.500 L 156.799 74.500 157.381 72.958 C 157.701 72.110,158.239 70.667,158.577 69.750 C 158.914 68.833,159.290 67.821,159.413 67.500 C 159.536 67.179,159.800 66.467,160.000 65.917 C 160.359 64.930,160.530 64.473,161.089 63.000 C 161.246 62.587,161.656 61.462,162.001 60.500 C 162.346 59.538,162.828 58.225,163.072 57.583 C 163.316 56.942,163.629 56.079,163.767 55.667 C 163.904 55.254,164.079 54.767,164.154 54.583 C 164.584 53.543,164.722 53.178,164.944 52.500 C 165.079 52.087,165.297 51.514,165.428 51.225 C 165.559 50.936,165.667 50.592,165.667 50.461 C 165.667 50.330,165.717 50.171,165.780 50.109 C 165.901 49.988,166.630 47.996,166.781 47.375 L 166.872 47.000 157.394 47.006 L 147.917 47.012 145.500 50.699 C 144.171 52.727,142.728 54.918,142.294 55.568 C 141.860 56.218,141.431 56.862,141.340 57.000 C 141.250 57.137,140.836 57.753,140.421 58.368 C 140.006 58.982,139.667 59.527,139.667 59.577 C 139.667 59.628,139.443 59.978,139.170 60.355 L 138.674 61.040 138.760 59.645 C 138.807 58.878,138.928 57.395,139.029 56.351 C 139.496 51.500,139.285 49.084,138.300 47.991 C 137.358 46.944,137.898 47.000,128.662 47.000 L 120.232 47.000 119.875 48.042 M174.077 47.542 C 174.013 47.840,173.914 48.158,173.857 48.250 C 173.743 48.432,173.465 49.165,173.067 50.333 C 172.926 50.746,172.703 51.320,172.572 51.609 C 172.441 51.897,172.333 52.239,172.333 52.367 C 172.333 52.495,172.274 52.671,172.201 52.758 C 172.128 52.845,171.973 53.217,171.857 53.583 C 171.670 54.175,171.421 54.849,170.993 55.917 C 170.920 56.100,170.660 56.813,170.415 57.500 C 170.171 58.188,169.854 59.050,169.711 59.417 C 169.451 60.083,168.989 61.339,168.026 64.000 C 167.744 64.779,167.282 66.017,167.000 66.750 C 166.718 67.483,166.256 68.721,165.974 69.500 C 165.692 70.279,165.238 71.517,164.965 72.250 C 164.691 72.983,164.429 73.790,164.381 74.044 L 164.295 74.504 171.015 74.460 L 177.736 74.417 178.187 73.167 C 178.435 72.479,178.837 71.392,179.081 70.750 C 179.325 70.108,179.587 69.396,179.664 69.167 C 179.740 68.938,180.001 68.225,180.243 67.583 C 180.485 66.942,180.797 66.079,180.936 65.667 C 181.075 65.254,181.290 64.692,181.413 64.417 C 181.536 64.142,181.824 63.353,182.054 62.665 C 182.283 61.976,182.562 61.188,182.673 60.915 C 182.784 60.641,182.932 60.267,183.001 60.083 C 183.070 59.900,183.243 59.450,183.386 59.083 C 183.528 58.717,183.846 57.854,184.092 57.167 C 184.337 56.479,184.759 55.317,185.029 54.583 C 185.299 53.850,185.583 53.063,185.661 52.833 C 185.739 52.604,186.003 51.892,186.247 51.250 C 186.491 50.608,186.753 49.896,186.829 49.667 C 186.906 49.438,187.162 48.744,187.399 48.125 L 187.830 47.000 181.012 47.000 L 174.193 47.000 174.077 47.542 M229.830 47.708 C 229.707 48.098,229.551 48.492,229.483 48.585 C 229.414 48.678,229.176 49.278,228.952 49.918 C 228.159 52.188,227.829 53.101,227.448 54.083 C 227.305 54.450,227.029 55.200,226.834 55.750 C 226.181 57.594,224.045 63.416,223.714 64.250 C 223.446 64.930,222.777 66.752,222.246 68.250 C 221.810 69.480,221.729 69.700,221.503 70.250 C 221.390 70.525,221.163 71.162,220.998 71.667 C 220.834 72.171,220.542 72.946,220.350 73.389 C 220.157 73.832,220.000 74.263,220.000 74.347 C 220.000 74.437,222.630 74.500,226.399 74.500 L 232.799 74.500 233.409 72.875 C 233.745 71.981,234.090 71.120,234.176 70.961 C 234.263 70.801,234.334 70.576,234.334 70.461 C 234.335 70.345,234.431 70.063,234.548 69.833 C 234.665 69.604,234.868 69.079,235.000 68.667 C 235.132 68.254,235.335 67.729,235.452 67.500 C 235.569 67.271,235.665 66.989,235.666 66.873 C 235.666 66.757,235.734 66.532,235.815 66.373 C 235.897 66.214,236.046 65.877,236.145 65.625 L 236.326 65.167 239.480 65.167 L 242.635 65.167 242.306 66.125 C 242.125 66.652,241.916 67.233,241.842 67.417 C 241.769 67.600,241.617 67.975,241.505 68.250 C 241.393 68.525,241.191 69.087,241.056 69.500 C 240.921 69.912,240.712 70.475,240.591 70.750 C 240.470 71.025,240.209 71.737,240.011 72.333 C 239.813 72.929,239.579 73.547,239.492 73.706 C 239.045 74.521,238.878 74.500,245.739 74.500 L 252.144 74.500 252.248 74.125 C 252.340 73.794,252.563 73.194,253.006 72.083 C 253.079 71.900,253.214 71.525,253.305 71.250 C 253.616 70.314,254.500 67.918,254.659 67.583 C 254.745 67.400,254.929 66.912,255.067 66.500 C 255.204 66.087,255.515 65.225,255.757 64.583 C 255.999 63.942,256.260 63.229,256.336 63.000 C 256.413 62.771,256.675 62.058,256.918 61.417 C 257.162 60.775,257.610 59.575,257.914 58.750 C 258.218 57.925,258.689 56.650,258.962 55.917 C 259.234 55.183,259.658 54.021,259.904 53.333 C 260.149 52.646,260.454 51.821,260.580 51.500 C 260.991 50.457,261.973 47.760,262.083 47.373 L 262.190 46.996 255.749 47.040 L 249.308 47.083 249.005 47.917 C 248.582 49.081,247.632 51.652,247.005 53.333 C 246.714 54.112,246.325 55.181,246.140 55.708 L 245.803 56.667 242.651 56.667 C 240.918 56.667,239.500 56.641,239.500 56.610 C 239.500 56.527,240.418 53.930,240.923 52.583 C 241.302 51.575,241.831 50.144,242.756 47.625 L 242.985 47.000 236.519 47.000 L 230.053 47.000 229.830 47.708 M269.106 47.714 C 268.956 48.107,268.833 48.542,268.833 48.681 C 268.833 48.820,268.769 49.005,268.689 49.092 C 268.610 49.179,268.344 49.850,268.098 50.583 C 267.852 51.317,267.574 52.056,267.479 52.226 C 267.385 52.397,267.172 52.959,267.005 53.476 C 266.839 53.994,266.610 54.642,266.497 54.917 C 266.384 55.192,266.230 55.567,266.154 55.750 C 266.079 55.933,265.908 56.421,265.774 56.833 C 265.641 57.246,265.440 57.808,265.328 58.083 C 265.116 58.605,265.019 58.865,264.677 59.833 C 264.263 61.002,263.361 63.445,262.924 64.583 C 262.677 65.225,262.413 65.938,262.336 66.167 C 262.260 66.396,261.999 67.108,261.758 67.750 C 260.917 69.988,259.333 74.353,259.333 74.435 C 259.333 74.704,287.518 74.477,287.604 74.208 C 287.723 73.839,288.294 72.265,288.587 71.500 C 289.356 69.490,290.002 67.687,290.095 67.292 L 290.203 66.833 282.485 66.833 C 276.482 66.833,274.811 66.789,274.967 66.633 C 275.077 66.523,275.167 66.297,275.167 66.131 C 275.167 65.965,275.240 65.699,275.329 65.539 C 275.418 65.380,275.602 64.969,275.737 64.625 L 275.983 64.000 283.133 64.000 L 290.283 64.000 290.547 63.375 C 290.693 63.031,290.971 62.300,291.166 61.750 C 291.360 61.200,291.783 60.038,292.105 59.167 C 292.427 58.296,292.731 57.452,292.781 57.292 C 292.867 57.017,292.454 57.000,285.703 57.000 L 278.534 57.000 278.994 55.708 L 279.454 54.417 287.050 54.373 L 294.645 54.330 294.753 53.957 C 294.866 53.567,295.552 51.697,296.570 49.000 C 296.899 48.129,297.167 47.323,297.167 47.208 C 297.167 47.043,294.276 47.000,283.273 47.000 L 269.379 47.000 269.106 47.714 M304.270 47.134 C 304.224 47.208,304.005 47.790,303.782 48.426 C 303.559 49.063,303.176 50.108,302.930 50.750 C 302.685 51.392,302.371 52.254,302.233 52.667 C 302.096 53.079,301.921 53.567,301.846 53.750 C 301.416 54.790,301.278 55.155,301.056 55.833 C 300.921 56.246,300.712 56.808,300.591 57.083 C 300.470 57.358,300.207 58.071,300.005 58.667 C 299.804 59.262,299.533 59.986,299.403 60.275 C 299.273 60.564,299.167 60.908,299.167 61.039 C 299.167 61.170,299.115 61.329,299.052 61.392 C 298.938 61.506,298.710 62.096,298.236 63.500 C 298.097 63.913,297.921 64.400,297.846 64.583 C 297.770 64.767,297.616 65.142,297.503 65.417 C 297.390 65.692,297.164 66.329,297.000 66.833 C 296.836 67.337,296.610 67.975,296.497 68.250 C 296.384 68.525,296.230 68.900,296.154 69.083 C 296.079 69.267,295.904 69.754,295.767 70.167 C 295.529 70.878,294.920 72.530,294.518 73.553 C 294.117 74.572,293.141 74.500,307.307 74.500 L 320.280 74.500 320.489 74.042 C 320.604 73.790,320.809 73.246,320.944 72.833 C 321.079 72.421,321.297 71.847,321.428 71.558 C 321.559 71.269,321.667 70.928,321.667 70.800 C 321.667 70.672,321.726 70.495,321.799 70.408 C 321.872 70.321,322.027 69.950,322.143 69.583 C 322.329 68.996,322.501 68.528,323.004 67.250 C 323.406 66.231,323.667 65.474,323.667 65.330 C 323.667 65.226,321.328 65.167,317.250 65.167 C 313.721 65.167,310.833 65.147,310.833 65.123 C 310.833 65.098,310.989 64.667,311.179 64.164 C 311.369 63.661,311.588 63.063,311.664 62.833 C 311.741 62.604,312.000 61.892,312.242 61.250 C 312.726 59.962,313.014 59.185,313.882 56.833 C 314.203 55.962,314.702 54.612,314.990 53.833 C 315.279 53.054,315.627 52.079,315.766 51.667 C 315.904 51.254,316.079 50.767,316.155 50.583 C 316.491 49.773,316.829 48.866,317.024 48.250 C 317.140 47.883,317.294 47.512,317.367 47.425 C 317.440 47.338,317.500 47.207,317.500 47.133 C 317.500 46.958,304.378 46.959,304.270 47.134 M335.167 47.044 C 335.167 47.068,335.013 47.499,334.825 48.002 C 334.637 48.505,334.370 49.254,334.233 49.667 C 334.096 50.079,333.921 50.567,333.845 50.750 C 333.536 51.496,333.060 52.749,332.677 53.833 C 332.306 54.879,331.382 57.390,330.929 58.583 C 330.685 59.225,330.269 60.350,330.004 61.083 C 329.739 61.817,329.284 63.054,328.994 63.833 C 328.065 66.328,327.370 68.227,327.075 69.083 C 326.917 69.542,326.699 70.104,326.590 70.333 C 326.481 70.563,326.290 71.087,326.167 71.500 C 326.043 71.912,325.880 72.321,325.804 72.408 C 325.729 72.495,325.664 72.720,325.661 72.908 C 325.658 73.096,325.546 73.396,325.411 73.574 C 324.689 74.529,324.533 74.508,331.932 74.460 L 338.697 74.417 339.106 73.250 C 339.331 72.608,339.580 71.896,339.659 71.667 C 339.738 71.438,340.001 70.725,340.242 70.083 C 340.483 69.442,340.858 68.429,341.076 67.833 C 341.724 66.058,342.610 63.661,343.078 62.417 C 343.319 61.775,343.628 60.913,343.764 60.500 C 343.899 60.087,344.083 59.620,344.172 59.461 C 344.261 59.301,344.333 59.025,344.333 58.845 C 344.333 58.666,344.401 58.478,344.485 58.426 C 344.568 58.375,344.771 57.902,344.935 57.375 C 345.100 56.848,345.331 56.229,345.450 56.000 C 345.568 55.771,345.665 55.467,345.666 55.325 C 345.666 55.183,345.726 54.995,345.799 54.908 C 345.872 54.821,346.027 54.450,346.143 54.083 C 346.330 53.493,346.568 52.848,347.006 51.750 C 347.079 51.567,347.214 51.192,347.306 50.917 C 347.398 50.642,347.741 49.677,348.070 48.773 C 348.398 47.869,348.667 47.100,348.667 47.065 C 348.667 47.029,345.629 47.000,341.917 47.000 C 338.204 47.000,335.167 47.020,335.167 47.044 M356.275 47.126 C 356.232 47.195,356.010 47.777,355.781 48.418 C 355.552 49.059,355.164 50.108,354.920 50.750 C 354.676 51.392,354.413 52.104,354.336 52.333 C 354.260 52.563,353.999 53.275,353.757 53.917 C 353.515 54.558,353.203 55.421,353.064 55.833 C 352.925 56.246,352.710 56.808,352.587 57.083 C 352.464 57.358,352.176 58.147,351.946 58.835 C 351.717 59.524,351.438 60.312,351.327 60.585 C 350.932 61.560,350.855 61.764,350.418 63.000 C 350.175 63.688,349.799 64.700,349.582 65.250 C 349.365 65.800,349.074 66.587,348.935 67.000 C 348.797 67.412,348.485 68.275,348.243 68.917 C 348.001 69.558,347.740 70.271,347.664 70.500 C 347.527 70.908,346.883 72.624,346.518 73.553 C 346.125 74.552,345.825 74.500,351.980 74.500 L 357.626 74.500 357.804 74.042 C 358.410 72.474,359.302 70.079,360.085 67.917 C 360.383 67.092,360.827 65.892,361.071 65.250 C 361.665 63.683,362.162 62.340,362.334 61.833 C 362.412 61.604,362.676 60.892,362.921 60.250 C 363.167 59.608,363.620 58.371,363.929 57.500 L 364.490 55.917 364.408 58.250 C 364.363 59.533,364.254 62.196,364.166 64.167 C 364.078 66.137,363.964 68.912,363.914 70.333 C 363.864 71.754,363.778 73.274,363.723 73.710 L 363.623 74.503 373.158 74.460 L 382.692 74.417 382.995 73.583 C 383.402 72.463,384.347 69.902,384.994 68.167 C 385.284 67.387,385.739 66.150,386.004 65.417 C 386.269 64.683,386.683 63.558,386.924 62.917 C 387.165 62.275,387.586 61.112,387.859 60.333 C 388.132 59.554,388.425 58.767,388.510 58.583 C 388.695 58.186,389.423 56.220,389.776 55.167 C 390.024 54.425,390.099 54.225,390.495 53.250 C 390.607 52.975,390.809 52.413,390.944 52.000 C 391.079 51.587,391.290 51.025,391.413 50.750 C 391.536 50.475,391.834 49.658,392.075 48.935 C 392.316 48.212,392.588 47.480,392.679 47.310 C 392.839 47.011,392.648 47.000,387.105 47.000 L 381.364 47.000 381.071 47.958 C 380.910 48.485,380.725 48.992,380.659 49.083 C 380.594 49.175,380.309 49.925,380.026 50.750 C 379.743 51.575,379.281 52.850,378.999 53.583 C 378.718 54.317,378.256 55.554,377.974 56.333 C 377.692 57.112,377.253 58.313,376.998 59.000 C 376.743 59.688,376.273 60.962,375.953 61.833 C 375.633 62.704,375.279 63.664,375.167 63.967 C 374.823 64.890,374.792 64.475,374.979 61.386 C 375.646 50.373,375.633 49.796,374.688 48.500 C 373.538 46.924,374.053 47.000,364.568 47.000 C 360.050 47.000,356.318 47.057,356.275 47.126 M69.797 49.853 C 69.825 50.000,69.617 50.178,69.271 50.303 C 68.956 50.417,68.575 50.698,68.425 50.927 C 68.133 51.373,67.833 51.335,67.833 50.853 C 67.833 50.079,69.660 49.149,69.797 49.853 M70.133 50.727 C 73.711 52.535,81.467 52.997,82.674 51.474 C 83.149 50.875,83.836 51.539,83.578 52.349 C 83.501 52.593,83.371 52.672,83.142 52.612 C 82.690 52.494,81.521 53.042,80.496 53.852 C 77.750 56.023,74.920 55.784,72.138 53.147 C 71.544 52.584,70.883 52.141,70.364 51.958 C 69.301 51.583,68.745 51.138,68.884 50.776 C 69.012 50.441,69.526 50.421,70.133 50.727 M73.667 53.168 C 74.991 54.297,77.366 54.622,78.792 53.868 C 79.702 53.386,79.783 53.421,77.670 53.388 C 76.089 53.363,74.897 53.219,73.583 52.895 C 73.296 52.824,73.307 52.861,73.667 53.168 M33.444 55.660 C 32.185 61.897,23.506 65.133,17.737 61.517 L 16.663 60.843 16.769 61.296 C 18.883 70.352,30.793 71.897,34.067 63.541 C 35.009 61.137,34.989 58.220,34.016 56.083 L 33.561 55.083 33.444 55.660 M43.979 59.166 C 50.905 64.641,47.964 77.769,39.380 79.689 C 38.280 79.936,38.279 80.042,39.375 80.411 C 44.722 82.214,51.292 78.699,53.281 72.972 C 55.588 66.332,50.156 58.500,43.245 58.500 C 43.185 58.500,43.516 58.800,43.979 59.166 M40.073 60.114 C 43.232 65.471,41.028 72.489,35.331 75.209 C 33.649 76.012,32.580 76.331,31.551 76.337 L 30.917 76.341 31.321 76.652 C 32.693 77.706,36.591 78.253,38.667 77.683 C 46.724 75.467,48.304 63.424,41.018 59.763 C 39.487 58.993,39.425 59.016,40.073 60.114 M36.932 60.693 C 36.228 67.192,31.792 71.315,25.696 71.138 L 23.795 71.083 24.662 71.859 C 32.586 78.953,44.186 68.284,37.438 60.110 L 37.047 59.636 36.932 60.693 M95.167 70.933 C 95.382 71.291,95.686 71.771,95.842 72.000 C 98.069 75.281,98.460 78.894,96.825 81.098 L 96.196 81.947 96.752 83.051 C 97.286 84.113,97.517 84.964,97.756 86.750 L 97.867 87.583 98.725 86.659 C 103.062 81.986,101.581 73.848,95.846 70.844 L 94.775 70.283 95.167 70.933 M53.336 77.447 C 51.089 80.726,45.286 83.580,41.898 83.072 L 41.167 82.962 41.171 84.189 C 41.175 85.429,41.355 86.534,41.691 87.375 L 41.874 87.833 68.711 87.833 L 95.548 87.833 95.458 86.531 C 95.264 83.697,94.620 82.946,92.667 83.276 C 86.211 84.369,71.678 82.639,61.000 79.506 C 58.987 78.916,56.732 78.124,54.905 77.366 L 53.727 76.877 53.336 77.447 M102.347 84.932 C 102.339 85.032,101.966 85.725,101.516 86.473 L 100.699 87.833 101.871 87.833 L 103.043 87.833 102.927 86.804 C 102.823 85.889,102.382 84.464,102.347 84.932 " stroke="none" fill="#1D1D1B" fill-rule="evenodd"></path><path id="path3" d="M75.960 30.618 C 76.168 30.658,76.468 30.656,76.627 30.615 C 76.786 30.573,76.617 30.540,76.250 30.542 C 75.883 30.544,75.753 30.578,75.960 30.618 M76.050 43.167 C 76.050 43.671,76.081 43.877,76.119 43.625 C 76.158 43.373,76.158 42.960,76.119 42.708 C 76.081 42.456,76.050 42.662,76.050 43.167 M75.379 43.333 C 75.379 43.746,75.411 43.915,75.451 43.708 C 75.491 43.502,75.491 43.165,75.451 42.958 C 75.411 42.752,75.379 42.921,75.379 43.333 M86.558 44.000 C 86.558 44.779,86.587 45.098,86.622 44.708 C 86.657 44.319,86.657 43.681,86.622 43.292 C 86.587 42.902,86.558 43.221,86.558 44.000 M70.512 43.847 C 70.518 44.069,70.591 44.400,70.674 44.583 C 70.780 44.816,70.795 44.715,70.724 44.250 C 70.606 43.476,70.495 43.265,70.512 43.847 M26.205 48.333 C 26.205 48.654,26.240 48.785,26.282 48.625 C 26.323 48.465,26.323 48.202,26.282 48.042 C 26.240 47.881,26.205 48.012,26.205 48.333 M77.625 53.454 C 77.923 53.491,78.410 53.491,78.708 53.454 C 79.006 53.417,78.762 53.387,78.167 53.387 C 77.571 53.387,77.327 53.417,77.625 53.454 M76.377 55.286 C 76.631 55.325,77.006 55.324,77.211 55.284 C 77.416 55.244,77.208 55.213,76.750 55.214 C 76.292 55.216,76.124 55.248,76.377 55.286 M44.583 59.833 C 44.941 60.200,45.272 60.500,45.318 60.500 C 45.363 60.500,45.108 60.200,44.750 59.833 C 44.392 59.467,44.062 59.167,44.016 59.167 C 43.970 59.167,44.225 59.467,44.583 59.833 M59.542 59.948 C 59.702 59.990,59.965 59.990,60.125 59.948 C 60.285 59.906,60.154 59.872,59.833 59.872 C 59.512 59.872,59.381 59.906,59.542 59.948 M43.000 61.250 C 43.311 61.571,43.603 61.833,43.649 61.833 C 43.695 61.833,43.478 61.571,43.167 61.250 C 42.856 60.929,42.564 60.667,42.518 60.667 C 42.472 60.667,42.689 60.929,43.000 61.250 M81.125 61.618 C 81.331 61.657,81.669 61.657,81.875 61.618 C 82.081 61.578,81.912 61.545,81.500 61.545 C 81.087 61.545,80.919 61.578,81.125 61.618 M39.372 65.500 C 39.372 65.821,39.406 65.952,39.448 65.792 C 39.490 65.631,39.490 65.369,39.448 65.208 C 39.406 65.048,39.372 65.179,39.372 65.500 M45.705 67.333 C 45.705 67.654,45.740 67.785,45.782 67.625 C 45.823 67.465,45.823 67.202,45.782 67.042 C 45.740 66.881,45.705 67.012,45.705 67.333 M25.628 69.121 C 25.928 69.158,26.378 69.157,26.628 69.119 C 26.878 69.081,26.633 69.051,26.083 69.052 C 25.533 69.053,25.328 69.084,25.628 69.121 M98.167 72.583 C 98.478 72.904,98.770 73.167,98.815 73.167 C 98.861 73.167,98.644 72.904,98.333 72.583 C 98.022 72.262,97.730 72.000,97.685 72.000 C 97.639 72.000,97.856 72.262,98.167 72.583 M29.708 74.282 C 29.869 74.323,30.131 74.323,30.292 74.282 C 30.452 74.240,30.321 74.205,30.000 74.205 C 29.679 74.205,29.548 74.240,29.708 74.282 M30.875 74.282 C 31.035 74.323,31.298 74.323,31.458 74.282 C 31.619 74.240,31.488 74.205,31.167 74.205 C 30.846 74.205,30.715 74.240,30.875 74.282 M95.709 77.917 C 95.711 78.283,95.745 78.414,95.785 78.206 C 95.824 77.999,95.823 77.699,95.781 77.540 C 95.739 77.380,95.707 77.550,95.709 77.917 M42.042 80.953 C 42.294 80.991,42.706 80.991,42.958 80.953 C 43.210 80.915,43.004 80.883,42.500 80.883 C 41.996 80.883,41.790 80.915,42.042 80.953 M84.875 81.453 C 85.127 81.491,85.540 81.491,85.792 81.453 C 86.044 81.415,85.837 81.383,85.333 81.383 C 84.829 81.383,84.623 81.415,84.875 81.453 M88.877 81.453 C 89.131 81.491,89.506 81.490,89.711 81.451 C 89.916 81.411,89.708 81.380,89.250 81.381 C 88.792 81.382,88.624 81.415,88.877 81.453 M42.294 83.118 C 42.501 83.158,42.801 83.156,42.960 83.115 C 43.120 83.073,42.950 83.040,42.583 83.042 C 42.217 83.044,42.086 83.078,42.294 83.118 M86.875 83.619 C 87.127 83.658,87.540 83.658,87.792 83.619 C 88.044 83.581,87.837 83.550,87.333 83.550 C 86.829 83.550,86.623 83.581,86.875 83.619 M95.500 87.166 L 95.500 87.832 68.625 87.875 L 41.750 87.918 68.708 87.959 L 95.667 88.000 95.667 87.250 C 95.667 86.837,95.629 86.500,95.583 86.500 C 95.537 86.500,95.500 86.800,95.500 87.166 M98.406 87.011 L 97.917 87.521 97.808 87.136 C 97.706 86.772,97.699 86.777,97.683 87.208 C 97.661 87.811,97.818 87.787,98.500 87.083 C 98.811 86.763,99.027 86.500,98.981 86.500 C 98.934 86.500,98.676 86.730,98.406 87.011 M101.129 87.956 C 101.521 87.991,102.121 87.990,102.463 87.954 C 102.804 87.919,102.483 87.890,101.750 87.890 C 101.017 87.891,100.737 87.920,101.129 87.956 " stroke="none" fill="#989898" fill-rule="evenodd"></path><path id="path4" d="M9.542 29.250 C 9.544 29.617,9.578 29.747,9.618 29.540 C 9.658 29.332,9.656 29.032,9.615 28.873 C 9.573 28.714,9.540 28.883,9.542 29.250 M83.417 35.500 C 83.775 35.867,84.105 36.167,84.151 36.167 C 84.197 36.167,83.941 35.867,83.583 35.500 C 83.225 35.133,82.895 34.833,82.849 34.833 C 82.803 34.833,83.059 35.133,83.417 35.500 M81.542 40.448 C 81.702 40.490,81.965 40.490,82.125 40.448 C 82.285 40.406,82.154 40.372,81.833 40.372 C 81.512 40.372,81.381 40.406,81.542 40.448 M29.083 46.500 C 29.441 46.867,29.772 47.167,29.818 47.167 C 29.863 47.167,29.608 46.867,29.250 46.500 C 28.892 46.133,28.562 45.833,28.516 45.833 C 28.470 45.833,28.725 46.133,29.083 46.500 M79.358 46.834 C 79.605 47.540,79.817 47.608,79.599 46.910 C 79.500 46.593,79.366 46.333,79.301 46.333 C 79.237 46.333,79.262 46.558,79.358 46.834 M72.792 47.618 C 72.998 47.657,73.335 47.657,73.542 47.618 C 73.748 47.578,73.579 47.545,73.167 47.545 C 72.754 47.545,72.585 47.578,72.792 47.618 M88.553 52.667 C 88.553 53.262,88.584 53.506,88.621 53.208 C 88.658 52.910,88.658 52.423,88.621 52.125 C 88.584 51.827,88.553 52.071,88.553 52.667 M86.409 57.875 L 85.750 58.583 86.458 57.925 C 87.117 57.312,87.243 57.167,87.117 57.167 C 87.090 57.167,86.771 57.485,86.409 57.875 M58.042 59.953 C 58.294 59.991,58.706 59.991,58.958 59.953 C 59.210 59.915,59.004 59.883,58.500 59.883 C 57.996 59.883,57.790 59.915,58.042 59.953 M50.167 61.219 C 50.167 61.248,50.410 61.491,50.708 61.760 L 51.250 62.250 50.760 61.708 C 50.304 61.203,50.167 61.090,50.167 61.219 M33.406 68.208 L 32.917 68.750 33.458 68.260 C 33.756 67.991,34.000 67.748,34.000 67.719 C 34.000 67.590,33.862 67.703,33.406 68.208 M36.906 71.542 L 36.417 72.083 36.958 71.594 C 37.256 71.325,37.500 71.081,37.500 71.052 C 37.500 70.923,37.362 71.037,36.906 71.542 M50.491 77.458 L 49.917 78.083 50.542 77.509 C 50.885 77.193,51.167 76.912,51.167 76.884 C 51.167 76.757,51.026 76.877,50.491 77.458 M83.627 81.451 C 83.834 81.491,84.134 81.490,84.294 81.448 C 84.453 81.406,84.283 81.374,83.917 81.375 C 83.550 81.377,83.420 81.411,83.627 81.451 M83.208 83.448 C 83.369 83.490,83.631 83.490,83.792 83.448 C 83.952 83.406,83.821 83.372,83.500 83.372 C 83.179 83.372,83.048 83.406,83.208 83.448 M41.048 84.250 C 41.049 84.708,41.081 84.876,41.120 84.623 C 41.158 84.369,41.157 83.994,41.117 83.789 C 41.078 83.584,41.046 83.792,41.048 84.250 " stroke="none" fill="#747474" fill-rule="evenodd"></path></g></svg>