<?xml version="1.0" encoding="utf-8"?>
<!-- Generator: Adobe Illustrator 20.0.0, SVG Export Plug-In . SVG Version: 6.00 Build 0)  -->
<svg version="1.1" id="Layer_1" xmlns="http://www.w3.org/2000/svg" xmlns:xlink="http://www.w3.org/1999/xlink" x="0px" y="0px"
	 viewBox="0 0 358.94 102.07" style="enable-background:new 0 0 358.94 102.07;" xml:space="preserve">
<style type="text/css">
	.st0{display:none;fill:#0C4684;}
	.st1{display:none;fill:#F8DC00;}
	.st2{display:none;fill:#DE222A;}
	.st3{display:none;fill:#004996;}
	.st4{display:none;}
	.st5{display:none;fill:#1D1D1B;}
	.st6{display:none;fill:#005AA9;}
	.st7{display:none;fill:#FFEC00;}
	.st8{display:none;fill:#FDA428;}
	.st9{fill:#FFFFFF;}
	.st10{fill:#ED0000;}
	.st11{fill:#E2231A;}
	.st12{fill:#1D1D1B;}
	.st13{fill:#E20613;}
	.st14{fill:#FFD039;}
	.st15{fill:#FCBD1B;}
	.st16{fill:#FF4C00;}
	.st17{fill:#FFE600;}
	.st18{fill:#231F20;}
	.st19{fill:#DB0D15;}
	.st20{fill:#E30613;}
	.st21{fill:#E30613;stroke:#E30613;stroke-width:2.9777;stroke-miterlimit:3.8637;}
</style>
<rect id="XMLID_563_" y="0" class="st7" width="358.97" height="102.07"/>
<g id="Pirelli">
	<g id="XMLID_822_">
		<polygon id="XMLID_833_" class="st13" points="184.591,70.096 205.454,70.096 205.454,62.32 184.591,62.32 184.591,57.009 
			206.212,57.009 206.212,49.233 164.866,49.233 164.866,82.803 207.54,82.803 207.54,75.217 184.591,75.217 		"/>
		<path id="XMLID_830_" class="st13" d="M154.435,61.372c0-7.587-4.552-12.138-11-12.138h-39.45v33.57h18.777V72.562h5.121
			l5.5,10.242h22.191l-8.345-11.949C150.262,70.096,154.435,65.734,154.435,61.372z M132.244,64.406h-9.293v-7.397h9.293l0,0
			c2.086,0,3.793,1.707,3.793,3.604C135.848,63.079,134.141,64.406,132.244,64.406z"/>
		<rect id="XMLID_829_" x="72.69" y="49.233" class="st13" width="18.777" height="33.57"/>
		<polygon id="XMLID_828_" class="st13" points="237.507,49.233 218.161,49.233 218.161,82.803 256.094,82.803 256.094,75.217 
			237.507,75.217 		"/>
		<path id="XMLID_825_" class="st13" d="M318.303,19.267H28.878v63.537h31.294l-0.19-40.019h258.131
			c9.293,0,11.949-8.345,11.949-11.949C330.062,26.853,326.458,19.267,318.303,19.267z M281.698,34.629H60.172v-7.776h221.716
			c2.086,0,4.173,1.707,4.173,3.604C285.871,32.543,283.784,34.629,281.698,34.629z"/>
		<polygon id="XMLID_824_" class="st13" points="280.939,49.233 261.784,49.233 261.784,82.803 299.526,82.803 299.526,75.217 
			280.939,75.217 		"/>
		<rect id="XMLID_823_" x="305.596" y="49.233" class="st13" width="18.777" height="33.57"/>
	</g>
</g>
</svg>
