<?xml version="1.0" encoding="utf-8"?>
<!-- Generator: Adobe Illustrator 20.0.0, SVG Export Plug-In . SVG Version: 6.00 Build 0)  -->
<svg version="1.1" id="Layer_1" xmlns="http://www.w3.org/2000/svg" xmlns:xlink="http://www.w3.org/1999/xlink" x="0px" y="0px"
	 viewBox="0 0 358.94 102.07" style="enable-background:new 0 0 358.94 102.07;" xml:space="preserve">
<style type="text/css">
	.st0{display:none;fill:#0C4684;}
	.st1{display:none;fill:#F8DC00;}
	.st2{display:none;fill:#DE222A;}
	.st3{display:none;fill:#004996;}
	.st4{display:none;}
	.st5{display:none;fill:#1D1D1B;}
	.st6{display:none;fill:#005AA9;}
	.st7{display:none;fill:#FFEC00;}
	.st8{display:none;fill:#FDA428;}
	.st9{fill:#FFFFFF;}
	.st10{fill:#ED0000;}
	.st11{fill:#E2231A;}
	.st12{fill:#1D1D1B;}
	.st13{fill:#E20613;}
	.st14{fill:#FFD039;}
	.st15{fill:#FCBD1B;}
	.st16{fill:#FF4C00;}
	.st17{fill:#FFE600;}
	.st18{fill:#231F20;}
	.st19{fill:#DB0D15;}
	.st20{fill:#E30613;}
	.st21{fill:#E30613;stroke:#E30613;stroke-width:2.9777;stroke-miterlimit:3.8637;}
</style>
<rect id="XMLID_300_" x="-0.03" y="0" transform="matrix(-1 -5.003432e-11 5.003432e-11 -1 358.91 102.07)" class="st9" width="358.97" height="102.07"/>
<g id="Uniroyal_3_">
	<polygon id="XMLID_299_" class="st9" points="221.489,12.572 340.764,12.572 340.764,89.498 221.489,89.498 	"/>
	<polygon id="XMLID_298_" class="st9" points="223.474,14.723 338.614,14.723 338.614,87.512 223.474,87.512 	"/>
	<polygon id="XMLID_297_" class="st20" points="337.29,62.202 314.461,62.202 320.747,50.952 320.747,16.047 337.29,16.047 	"/>
	<polygon id="XMLID_296_" class="st20" points="274.427,51.283 280.879,62.202 224.798,62.202 224.798,16.047 274.427,16.047 	"/>
	<polygon id="XMLID_295_" class="st12" points="289.15,22.167 283.691,31.928 283.691,40.365 294.113,22.167 290.639,16.047 
		297.256,16.047 300.896,22.167 289.316,42.184 300.896,62.202 294.279,62.202 283.691,43.839 283.691,52.441 289.316,62.202 
		282.698,62.202 276.081,50.787 276.081,16.047 285.676,16.047 	"/>
	<polygon id="XMLID_294_" class="st12" points="311.483,20.513 311.483,16.047 319.093,16.047 319.093,50.621 312.641,62.202 
		305.859,62.202 294.279,42.184 305.693,22.167 302.219,16.047 308.836,16.047 	"/>
	<polygon id="XMLID_293_" class="st9" points="305.859,42.184 311.483,51.779 311.483,60.382 300.896,42.184 311.483,23.987 
		311.483,32.424 	"/>
	<path id="XMLID_289_" class="st12" d="M321.078,65.345h-7.61l-3.474,19.521h4.797l0.662-3.805h4.136l0.662,3.805h4.632
		L321.078,65.345z M316.115,76.925c0.331-2.812,0.662-5.625,1.323-8.437l1.323,8.437C317.935,76.925,316.942,76.759,316.115,76.925z
		"/>
	<polygon id="XMLID_288_" class="st12" points="331.169,81.061 337.456,81.061 337.456,84.865 326.537,84.865 326.537,65.345 
		331.169,65.345 	"/>
	<polygon id="XMLID_237_" class="st12" points="306.686,77.917 306.686,84.865 301.888,84.865 301.888,77.917 296.098,65.345 
		301.557,65.345 304.204,72.789 306.851,65.345 312.145,65.345 	"/>
	<polygon id="XMLID_236_" class="st12" points="264.17,84.865 259.538,84.865 259.538,65.345 264.17,65.345 	"/>
	<path id="XMLID_235_" class="st12" d="M251.598,77.256L251.598,77.256c0.165-3.97,0.165-8.272,0.165-11.911h4.632v19.521h-6.121
		l-3.143-11.249h-0.165v11.415h-4.632V65.345h5.79L251.598,77.256L251.598,77.256z"/>
	<path id="XMLID_234_" class="st12" d="M230.422,65.345v15.55h3.639v-15.55h4.467v17.701c0,0.993-0.827,1.82-1.82,1.82h-9.264
		c-0.993,0-1.82-0.827-1.82-1.82V65.345H230.422L230.422,65.345z"/>
	<path id="XMLID_231_" class="st12" d="M278.563,78.083c0.165,0,0.165,0,0.165,0c0.993,0,1.82-0.827,1.82-1.82V67.33
		c0-0.993-0.827-1.82-1.82-1.82h-11.249v19.521h4.797v-8.602l4.467,8.602c1.82,0,3.309,0,5.294,0L278.563,78.083z M275.75,73.947
		h-3.474V69.48h3.474V73.947z"/>
	<path id="XMLID_228_" class="st12" d="M294.444,65.345h-9.264c-0.993,0-1.82,0.827-1.82,1.82v15.881c0,0.993,0.827,1.82,1.82,1.82
		h9.264c0.993,0,1.82-0.827,1.82-1.82V67.164C296.264,66.172,295.437,65.345,294.444,65.345z M291.466,80.895
		c-1.158,0-2.316,0-3.474,0v-11.58h3.474C291.466,73.451,291.466,76.759,291.466,80.895z"/>
	<path id="XMLID_225_" class="st12" d="M164.25,54.095l-0.165,0.331c-3.805-0.662-7.279,0.496-10.422,2.481
		c-4.963-2.151-9.099-2.151-14.062,0.165c-3.805-2.481-9.43-2.316-13.565-0.496c-3.309-2.481-6.286-3.143-10.588-3.143
		C122.066,27.957,160.611,30.935,164.25,54.095L164.25,54.095z M167.559,58.066h-0.331c-4.301-2.647-9.76-0.662-13.234,2.151
		c-3.143-1.82-9.595-3.805-12.573-0.662l-0.165,23.657c0,3.97-7.775,4.797-8.272,0.662c0.827-0.331,1.82-0.331,2.647-0.496
		c0.496,0.331,0.993,0.662,1.654,0.496l0.993-1.158V59.72c-3.309-3.143-9.099-1.654-12.573,0.331
		c-4.963-4.136-7.61-4.301-13.731-2.647c-0.165-1.323,0.331-2.647,0.496-3.97c3.143-12.242,12.738-18.859,24.649-20.844
		c2.647-5.459,5.294,0,5.294,0C143.737,33.086,166.236,34.74,167.559,58.066L167.559,58.066z"/>
	<path id="XMLID_224_" class="st21" d="M164.25,54.095l-0.165,0.331c-3.805-0.662-7.279,0.496-10.422,2.481
		c-4.963-2.151-9.099-2.151-14.062,0.165c-3.805-2.481-9.43-2.316-13.565-0.496c-3.309-2.481-6.286-3.143-10.588-3.143
		C122.066,27.957,160.611,30.935,164.25,54.095L164.25,54.095z"/>
	<polygon id="XMLID_223_" class="st12" points="162.1,85.031 162.1,69.977 165.243,69.977 165.243,65.179 153.828,65.179 
		153.828,69.977 156.806,69.977 156.806,85.031 	"/>
	<polygon id="XMLID_222_" class="st12" points="176.161,85.031 176.161,76.594 180.793,65.179 175.334,65.179 173.349,71.3 
		173.349,71.3 171.529,65.179 165.905,65.179 170.702,76.594 170.702,85.031 	"/>
	<path id="XMLID_219_" class="st12" d="M196.675,85.031l-3.97-8.272c2.151-0.827,3.143-2.812,3.143-4.963
		c0-5.294-3.309-6.617-8.106-6.617h-5.128v20.017h5.294v-5.294c0-0.993-0.165-1.985-0.165-2.978h0.165l2.978,8.272L196.675,85.031
		L196.675,85.031z M187.907,74.443V69.48c1.489,0,2.481,0.662,2.481,2.316c0,1.323-0.662,2.481-2.151,2.481L187.907,74.443
		L187.907,74.443z"/>
	<polygon id="XMLID_218_" class="st12" points="198.329,85.031 208.42,85.031 208.42,80.399 203.788,80.399 203.788,77.421 
		207.924,77.421 207.924,72.624 203.788,72.624 203.788,69.811 208.42,69.811 208.42,65.179 198.329,65.179 	"/>
	<polygon id="XMLID_217_" class="st12" points="26.613,85.031 26.613,69.977 29.59,69.977 29.59,65.179 18.176,65.179 
		18.176,69.977 21.153,69.977 21.153,85.031 	"/>
	<polygon id="XMLID_216_" class="st12" points="44.975,85.031 44.975,65.179 39.682,65.179 39.682,72.293 37.035,72.293 
		37.035,65.179 31.575,65.179 31.575,85.031 37.035,85.031 37.035,77.09 39.682,77.09 39.682,85.031 	"/>
	<polygon id="XMLID_215_" class="st12" points="48.118,85.031 58.21,85.031 58.21,80.399 53.578,80.399 53.578,77.421 
		57.713,77.421 57.713,72.624 53.578,72.624 53.578,69.811 58.21,69.811 58.21,65.179 48.118,65.179 	"/>
	<path id="XMLID_212_" class="st12" d="M83.355,85.031l-3.97-8.272c2.151-0.827,3.143-2.812,3.143-4.963
		c0-5.294-3.309-6.617-8.106-6.617h-5.128v20.017h5.294v-5.294c0-0.993,0-1.985,0-2.978l0,0l2.978,8.272L83.355,85.031
		L83.355,85.031z M74.422,74.443V69.48c1.489,0,2.481,0.662,2.481,2.316c0,1.323-0.662,2.481-2.151,2.481L74.422,74.443
		L74.422,74.443z"/>
	<path id="XMLID_209_" class="st12" d="M99.236,85.031l-4.136-20.017h-6.617l-4.963,20.017h5.459l0.331-2.481h3.639l0.331,2.481
		H99.236L99.236,85.031z M90.303,78.248l0.662-4.632c0.331-1.158,0.331-2.481,0.496-3.805l0,0c0.165,1.158,0.331,2.481,0.331,3.805
		l0.496,4.632H90.303L90.303,78.248z"/>
	<polygon id="XMLID_208_" class="st12" points="106.184,85.031 106.184,65.179 100.891,65.179 100.891,85.031 	"/>
	<path id="XMLID_207_" class="st12" d="M109.328,85.031h5.128v-5.79c0-1.82-0.331-3.639-0.331-5.625l0,0l3.97,11.58h5.128V65.179
		h-4.963v5.128c0,2.316,0.331,4.467,0.496,6.783l0,0l-4.301-12.076h-5.128L109.328,85.031L109.328,85.031z"/>
</g>
</svg>
