<?xml version="1.0" encoding="utf-8"?>
<!-- Generator: Adobe Illustrator 20.0.0, SVG Export Plug-In . SVG Version: 6.00 Build 0)  -->
<svg version="1.1" id="Layer_1" xmlns="http://www.w3.org/2000/svg" xmlns:xlink="http://www.w3.org/1999/xlink" x="0px" y="0px"
	 viewBox="0 0 358.94 102.07" style="enable-background:new 0 0 358.94 102.07;" xml:space="preserve">
<style type="text/css">
	.st0{display:none;fill:#0C4684;}
	.st1{display:none;fill:#F8DC00;}
	.st2{display:none;fill:#DE222A;}
	.st3{display:none;fill:#004996;}
	.st4{display:none;}
	.st5{display:none;fill:#1D1D1B;}
	.st6{display:none;fill:#005AA9;}
	.st7{display:none;fill:#FFEC00;}
	.st8{display:none;fill:#FDA428;}
	.st9{fill:#1D1D1B;}
	.st10{fill:#ED0000;}
	.st11{fill:#E2231A;}
	.st12{fill:#1D1D1B;}
	.st13{fill:#E20613;}
	.st14{fill:#FFD039;}
	.st15{fill:#FCBD1B;}
	.st16{fill:#FF4C00;}
	.st17{fill:#FFE600;}
	.st18{fill:#231F20;}
	.st19{fill:#DB0D15;}
	.st20{fill:#E30613;}
	.st21{fill:#E30613;stroke:#E30613;stroke-width:2.9777;stroke-miterlimit:3.8637;}
</style>
<rect id="XMLID_911_" y="0" transform="matrix(-1 -5.003343e-11 5.003343e-11 -1 358.94 102.07)" class="st5" width="358.94" height="102.07"/>
<polygon id="XMLID_1138_" class="st19" points="19.739,68.831 42.185,46.385 19.563,23.763 23.981,23.763 46.427,46.385 
	24.158,68.831 "/>
<polygon id="XMLID_1137_" class="st19" points="26.632,68.831 49.078,46.385 26.455,23.763 30.874,23.763 53.496,46.385 
	31.051,68.831 "/>
<polygon id="XMLID_1136_" class="st19" points="33.525,68.831 55.97,46.385 33.348,23.763 37.767,23.763 60.389,46.385 
	37.943,68.831 "/>
<polygon id="XMLID_1135_" class="st19" points="40.418,68.831 62.863,46.385 40.418,23.763 44.659,23.763 67.281,46.385 
	44.836,68.831 "/>
<polygon id="XMLID_1134_" class="st19" points="92.378,23.763 72.053,44.264 70.639,43.027 89.904,23.763 85.485,23.763 
	68.519,40.73 67.281,39.493 83.011,23.763 78.592,23.763 65.161,37.372 63.747,35.958 75.941,23.763 71.7,23.763 61.626,33.837 
	60.389,32.6 69.049,23.763 64.807,23.763 58.268,30.479 51.552,23.763 47.31,23.763 69.932,46.385 47.487,68.831 51.729,68.831 
	74.174,46.385 96.796,23.763 "/>
<polygon id="XMLID_1133_" class="st9" points="122.953,29.419 116.237,29.419 109.344,43.911 102.629,29.419 95.736,29.419 
	106.34,50.804 106.34,63.705 112.349,63.705 112.349,50.804 "/>
<path id="XMLID_1166_" class="st9" d="M135.678,29.065c9.544,0,17.32,7.776,17.32,17.32s-7.776,17.32-17.32,17.32
	s-17.32-7.776-17.32-17.32S126.134,29.065,135.678,29.065L135.678,29.065z M124.544,46.562c0,6.186,5.125,11.311,11.311,11.311
	c6.186,0,11.311-5.125,11.311-11.311s-5.125-11.311-11.311-11.311C129.492,35.251,124.544,40.376,124.544,46.562z"/>
<path id="XMLID_1163_" class="st9" d="M190.466,29.065c9.544,0,17.32,7.776,17.32,17.32s-7.776,17.32-17.32,17.32
	s-17.32-7.776-17.32-17.32C172.969,36.842,180.746,29.065,190.466,29.065L190.466,29.065z M179.155,46.562
	c0,6.186,5.125,11.311,11.311,11.311s11.311-5.125,11.311-11.311s-5.125-11.311-11.311-11.311
	C184.28,35.251,179.155,40.376,179.155,46.562z"/>
<polygon id="XMLID_1122_" class="st9" points="178.802,29.065 171.202,29.065 160.775,43.734 160.775,29.065 154.412,29.065 
	154.412,63.352 160.775,63.352 160.775,49.213 170.672,63.352 178.271,63.352 165.723,46.562 "/>
<polygon id="XMLID_1121_" class="st9" points="227.404,29.419 227.404,43.911 215.739,43.911 215.739,29.419 209.2,29.419 
	209.2,63.705 215.739,63.705 215.739,49.92 227.404,49.92 227.404,63.705 233.943,63.705 233.943,29.419 "/>
<path id="XMLID_1158_" class="st9" d="M259.923,63.705h6.539l-12.725-34.287h-0.707h-5.302h-0.177l-12.725,34.287h6.539l3.005-8.307
	h12.018L259.923,63.705L259.923,63.705z M246.845,49.743l4.065-10.781l4.065,10.781H246.845z"/>
<path id="XMLID_1155_" class="st9" d="M329.557,63.705h6.539l-12.725-34.287h-0.707h-5.302h-0.177l-12.725,34.287H311l3.005-8.307
	h12.195L329.557,63.705L329.557,63.705z M316.479,49.743l4.065-10.781l4.065,10.781H316.479z"/>
<polygon id="XMLID_1115_" class="st9" points="301.279,29.419 296.684,29.419 294.917,29.419 285.373,54.869 275.83,29.419 
	273.885,29.419 269.467,29.419 267.7,29.419 267.7,63.705 273.885,63.705 273.885,41.26 282.369,63.705 282.722,63.705 
	287.848,63.705 288.378,63.705 296.684,41.26 296.684,63.705 303.047,63.705 303.047,29.419 "/>
</svg>
